<svg xmlns="http://www.w3.org/2000/svg" xmlns:xlink="http://www.w3.org/1999/xlink" style="vertical-align:-.755ex" width="4.889ex" height="2.634ex" viewBox="0 -809.3 2104.8 1134.2"><defs><path id="a" stroke-width="1" d="M434-231q0-13-6-19h-18q-129 0-180 66-5 7-8 12t-5 11-4 13-2 15-1 22-1 27 0 37 0 47v53q-1 89-5 100-1 1-1 2-14 36-50 56t-71 20q-11 0-14 3t-3 16 3 16 14 3q34 0 70 20t51 56q5 11 5 32t1 152v50q0 55 6 77t29 42q26 26 80 42 37 8 53 9h13q11 0 18 1h20q6-6 6-18 0-13-3-16-2-3-16-3-53-3-83-24t-36-42q-5-13-5-148v-82q0-47-3-64t-17-39q-31-43-87-59l-14-5 14-5q18-6 36-15t42-34 28-59q1-6 1-136 0-135 5-148 10-27 43-45t76-21q14 0 16-3 3-3 3-15z"/><path id="b" stroke-width="1" d="M231 637q-27 0-32 1t-5 11q0 27 11 33 1 1 130 1 259 0 273-2 63-10 105-45t43-92q0-64-58-115t-133-69l-10-3q64-9 105-46t42-92q0-73-72-141T453 1q-7-1-211-1Q42 0 39 2q-4 3-4 8 0 7 2 14 5 19 10 21 4 1 15 1h6q27 0 60 3 14 3 19 12 3 4 72 278t69 289q0 7-57 9zm418-93q0 30-15 56t-49 34q-7 2-92 3h-42q-22 0-35-1h-13q-15-1-19-10-2-4-32-120 0-3-1-6l-31-126h81q81 0 93 2 60 10 107 58t48 110zm-54-315q0 44-23 73t-60 34q-6 1-83 1-118 0-119-1 0-2-17-73t-35-141l-18-70q0-4 12-4t81-2q89 0 96 1 62 7 114 58t52 124z"/><path id="c" stroke-width="1" d="M184 600q0 24 19 42t44 19q18 0 30-12t13-30q0-23-20-42t-44-20q-15 0-28 10t-14 33zM21 287q0 8 9 31t24 51 44 51 60 22q39 0 65-23t27-62q0-17-14-56t-40-105-42-113q-5-22-5-32 0-25 17-25 9 0 19 3t23 14 27 35 25 59q3 12 5 14t17 2q20 0 20-10 0-8-9-31t-25-51-45-50-62-22q-32 0-59 21T74 74q0 17 5 32t43 114q38 101 44 121t7 39q0 24-17 24h-2q-30 0-55-33t-38-84q-1-1-2-3t-1-3-2-2-3-1-4 0-8 0H27q-6 6-6 9z"/><path id="d" stroke-width="1" d="M65 731q0 14 3 16t20 3q83 0 128-25t63-55q9-21 10-35t2-134q1-139 2-144 13-45 52-66t72-22q11 0 14-3t3-16-3-16-14-3q-37 0-72-21t-47-53q-5-14-6-36t-1-149v-51q0-55-6-77t-29-42q-54-52-167-52-18 0-21 3t-3 17v7q0 1 1 5t3 4 8 1q14 0 31 3t38 10 37 23 24 38q1 5 2 142l1 136q13 57 70 91 35 17 50 20-25 7-50 20-55 34-68 82l-2 10-1 136q-1 137-2 142-12 40-53 56t-77 17q-9 0-10 3t-2 15z"/></defs><g fill="currentColor" stroke="currentColor" stroke-width="0" transform="scale(1 -1)"><use xlink:href="#a"/><g transform="translate(500)"><use xlink:href="#b"/><use x="1074" y="-213" transform="scale(.707)" xlink:href="#c"/></g><use x="1604" xlink:href="#d"/></g></svg>