<?xml version="1.0" encoding="utf-8"?>
<!-- Generator: Adobe Illustrator 19.0.0, SVG Export Plug-In . SVG Version: 6.00 Build 0)  -->
<svg version="1.1" id="Layer_1" xmlns="http://www.w3.org/2000/svg" xmlns:xlink="http://www.w3.org/1999/xlink" x="0px" y="0px"
	 viewBox="0 0 315.3333435 85.6666641" style="enable-background:new 0 0 315.3333435 85.6666641;" xml:space="preserve">
<style type="text/css">
	.st0{fill:#010101;}
	.st1{fill:none;stroke:#27AAE1;stroke-miterlimit:10;}
	.st2{fill:#A7A9AC;}
	.st3{fill:none;stroke:#000000;stroke-miterlimit:10;}
</style>
<g id="XMLID_2_">
	<g id="XMLID_3_">
		<path id="XMLID_161_" class="st0" d="M90.9550781,69.7114258c0.1904297,0.2036133,0.3349609,0.4072266,0.4321289,0.6108398
			c0.0698242,0.140625,0.1850586,0.5107422,0.3442383,1.1098633l0.5146484-0.7753906
			c0.1357422-0.1879883,0.3007813-0.3666992,0.4960938-0.5371094c0.1943359-0.1704102,0.3662109-0.2866211,0.5136719-0.3496094
			c0.09375-0.0390625,0.1962891-0.0585938,0.3095703-0.0585938c0.1669922,0,0.3007813,0.0449219,0.4003906,0.1352539
			c0.0986328,0.0898438,0.1484375,0.199707,0.1484375,0.3286133c0,0.1489258-0.0292969,0.2504883-0.0878906,0.3051758
			c-0.1083984,0.0981445-0.2333984,0.1469727-0.3730469,0.1469727c-0.0820313,0-0.1699219-0.0175781-0.2626953-0.0527344
			c-0.1835938-0.0625-0.3056641-0.0942383-0.3681641-0.0942383c-0.09375,0-0.2041016,0.0551758-0.3330078,0.1645508
			c-0.2412109,0.2036133-0.5292969,0.597168-0.8642578,1.1801758l0.4785156,2.0195313
			c0.0742188,0.3095703,0.1367188,0.4951172,0.1875,0.5556641c0.0498047,0.0605469,0.1005859,0.0908203,0.1513672,0.0908203
			c0.0820313,0,0.1777344-0.0449219,0.2861328-0.1347656c0.2138672-0.1806641,0.3974609-0.4150391,0.5488281-0.7050781
			l0.2050781,0.1054688c-0.2451172,0.4619141-0.5566406,0.8457031-0.9345703,1.1513672
			c-0.2138672,0.171875-0.3955078,0.2578125-0.5429688,0.2578125c-0.21875,0-0.3916016-0.1230469-0.5205078-0.3691406
			c-0.0820313-0.1533203-0.2504883-0.8105469-0.5078125-1.9726563c-0.6069336,1.0605469-1.09375,1.7431641-1.4599609,2.0488281
			c-0.2373047,0.1953125-0.4672852,0.2929688-0.6889648,0.2929688c-0.1557617,0-0.2978516-0.0566406-0.4262695-0.1699219
			c-0.0932617-0.0859375-0.1401367-0.2011719-0.1401367-0.3466797c0-0.1289063,0.0429688-0.2363281,0.128418-0.3222656
			c0.0854492-0.0869141,0.190918-0.1298828,0.3154297-0.1298828s0.2568359,0.0625,0.3969727,0.1884766
			c0.1010742,0.0898438,0.1791992,0.1347656,0.2338867,0.1347656c0.0463867,0,0.1069336-0.03125,0.1806641-0.09375
			c0.1831055-0.1494141,0.4321289-0.4697266,0.7475586-0.9628906s0.5219727-0.8496094,0.6191406-1.0688477
			c-0.2412109-0.9511719-0.3720703-1.4541016-0.3911133-1.5092773c-0.0898438-0.2543945-0.206543-0.4345703-0.3505859-0.5400391
			c-0.144043-0.105957-0.3564453-0.1586914-0.6367188-0.1586914c-0.0893555,0-0.1923828,0.0039063-0.309082,0.0117188v-0.2114258
			L90.9550781,69.7114258z"/>
	</g>
</g>
<g id="XMLID_1_">
	<g id="XMLID_13_">
		<g id="XMLID_14_">
			<polygon id="XMLID_15_" points="87.9905243,63.9993286 87.9905243,65.9145813 97,63.5020752 87.9905243,61.0854187 
				87.9905243,63.000824 4,63.000824 4,63.9993286 			"/>
		</g>
	</g>
</g>
<g id="XMLID_4_">
	<g id="XMLID_17_">
		<g id="XMLID_18_">
			<polygon id="XMLID_19_" points="14.4992981,13.0094604 16.4145279,13.0094604 14.002037,4 11.5853882,13.0094604 
				13.5007782,13.0094604 13.5007782,78.9166565 14.4992981,78.9166565 			"/>
		</g>
	</g>
</g>
<polyline id="XMLID_9_" class="st1" points="81.6666641,63.5 57.3333321,63.5 57.3333321,23.333334 37.6666679,23.333334 
	37.6666679,63.5 18.333334,63.5 "/>
<g id="XMLID_6_">
	<g id="XMLID_7_">
		<path id="XMLID_159_" class="st0" d="M5.9238281,4.5087891c0.1333008,0.2250977,0.2255859,0.4355469,0.2763672,0.6313477
			s0.1020508,0.5805664,0.152832,1.1542969l0.2592773,2.8623047c0.2353516-0.2792969,0.5761719-0.7216797,1.0234375-1.3266602
			c0.2158203-0.2944336,0.4824219-0.6958008,0.7998047-1.2041016C8.6279297,6.315918,8.7451172,6.0986328,8.7890625,5.9746094
			C8.8125,5.9125977,8.8242188,5.8486328,8.8242188,5.7827148c0-0.0424805-0.0136719-0.0776367-0.0410156-0.1044922
			c-0.0273438-0.0273438-0.0996094-0.059082-0.2148438-0.0961914C8.4521484,5.5454102,8.3564453,5.4775391,8.2802734,5.378418
			C8.203125,5.2797852,8.1650391,5.1660156,8.1650391,5.0380859c0-0.1586914,0.046875-0.2866211,0.1416016-0.3837891
			c0.09375-0.0966797,0.2119141-0.1455078,0.3525391-0.1455078c0.1728516,0,0.3193359,0.0708008,0.4414063,0.2124023
			C9.2216797,4.862793,9.2832031,5.0576172,9.2832031,5.3056641c0,0.3066406-0.1064453,0.6567383-0.3183594,1.0498047
			c-0.2109375,0.394043-0.6191406,0.9975586-1.2236328,1.8120117C7.1376953,8.9819336,6.40625,9.8696289,5.5473633,10.831543
			c-0.5922852,0.6630859-1.0317383,1.0810547-1.3178711,1.2539063c-0.2861328,0.171875-0.53125,0.2587891-0.7353516,0.2587891
			c-0.121582,0-0.2285156-0.0458984-0.3208008-0.1367188c-0.0917969-0.0917969-0.1381836-0.1972656-0.1381836-0.3173828
			c0-0.1513672,0.0639648-0.2890625,0.1914063-0.4130859s0.265625-0.1855469,0.4145508-0.1855469
			c0.0786133,0,0.1430664,0.0166016,0.1943359,0.0517578c0.03125,0.0195313,0.0654297,0.0751953,0.1025391,0.1660156
			c0.0375977,0.0908203,0.0717773,0.1523438,0.1030273,0.1835938c0.0195313,0.0185547,0.043457,0.0283203,0.0708008,0.0283203
			c0.0234375,0,0.0644531-0.0195313,0.1235352-0.0576172c0.2158203-0.1318359,0.4667969-0.3417969,0.7529297-0.6289063
			c0.3764648-0.3798828,0.6547852-0.6894531,0.8354492-0.9296875L5.4941406,6.4169922
			C5.4394531,5.8081055,5.3569336,5.4375,5.2470703,5.3056641S4.953125,5.1079102,4.6943359,5.1079102
			c-0.0825195,0-0.2294922,0.0117188-0.4414063,0.0351563l-0.0527344-0.215332L5.9238281,4.5087891z"/>
	</g>
</g>
<g id="XMLID_21_">
	<g id="XMLID_22_">
		<path id="XMLID_157_" class="st0" d="M197.621582,69.7114258c0.1904297,0.2036133,0.3349609,0.4072266,0.4321289,0.6108398
			c0.0698242,0.140625,0.1850586,0.5107422,0.3442383,1.1098633l0.5146484-0.7753906
			c0.1357422-0.1879883,0.3007813-0.3666992,0.4960938-0.5371094c0.1943359-0.1704102,0.3662109-0.2866211,0.5136719-0.3496094
			c0.09375-0.0390625,0.1962891-0.0585938,0.3095703-0.0585938c0.1669922,0,0.3007813,0.0449219,0.4003906,0.1352539
			c0.0986328,0.0898438,0.1484375,0.199707,0.1484375,0.3286133c0,0.1489258-0.0292969,0.2504883-0.0878906,0.3051758
			c-0.1083984,0.0981445-0.2333984,0.1469727-0.3730469,0.1469727c-0.0820313,0-0.1699219-0.0175781-0.2626953-0.0527344
			c-0.1835938-0.0625-0.3056641-0.0942383-0.3681641-0.0942383c-0.09375,0-0.2041016,0.0551758-0.3330078,0.1645508
			c-0.2412109,0.2036133-0.5292969,0.597168-0.8642578,1.1801758l0.4785156,2.0195313
			c0.0742188,0.3095703,0.1367188,0.4951172,0.1875,0.5556641c0.0498047,0.0605469,0.1005859,0.0908203,0.1513672,0.0908203
			c0.0820313,0,0.1777344-0.0449219,0.2861328-0.1347656c0.2138672-0.1806641,0.3974609-0.4150391,0.5488281-0.7050781
			l0.2050781,0.1054688c-0.2451172,0.4619141-0.5566406,0.8457031-0.9345703,1.1513672
			c-0.2138672,0.171875-0.3955078,0.2578125-0.5429688,0.2578125c-0.21875,0-0.3916016-0.1230469-0.5205078-0.3691406
			c-0.0820313-0.1533203-0.2504883-0.8105469-0.5078125-1.9726563c-0.6069336,1.0605469-1.09375,1.7431641-1.4599609,2.0488281
			c-0.2373047,0.1953125-0.4672852,0.2929688-0.6889648,0.2929688c-0.1557617,0-0.2978516-0.0566406-0.4262695-0.1699219
			c-0.0932617-0.0859375-0.1401367-0.2011719-0.1401367-0.3466797c0-0.1289063,0.0429688-0.2363281,0.128418-0.3222656
			c0.0854492-0.0869141,0.190918-0.1298828,0.3154297-0.1298828s0.2568359,0.0625,0.3969727,0.1884766
			c0.1010742,0.0898438,0.1791992,0.1347656,0.2338867,0.1347656c0.0463867,0,0.1069336-0.03125,0.1806641-0.09375
			c0.1831055-0.1494141,0.4321289-0.4697266,0.7475586-0.9628906s0.5219727-0.8496094,0.6191406-1.0688477
			c-0.2412109-0.9511719-0.3720703-1.4541016-0.3911133-1.5092773c-0.0898438-0.2543945-0.206543-0.4345703-0.3505859-0.5400391
			c-0.144043-0.105957-0.3564453-0.1586914-0.6367188-0.1586914c-0.0893555,0-0.1923828,0.0039063-0.309082,0.0117188v-0.2114258
			L197.621582,69.7114258z"/>
	</g>
</g>
<g id="XMLID_20_">
	<g id="XMLID_34_">
		<g id="XMLID_35_">
			<polygon id="XMLID_36_" points="194.6572113,63.9993286 194.6572113,65.9145813 203.6666718,63.5020752 194.6572113,61.0854187 
				194.6572113,63.000824 110.6666641,63.000824 110.6666641,63.9993286 			"/>
		</g>
	</g>
</g>
<g id="XMLID_11_">
	<g id="XMLID_30_">
		<g id="XMLID_31_">
			<polygon id="XMLID_32_" points="121.1659622,13.0094604 123.0811996,13.0094604 120.6687088,4 118.2520523,13.0094604 
				120.1674423,13.0094604 120.1674423,78.9166565 121.1659622,78.9166565 			"/>
		</g>
	</g>
</g>
<g id="XMLID_5_">
	<g id="XMLID_8_">
		<path id="XMLID_155_" class="st0" d="M112.590332,4.5087891c0.1333008,0.2250977,0.2255859,0.4355469,0.2763672,0.6313477
			s0.1020508,0.5805664,0.152832,1.1542969l0.2592773,2.8623047c0.2353516-0.2792969,0.5761719-0.7216797,1.0234375-1.3266602
			c0.2158203-0.2944336,0.4824219-0.6958008,0.7998047-1.2041016c0.1923828-0.3100586,0.3095703-0.5273438,0.3535156-0.6513672
			c0.0234375-0.0620117,0.0351563-0.1259766,0.0351563-0.1918945c0-0.0424805-0.0136719-0.0776367-0.0410156-0.1044922
			c-0.0273438-0.0273438-0.0996094-0.059082-0.2148438-0.0961914c-0.1162109-0.0366211-0.2119141-0.1044922-0.2880859-0.2036133
			c-0.0771484-0.0986328-0.1152344-0.2124023-0.1152344-0.340332c0-0.1586914,0.046875-0.2866211,0.1416016-0.3837891
			c0.09375-0.0966797,0.2119141-0.1455078,0.3525391-0.1455078c0.1728516,0,0.3193359,0.0708008,0.4414063,0.2124023
			c0.1210938,0.1416016,0.1826172,0.3364258,0.1826172,0.5844727c0,0.3066406-0.1064453,0.6567383-0.3183594,1.0498047
			c-0.2109375,0.394043-0.6191406,0.9975586-1.2236328,1.8120117c-0.6035156,0.8144531-1.3349609,1.7021484-2.1938477,2.6640625
			c-0.5922852,0.6630859-1.0317383,1.0810547-1.3178711,1.2539063c-0.2861328,0.171875-0.53125,0.2587891-0.7353516,0.2587891
			c-0.121582,0-0.2285156-0.0458984-0.3208008-0.1367188c-0.0917969-0.0917969-0.1381836-0.1972656-0.1381836-0.3173828
			c0-0.1513672,0.0639648-0.2890625,0.1914063-0.4130859s0.265625-0.1855469,0.4145508-0.1855469
			c0.0786133,0,0.1430664,0.0166016,0.1943359,0.0517578c0.03125,0.0195313,0.0654297,0.0751953,0.1025391,0.1660156
			c0.0375977,0.0908203,0.0717773,0.1523438,0.1030273,0.1835938c0.0195313,0.0185547,0.043457,0.0283203,0.0708008,0.0283203
			c0.0234375,0,0.0644531-0.0195313,0.1235352-0.0576172c0.2158203-0.1318359,0.4667969-0.3417969,0.7529297-0.6289063
			c0.3764648-0.3798828,0.6547852-0.6894531,0.8354492-0.9296875l-0.3295898-3.6879883
			c-0.0546875-0.6088867-0.137207-0.9794922-0.2470703-1.1113281s-0.2939453-0.1977539-0.5527344-0.1977539
			c-0.0825195,0-0.2294922,0.0117188-0.4414063,0.0351563l-0.0527344-0.215332L112.590332,4.5087891z"/>
	</g>
</g>
<polyline id="XMLID_25_" class="st1" points="125,63.5 134.6666718,63.5 154.3333282,23.75 174,63.4999962 183.6666718,63.4999962 
	"/>
<g id="XMLID_10_">
	<g id="XMLID_23_">
		<g id="XMLID_45_">
			<g id="XMLID_46_">
				<polygon id="XMLID_47_" class="st2" points="51.6130371,70.3170471 51.6130371,71.5330505 57.3333282,70.0013123 
					51.6130371,68.4669495 51.6130371,69.6830444 47.5,69.6830444 47.5,70.3170471 				"/>
			</g>
		</g>
	</g>
	<g id="XMLID_24_">
		<g id="XMLID_41_">
			<g id="XMLID_42_">
				<polygon id="XMLID_43_" class="st2" points="43.3869629,69.6829529 43.3869629,68.4669495 37.6666718,69.9986877 
					43.3869629,71.5330505 43.3869629,70.316925 47.5,70.316925 47.5,69.6829529 				"/>
			</g>
		</g>
	</g>
</g>
<g id="XMLID_27_">
	<g id="XMLID_37_">
		<path id="XMLID_151_" d="M39.0791016,75.7207031l1.9414063-0.9418945h0.1938477v6.699707
			c0,0.4443359,0.0185547,0.7216797,0.0561523,0.8310547c0.0371094,0.109375,0.1147461,0.1933594,0.2324219,0.2509766
			c0.1176758,0.0585938,0.3564453,0.0917969,0.7172852,0.0996094v0.2167969h-3v-0.2167969
			c0.3764648-0.0078125,0.6196289-0.0400391,0.7294922-0.0966797c0.1098633-0.0556641,0.1860352-0.1318359,0.2294922-0.2275391
			c0.0429688-0.0957031,0.0644531-0.3818359,0.0644531-0.8574219v-4.2832031c0-0.5771484-0.0195313-0.9477539-0.0585938-1.1118164
			c-0.027832-0.1245117-0.0776367-0.2163086-0.1503906-0.2749023C39.9624023,75.75,39.875,75.7207031,39.7729492,75.7207031
			c-0.1450195,0-0.347168,0.0605469-0.605957,0.1816406L39.0791016,75.7207031z"/>
		<path id="XMLID_153_" d="M48.1884766,74.5566406l-2.8881836,8.484375h-0.4707031l2.8886719-8.484375H48.1884766z"/>
	</g>
	<g id="XMLID_28_">
		<path id="XMLID_149_" d="M54.1875,74.5566406l-1.6533203,5.6816406c0.7138672-1.0693359,1.2705078-1.7788086,1.6708984-2.1298828
			c0.3994141-0.3510742,0.7822266-0.5268555,1.1464844-0.5268555c0.1884766,0,0.3457031,0.0644531,0.4707031,0.1933594
			c0.1259766,0.128418,0.1884766,0.300293,0.1884766,0.5146484c0,0.2573242-0.0546875,0.5698242-0.1650391,0.9360352
			l-0.7177734,2.4521484c-0.0898438,0.2958984-0.1347656,0.4599609-0.1347656,0.4912109
			c0,0.0546875,0.0166016,0.0996094,0.0498047,0.1347656s0.0712891,0.0527344,0.1152344,0.0527344
			c0.0507813,0,0.109375-0.0253906,0.1757813-0.0761719c0.2236328-0.171875,0.4453125-0.4101563,0.6650391-0.7138672
			l0.1826172,0.1113281c-0.1337891,0.2060547-0.3193359,0.4335938-0.5566406,0.6816406
			c-0.2373047,0.2470703-0.4404297,0.4189453-0.6113281,0.5146484s-0.3222656,0.1435547-0.4560547,0.1435547
			c-0.1455078,0-0.2636719-0.0458984-0.3554688-0.1376953c-0.0927734-0.0917969-0.1386719-0.2099609-0.1386719-0.3535156
			c0-0.171875,0.0683594-0.4921875,0.2060547-0.9599609l0.6767578-2.3408203
			c0.0859375-0.2919922,0.1289063-0.5224609,0.1289063-0.6904297c0-0.0776367-0.0244141-0.1401367-0.0732422-0.1870117
			s-0.1132813-0.0703125-0.1914063-0.0703125c-0.1132813,0-0.2431641,0.0429688-0.3876953,0.1289063
			c-0.2675781,0.1635742-0.5751953,0.4677734-0.9238281,0.9125977c-0.0947266,0.1210938-0.4082031,0.6083984-0.9414063,1.4628906
			c-0.1650391,0.2734375-0.2998047,0.5712891-0.40625,0.8955078l-0.3759766,1.1992188h-0.8828125l1.9355469-6.6938477
			l0.2060547-0.7255859c0-0.1010742-0.0419922-0.190918-0.1269531-0.269043
			c-0.0839844-0.078125-0.1875-0.1171875-0.3085938-0.1171875c-0.0703125,0-0.1787109,0.0117188-0.3232422,0.0351563
			l-0.1240234,0.0175781v-0.2280273L54.1875,74.5566406z"/>
	</g>
</g>
<g id="XMLID_38_">
	<g id="XMLID_39_">
		<path id="XMLID_147_" class="st0" d="M7.5097656,19.3486328l-1.6411133,5.6816406
			c0.7084961-1.0693359,1.2617188-1.7788086,1.6586914-2.1298828c0.3964844-0.3510742,0.7763672-0.5268555,1.1386719-0.5268555
			c0.1865234,0,0.3427734,0.0644531,0.4667969,0.1933594c0.125,0.128418,0.1875,0.300293,0.1875,0.5146484
			c0,0.2573242-0.0546875,0.5698242-0.1640625,0.9360352l-0.7119141,2.4521484
			c-0.0898438,0.2958984-0.1347656,0.4599609-0.1347656,0.4912109c0,0.0546875,0.0166016,0.0996094,0.0498047,0.1347656
			s0.0712891,0.0527344,0.1142578,0.0527344c0.0507813,0,0.1083984-0.0253906,0.1748047-0.0761719
			c0.2216797-0.171875,0.4423828-0.4101563,0.6601563-0.7138672l0.1806641,0.1113281
			C9.3574219,26.6757813,9.1728516,26.9033203,8.9375,27.1513672C8.7021484,27.3984375,8.5,27.5703125,8.3300781,27.6660156
			c-0.1689453,0.0957031-0.3203125,0.1435547-0.4521484,0.1435547c-0.1445313,0-0.2626953-0.0458984-0.3535156-0.1376953
			s-0.1376953-0.2099609-0.1376953-0.3535156c0-0.171875,0.0683594-0.4921875,0.2050781-0.9599609l0.6708984-2.3408203
			c0.0859375-0.2919922,0.1289063-0.5224609,0.1289063-0.6904297c0-0.0776367-0.0244141-0.1401367-0.0732422-0.1870117
			s-0.1113281-0.0703125-0.1894531-0.0703125c-0.1132813,0-0.2421875,0.0429688-0.3857422,0.1289063
			c-0.2646484,0.1635742-0.5703125,0.4677734-0.9165039,0.9125977c-0.09375,0.1210938-0.4052734,0.6083984-0.9345703,1.4628906
			c-0.1635742,0.2734375-0.2978516,0.5712891-0.402832,0.8955078l-0.3740234,1.1992188H4.2392578l1.9213867-6.6938477
			l0.2045898-0.7255859c0-0.1010742-0.0419922-0.190918-0.1254883-0.269043
			c-0.0839844-0.078125-0.1860352-0.1171875-0.3066406-0.1171875c-0.0703125,0-0.1772461,0.0117188-0.3212891,0.0351563
			l-0.1225586,0.0175781v-0.2280273L7.5097656,19.3486328z"/>
	</g>
</g>
<line id="XMLID_26_" class="st3" x1="15.583292" y1="23.333334" x2="12.416625" y2="23.333334"/>
<g id="XMLID_48_">
	<g id="XMLID_50_">
		<g id="XMLID_62_">
			<g id="XMLID_63_">
				<polygon id="XMLID_64_" class="st2" points="168.2797089,70.3170471 168.2797089,71.5330505 173.9999847,70.0013123 
					168.2797089,68.4669495 168.2797089,69.683075 154.3333282,69.683075 154.3333282,70.3170471 				"/>
			</g>
		</g>
	</g>
	<g id="XMLID_49_">
		<g id="XMLID_58_">
			<g id="XMLID_59_">
				<polygon id="XMLID_60_" class="st2" points="140.3869629,69.6829529 140.3869629,68.4669495 134.6666565,69.9986877 
					140.3869629,71.5330505 140.3869629,70.3169556 154.3333282,70.3169556 154.3333282,69.6829529 				"/>
			</g>
		</g>
	</g>
</g>
<g id="XMLID_52_">
	<g id="XMLID_54_">
		<path id="XMLID_143_" class="st0" d="M149.9960938,81.3496094l-0.5561523,1.5273438h-4.6826172v-0.2167969
			c1.3774414-1.2558594,2.347168-2.28125,2.9091797-3.0771484s0.8427734-1.5234375,0.8427734-2.1826172
			c0-0.503418-0.1542969-0.9169922-0.4624023-1.2407227s-0.6767578-0.4853516-1.105957-0.4853516
			c-0.390625,0-0.7407227,0.1137695-1.0507813,0.3422852c-0.3100586,0.2280273-0.5395508,0.5625-0.6879883,1.003418h-0.2163086
			c0.0976563-0.7216797,0.3481445-1.2758789,0.7519531-1.6621094c0.4038086-0.3857422,0.9082031-0.5791016,1.5131836-0.5791016
			c0.644043,0,1.1811523,0.2070313,1.6123047,0.6201172c0.4311523,0.4135742,0.6469727,0.9013672,0.6469727,1.4628906
			c0,0.4018555-0.09375,0.8037109-0.2807617,1.2055664c-0.2890625,0.6318359-0.7573242,1.3007813-1.4047852,2.0068359
			c-0.9716797,1.0615234-1.5786133,1.7011719-1.8203125,1.9189453h2.0717773c0.4213867,0,0.7172852-0.015625,0.8867188-0.046875
			c0.1699219-0.03125,0.3227539-0.09375,0.4594727-0.1894531s0.2553711-0.2314453,0.3569336-0.4072266H149.9960938z"/>
		<path id="XMLID_145_" class="st0" d="M155.9023438,74.5566406l-2.8730469,8.484375h-0.4682617l2.8745117-8.484375H155.9023438z"/>
	</g>
	<g id="XMLID_53_">
		<path id="XMLID_141_" class="st0" d="M161.8769531,74.5566406l-1.6445313,5.6816406
			c0.7099609-1.0693359,1.2646484-1.7788086,1.6621094-2.1298828c0.3984375-0.3510742,0.7783203-0.5268555,1.1416016-0.5268555
			c0.1875,0,0.3427734,0.0644531,0.4677734,0.1933594c0.125,0.128418,0.1875,0.300293,0.1875,0.5146484
			c0,0.2573242-0.0546875,0.5698242-0.1640625,0.9360352l-0.7138672,2.4521484
			c-0.0898438,0.2958984-0.1347656,0.4599609-0.1347656,0.4912109c0,0.0546875,0.0166016,0.0996094,0.0498047,0.1347656
			s0.0712891,0.0527344,0.1142578,0.0527344c0.0507813,0,0.109375-0.0253906,0.1757813-0.0761719
			c0.2226563-0.171875,0.4423828-0.4101563,0.6611328-0.7138672l0.1816406,0.1113281
			c-0.1328125,0.2060547-0.3173828,0.4335938-0.5527344,0.6816406c-0.2363281,0.2470703-0.4394531,0.4189453-0.609375,0.5146484
			s-0.3203125,0.1435547-0.453125,0.1435547c-0.1445313,0-0.2626953-0.0458984-0.3544922-0.1376953
			s-0.1376953-0.2099609-0.1376953-0.3535156c0-0.171875,0.0683594-0.4921875,0.2050781-0.9599609l0.6728516-2.3408203
			c0.0859375-0.2919922,0.1289063-0.5224609,0.1289063-0.6904297c0-0.0776367-0.0244141-0.1401367-0.0732422-0.1870117
			s-0.1123047-0.0703125-0.1904297-0.0703125c-0.1123047,0-0.2412109,0.0429688-0.3857422,0.1289063
			c-0.265625,0.1635742-0.5722656,0.4677734-0.9189453,0.9125977c-0.09375,0.1210938-0.40625,0.6083984-0.9365234,1.4628906
			c-0.1640625,0.2734375-0.2988281,0.5712891-0.4042969,0.8955078l-0.3740234,1.1992188h-0.8779297l1.9257813-6.6938477
			l0.2041016-0.7255859c0-0.1010742-0.0419922-0.190918-0.125-0.269043
			c-0.0839844-0.078125-0.1865234-0.1171875-0.3076172-0.1171875c-0.0703125,0-0.1777344,0.0117188-0.3222656,0.0351563
			l-0.1230469,0.0175781v-0.2280273L161.8769531,74.5566406z"/>
	</g>
</g>
<g id="XMLID_55_">
	<g id="XMLID_56_">
		<path id="XMLID_139_" class="st0" d="M114.1767578,19.7651367l-1.6411133,5.6816406
			c0.7084961-1.0693359,1.2617188-1.7788086,1.6586914-2.1298828c0.3964844-0.3510742,0.7763672-0.5268555,1.1386719-0.5268555
			c0.1865234,0,0.3427734,0.0644531,0.4667969,0.1933594c0.125,0.128418,0.1875,0.300293,0.1875,0.5146484
			c0,0.2573242-0.0546875,0.5698242-0.1640625,0.9360352l-0.7119141,2.4521484
			c-0.0898438,0.2958984-0.1347656,0.4599609-0.1347656,0.4912109c0,0.0546875,0.0166016,0.0996094,0.0498047,0.1347656
			s0.0712891,0.0527344,0.1142578,0.0527344c0.0507813,0,0.1083984-0.0253906,0.1748047-0.0761719
			c0.2216797-0.171875,0.4423828-0.4101563,0.6601563-0.7138672l0.1806641,0.1113281
			c-0.1318359,0.2060547-0.3164063,0.4335938-0.5517578,0.6816406c-0.2353516,0.2470703-0.4375,0.4189453-0.6074219,0.5146484
			c-0.1689453,0.0957031-0.3203125,0.1435547-0.4521484,0.1435547c-0.1445313,0-0.2626953-0.0458984-0.3535156-0.1376953
			s-0.1376953-0.2099609-0.1376953-0.3535156c0-0.171875,0.0683594-0.4921875,0.2050781-0.9599609l0.6708984-2.3408203
			c0.0859375-0.2919922,0.1289063-0.5224609,0.1289063-0.6904297c0-0.0776367-0.0244141-0.1401367-0.0732422-0.1870117
			s-0.1113281-0.0703125-0.1894531-0.0703125c-0.1132813,0-0.2421875,0.0429688-0.3857422,0.1289063
			c-0.2646484,0.1635742-0.5703125,0.4677734-0.9165039,0.9125977c-0.09375,0.1210938-0.4052734,0.6083984-0.9345703,1.4628906
			c-0.1635742,0.2734375-0.2978516,0.5712891-0.402832,0.8955078l-0.3740234,1.1992188H110.90625l1.9213867-6.6938477
			l0.2045898-0.7255859c0-0.1010742-0.0419922-0.190918-0.1254883-0.269043
			c-0.0839844-0.078125-0.1860352-0.1171875-0.3066406-0.1171875c-0.0703125,0-0.1772461,0.0117188-0.3212891,0.0351563
			l-0.1225586,0.0175781v-0.2280273L114.1767578,19.7651367z"/>
	</g>
</g>
<line id="XMLID_51_" class="st3" x1="122.25" y1="23.75" x2="119.0833359" y2="23.75"/>
<g id="XMLID_79_">
	<g id="XMLID_80_">
		<path id="XMLID_137_" class="st0" d="M304.7441406,69.8979492c0.1904297,0.2036133,0.3349609,0.4072266,0.4316406,0.6108398
			c0.0703125,0.140625,0.1855469,0.5107422,0.3447266,1.1098633l0.5146484-0.7753906
			c0.1357422-0.1879883,0.3007813-0.3666992,0.4960938-0.5371094c0.1943359-0.1704102,0.3662109-0.2866211,0.5136719-0.3496094
			c0.09375-0.0390625,0.1962891-0.0585938,0.3095703-0.0585938c0.1669922,0,0.3007813,0.0449219,0.4003906,0.1352539
			c0.0986328,0.0898438,0.1484375,0.199707,0.1484375,0.3286133c0,0.1489258-0.0292969,0.2504883-0.0878906,0.3051758
			c-0.1083984,0.0981445-0.2333984,0.1469727-0.3730469,0.1469727c-0.0820313,0-0.1699219-0.0175781-0.2626953-0.0527344
			c-0.1835938-0.0625-0.3056641-0.0942383-0.3681641-0.0942383c-0.09375,0-0.2041016,0.0551758-0.3330078,0.1645508
			c-0.2412109,0.2036133-0.5292969,0.597168-0.8642578,1.1801758l0.4785156,2.0195313
			c0.0742188,0.3095703,0.1367188,0.4951172,0.1875,0.5556641c0.0498047,0.0605469,0.1005859,0.0908203,0.1513672,0.0908203
			c0.0820313,0,0.1777344-0.0449219,0.2861328-0.1347656c0.2138672-0.1806641,0.3974609-0.4150391,0.5488281-0.7050781
			l0.2050781,0.1054688c-0.2451172,0.4619141-0.5566406,0.8457031-0.9345703,1.1513672
			c-0.2138672,0.171875-0.3955078,0.2578125-0.5429688,0.2578125c-0.21875,0-0.3916016-0.1230469-0.5205078-0.3691406
			c-0.0820313-0.1533203-0.2509766-0.8105469-0.5078125-1.9726563c-0.6074219,1.0605469-1.09375,1.7431641-1.4599609,2.0488281
			c-0.2373047,0.1953125-0.4677734,0.2929688-0.6894531,0.2929688c-0.1552734,0-0.2978516-0.0566406-0.4257813-0.1699219
			c-0.09375-0.0859375-0.140625-0.2011719-0.140625-0.3466797c0-0.1289063,0.0429688-0.2363281,0.1289063-0.3222656
			c0.0849609-0.0869141,0.1904297-0.1298828,0.3154297-0.1298828c0.1240234,0,0.2568359,0.0625,0.3964844,0.1884766
			c0.1015625,0.0898438,0.1796875,0.1347656,0.234375,0.1347656c0.0458984,0,0.1064453-0.03125,0.1806641-0.09375
			c0.1826172-0.1494141,0.4316406-0.4697266,0.7470703-0.9628906s0.5224609-0.8496094,0.6191406-1.0688477
			c-0.2412109-0.9511719-0.3720703-1.4541016-0.390625-1.5092773c-0.0898438-0.2543945-0.2070313-0.4345703-0.3505859-0.5400391
			c-0.1445313-0.105957-0.3564453-0.1586914-0.6367188-0.1586914c-0.0898438,0-0.1923828,0.0039063-0.3095703,0.0117188v-0.2114258
			L304.7441406,69.8979492z"/>
	</g>
</g>
<g id="XMLID_78_">
	<g id="XMLID_86_">
		<g id="XMLID_99_">
			<polygon id="XMLID_100_" points="301.7793274,64.1859436 301.7793274,66.1011658 310.7887878,63.6886902 301.7793274,61.2720337 
				301.7793274,63.1874084 217.7887878,63.1874084 217.7887878,64.1859436 			"/>
		</g>
	</g>
</g>
<g id="XMLID_77_">
	<g id="XMLID_96_">
		<g id="XMLID_97_">
			<polygon id="XMLID_98_" points="228.2880707,13.196063 230.2033234,13.196063 227.7908173,4.1866026 225.3741608,13.196063 
				227.289566,13.196063 227.289566,79.1032562 228.2880707,79.1032562 			"/>
		</g>
	</g>
</g>
<g id="XMLID_75_">
	<g id="XMLID_76_">
		<path id="XMLID_135_" class="st0" d="M219.7128906,4.6953125c0.1328125,0.2250977,0.2255859,0.4355469,0.2763672,0.6313477
			s0.1015625,0.5805664,0.1523438,1.1542969l0.2597656,2.8623047c0.2353516-0.2792969,0.5761719-0.7216797,1.0234375-1.3266602
			c0.2158203-0.2944336,0.4824219-0.6958008,0.7998047-1.2041016c0.1923828-0.3100586,0.3095703-0.5273438,0.3535156-0.6513672
			c0.0234375-0.0620117,0.0351563-0.1259766,0.0351563-0.1918945c0-0.0424805-0.0136719-0.0776367-0.0410156-0.1044922
			c-0.0273438-0.0273438-0.0996094-0.059082-0.2148438-0.0961914c-0.1162109-0.0366211-0.2119141-0.1044922-0.2880859-0.2036133
			c-0.0771484-0.0986328-0.1152344-0.2124023-0.1152344-0.340332c0-0.1586914,0.046875-0.2866211,0.1416016-0.3837891
			c0.09375-0.0966797,0.2119141-0.1455078,0.3525391-0.1455078c0.1728516,0,0.3193359,0.0708008,0.4414063,0.2124023
			c0.1210938,0.1416016,0.1826172,0.3364258,0.1826172,0.5844727c0,0.3066406-0.1064453,0.6567383-0.3183594,1.0498047
			c-0.2109375,0.394043-0.6191406,0.9975586-1.2236328,1.8120117c-0.6035156,0.8144531-1.3349609,1.7021484-2.1943359,2.6640625
			c-0.5917969,0.6630859-1.03125,1.0810547-1.3173828,1.2539063c-0.2861328,0.171875-0.53125,0.2587891-0.7353516,0.2587891
			c-0.1220703,0-0.2285156-0.0458984-0.3212891-0.1367188c-0.0917969-0.0917969-0.1376953-0.1972656-0.1376953-0.3173828
			c0-0.1513672,0.0634766-0.2890625,0.1914063-0.4130859c0.1269531-0.1240234,0.265625-0.1855469,0.4140625-0.1855469
			c0.0791016,0,0.1435547,0.0166016,0.1943359,0.0517578c0.03125,0.0195313,0.0654297,0.0751953,0.1025391,0.1660156
			c0.0380859,0.0908203,0.0722656,0.1523438,0.1035156,0.1835938c0.0195313,0.0185547,0.0429688,0.0283203,0.0703125,0.0283203
			c0.0234375,0,0.0644531-0.0195313,0.1240234-0.0576172c0.2158203-0.1318359,0.4667969-0.3417969,0.7529297-0.6289063
			c0.3759766-0.3798828,0.6542969-0.6894531,0.8349609-0.9296875l-0.3291016-3.6879883
			c-0.0546875-0.6088867-0.1376953-0.9794922-0.2470703-1.1113281c-0.1103516-0.1318359-0.2939453-0.1977539-0.5527344-0.1977539
			c-0.0830078,0-0.2294922,0.0117188-0.4414063,0.0351563l-0.0527344-0.215332L219.7128906,4.6953125z"/>
	</g>
</g>
<g id="XMLID_71_">
	<g id="XMLID_73_">
		<g id="XMLID_91_">
			<g id="XMLID_92_">
				<polygon id="XMLID_93_" class="st2" points="263.6550598,51.0670471 263.6550598,52.2830505 269.3753662,50.7513123 
					263.6550598,49.2169495 263.6550598,50.4330444 263.2322998,50.4330444 261.4554443,50.4330444 261.4554443,51.0670471 
					263.2322998,51.0670471 				"/>
			</g>
		</g>
	</g>
	<g id="XMLID_72_">
		<g id="XMLID_87_">
			<g id="XMLID_88_">
				<polygon id="XMLID_89_" class="st2" points="259.2558594,50.4329529 259.2558594,49.2169495 253.535553,50.7486877 
					259.2558594,52.2830505 259.2558594,51.066925 259.6786194,51.066925 261.4554443,51.066925 261.4554443,50.4329529 
					259.6786194,50.4329529 				"/>
			</g>
		</g>
	</g>
</g>
<line id="XMLID_65_" class="st3" x1="229.3721161" y1="23.9366035" x2="226.2054596" y2="23.9366035"/>
<polyline id="XMLID_68_" class="st1" points="232.4175262,63.6866035 232.7922211,63.6865921 233.1669006,63.6865921 
	233.5415802,63.686573 233.9162598,63.6865616 234.2909546,63.6865425 234.6656189,63.686512 235.0403137,63.68647 
	235.4149933,63.6864128 235.7896881,63.6863327 236.1643524,63.6862106 236.5390472,63.6860504 236.9137268,63.6858215 
	237.2884064,63.6855125 237.6630859,63.6851006 238.0377808,63.6845322 238.4124603,63.6837692 238.7871399,63.6827507 
	239.1618195,63.6813698 239.5365143,63.6795578 239.9111786,63.6771584 240.2858734,63.6740074 240.660553,63.6698875 
	241.0352325,63.6645241 241.4099121,63.6576042 241.7846069,63.6487007 242.1592712,63.6373177 242.5339661,63.6228333 
	242.9086456,63.6045074 243.2833405,63.5814476 243.6580048,63.5526085 244.0326996,63.5167007 244.4073792,63.4722672 
	244.7820587,63.4175797 245.1567383,63.3506279 245.5314331,63.2691422 245.9061127,63.1704941 246.2808075,63.0517578 
	246.6554718,62.9096336 247.0301666,62.7404785 247.4048462,62.5403099 247.7795258,62.3047867 248.1542053,62.0292625 
	248.5289001,61.7088242 248.9035645,61.3383102 249.2782593,60.912426 249.6529388,60.425827 250.0276184,59.8731766 
	250.402298,59.2493362 250.7769928,58.5494499 251.1516724,57.7691307 251.5263519,56.9046021 251.9010315,55.9529495 
	252.2757263,54.9121895 252.6503906,53.7815018 253.0250854,52.5614471 253.3997803,51.2540627 253.7744598,49.8630333 
	254.1491394,48.3938026 254.523819,46.8536263 254.8985138,45.2516823 255.2731781,43.5989952 255.6478729,41.9084053 
	256.0225525,40.1944847 256.3972473,38.4733353 256.7719116,36.7624092 257.1466064,35.0802231 257.5213013,33.4460487 
	257.8959656,31.8795662 258.2706604,30.4004593 258.6453247,29.0280666 259.0200195,27.7808723 259.3946838,26.6762028 
	259.7693787,25.7297211 260.1440735,24.9551334 260.5187378,24.3638401 260.8934326,23.9646378 261.2681274,23.7635155 
	261.6427917,23.7635155 262.0174866,23.9646378 262.3921509,24.3638401 262.7668457,24.9551334 263.14151,25.7297211 
	263.5162048,26.6762028 263.8908997,27.7808723 264.2655945,29.0280666 264.6402588,30.4004593 265.0149536,31.8795662 
	265.3896179,33.4460487 265.7643127,35.0802231 266.1389771,36.7624092 266.5136719,38.4733353 266.8883667,40.1944847 
	267.263031,41.9084053 267.6377258,43.5989952 268.0123901,45.2516823 268.387085,46.8536263 268.7617798,48.3938026 
	269.1364441,49.8630333 269.5111389,51.2540627 269.8858032,52.5614471 270.260498,53.7815018 270.6351624,54.9121895 
	271.0098572,55.9529495 271.384552,56.9046021 271.7592468,57.7691307 272.1339111,58.5494499 272.508606,59.2493362 
	272.8832703,59.8731766 273.2579651,60.425827 273.6326294,60.912426 274.0073242,61.3383102 274.382019,61.7088242 
	274.7567139,62.0292625 275.1313782,62.3047867 275.506073,62.5403099 275.8807373,62.7404785 276.2554321,62.9096336 
	276.6300964,63.0517578 277.0047913,63.1704941 277.3794556,63.2691422 277.7541504,63.3506279 278.1288452,63.4175797 
	278.50354,63.4722672 278.8782043,63.5167007 279.2528992,63.5526085 279.627594,63.5814476 280.0022583,63.6045074 
	280.3769531,63.6228333 280.7516174,63.6373177 281.1263123,63.6487007 281.5009766,63.6576042 281.8756714,63.6645241 
	282.2503662,63.6698875 282.625061,63.6740074 282.9997253,63.6771584 283.3744202,63.6795578 283.7490845,63.6813698 
	284.1237793,63.6827507 284.4984436,63.6837692 284.8731384,63.6845322 285.2478333,63.6851006 285.6224976,63.6855125 
	285.9971924,63.6858215 286.3718872,63.6860504 286.7465515,63.6862106 287.1212463,63.6863327 287.4959106,63.6864128 
	287.8706055,63.68647 288.2452698,63.686512 288.6199646,63.6865425 288.9946594,63.6865616 289.3693237,63.686573 
	289.7440186,63.6865921 290.1187134,63.6865921 290.4933777,63.6866035 "/>
<g id="XMLID_67_">
	<g id="XMLID_69_">
		<path id="XMLID_132_" class="st0" d="M224.0332031,19.6015625l-0.609375,6.5605469
			c-0.03125,0.3066406-0.0478516,0.5087891-0.0478516,0.6054688c0,0.1552734,0.0302734,0.2734375,0.0888672,0.3544922
			c0.0751953,0.1123047,0.1767578,0.1962891,0.3056641,0.25c0.1279297,0.0546875,0.34375,0.0820313,0.6474609,0.0820313
			l-0.0644531,0.2148438h-3.1611328l0.0654297-0.2148438h0.1357422c0.2568359,0,0.4658203-0.0546875,0.6279297-0.1630859
			c0.1142578-0.0742188,0.203125-0.1962891,0.265625-0.3662109c0.0439453-0.1201172,0.0849609-0.4033203,0.125-0.8496094
			l0.0947266-1h-2.296875l-0.8173828,1.0869141c-0.1855469,0.2451172-0.3017578,0.4199219-0.3486328,0.5263672
			c-0.0478516,0.1074219-0.0712891,0.2070313-0.0712891,0.2998047c0,0.1240234,0.0507813,0.2304688,0.1542969,0.3203125
			c0.1025391,0.0888672,0.2714844,0.1376953,0.5087891,0.1455078l-0.0654297,0.2148438h-2.3730469l0.0644531-0.2148438
			c0.2919922-0.0117188,0.5498047-0.1083984,0.7724609-0.2880859c0.2236328-0.1806641,0.5556641-0.5654297,0.9980469-1.1552734
			l4.7939453-6.4091797H224.0332031z M222.8613281,21.5380859l-2.3261719,3.1123047h2.0185547L222.8613281,21.5380859z"/>
	</g>
</g>
<g id="XMLID_70_">
	<g id="XMLID_81_">
		<path id="XMLID_130_" class="st0" d="M260.8505859,81.3496094l-0.5537109,1.5273438h-4.65625v-0.2167969
			c1.3701172-1.2558594,2.3339844-2.28125,2.8935547-3.0771484c0.5585938-0.7958984,0.8378906-1.5234375,0.8378906-2.1826172
			c0-0.503418-0.1533203-0.9169922-0.4599609-1.2407227s-0.6728516-0.4853516-1.0996094-0.4853516
			c-0.3886719,0-0.7363281,0.1137695-1.0449219,0.3422852c-0.3085938,0.2280273-0.5371094,0.5625-0.6845703,1.003418h-0.2148438
			c0.0966797-0.7216797,0.3466797-1.2758789,0.7480469-1.6621094c0.4013672-0.3857422,0.9023438-0.5791016,1.5039063-0.5791016
			c0.640625,0,1.1748047,0.2070313,1.6035156,0.6201172c0.4287109,0.4135742,0.6435547,0.9013672,0.6435547,1.4628906
			c0,0.4018555-0.0927734,0.8037109-0.2792969,1.2055664c-0.2871094,0.6318359-0.7529297,1.3007813-1.3974609,2.0068359
			c-0.9658203,1.0615234-1.5693359,1.7011719-1.8095703,1.9189453h2.0605469c0.4189453,0,0.7128906-0.015625,0.8818359-0.046875
			s0.3203125-0.09375,0.4570313-0.1894531c0.1357422-0.0957031,0.2539063-0.2314453,0.3544922-0.4072266H260.8505859z"/>
	</g>
	<g id="XMLID_74_">
		<path id="XMLID_127_" class="st0" d="M267.1181641,77.581543l-1.1347656,3.9672852l-0.1279297,0.5322266
			c-0.0117188,0.0507813-0.0175781,0.09375-0.0175781,0.1289063c0,0.0625,0.0195313,0.1171875,0.0585938,0.1640625
			c0.03125,0.0351563,0.0693359,0.0527344,0.1162109,0.0527344c0.0507813,0,0.1162109-0.03125,0.1982422-0.09375
			c0.1513672-0.1132813,0.3525391-0.3476563,0.6054688-0.7021484l0.1972656,0.140625
			c-0.2675781,0.4052734-0.5429688,0.7148438-0.8261719,0.9267578c-0.2832031,0.2128906-0.5449219,0.3193359-0.7861328,0.3193359
			c-0.1669922,0-0.2919922-0.0419922-0.375-0.1259766c-0.0839844-0.0839844-0.125-0.2060547-0.125-0.3652344
			c0-0.1914063,0.0419922-0.4433594,0.1279297-0.7548828l0.1220703-0.4394531
			c-0.5087891,0.6669922-0.9755859,1.1337891-1.4023438,1.3984375c-0.3066406,0.1914063-0.6074219,0.2871094-0.9023438,0.2871094
			c-0.2832031,0-0.5283203-0.1181641-0.7333984-0.3544922c-0.2050781-0.2353516-0.3085938-0.5605469-0.3085938-0.9736328
			c0-0.6201172,0.1855469-1.2744141,0.5556641-1.9638672c0.3710938-0.6875,0.8408203-1.2387695,1.4121094-1.6523438
			c0.4453125-0.3276367,0.8671875-0.4916992,1.2626953-0.4916992c0.2363281,0,0.4335938,0.0625,0.5908203,0.1875
			c0.1572266,0.1245117,0.2763672,0.331543,0.3574219,0.6201172l0.2099609-0.6669922L267.1181641,77.581543z M265.046875,77.8857422
			c-0.2490234,0-0.5126953,0.1171875-0.7919922,0.3510742c-0.3955078,0.331543-0.7480469,0.8227539-1.0566406,1.4750977
			c-0.3076172,0.6513672-0.4619141,1.2402344-0.4619141,1.7666016c0,0.265625,0.0654297,0.4746094,0.1972656,0.6289063
			s0.2832031,0.2314453,0.4541016,0.2314453c0.4228516,0,0.8828125-0.3144531,1.3798828-0.9423828
			c0.6630859-0.8349609,0.9951172-1.6904297,0.9951172-2.5683594c0-0.331543-0.0644531-0.5717773-0.1923828-0.7197266
			C265.4423828,77.9599609,265.2675781,77.8857422,265.046875,77.8857422z"/>
	</g>
</g>
<g id="XMLID_82_">
	<g id="XMLID_105_">
		<path id="XMLID_125_" class="st0" d="M289.0449219,20.9160156v0.1914063
			c-0.5810547-0.3847656-1.0332031-0.9501953-1.3574219-1.6962891c-0.3242188-0.7451172-0.4863281-1.5605469-0.4863281-2.4467773
			c0-0.921875,0.1699219-1.7612305,0.5107422-2.5185547s0.7851563-1.2988281,1.3330078-1.625v0.1865234
			c-0.2734375,0.2016602-0.4990234,0.4775391-0.6748047,0.8271484s-0.3066406,0.793457-0.3935547,1.331543
			c-0.0869141,0.5375977-0.1298828,1.0986328-0.1298828,1.6826172c0,0.6611328,0.0390625,1.2587891,0.1191406,1.7919922
			s0.203125,0.9755859,0.3681641,1.3261719C288.4980469,20.3183594,288.7353516,20.6347656,289.0449219,20.9160156z"/>
	</g>
	<g id="XMLID_104_">
		<path id="XMLID_123_" class="st0" d="M300.4306641,13.0073242v-0.1865234
			c0.5810547,0.3823242,1.0332031,0.9462891,1.3574219,1.6914063c0.3242188,0.7456055,0.4863281,1.5615234,0.4863281,2.4477539
			c0,0.9213867-0.1708984,1.7617188-0.5117188,2.5205078c-0.3398438,0.7587891-0.7841797,1.3007813-1.3320313,1.6269531v-0.1914063
			c0.2763672-0.2011719,0.5019531-0.4765625,0.6777344-0.8261719s0.3066406-0.7929688,0.3925781-1.3300781
			c0.0859375-0.5361328,0.1289063-1.0976563,0.1289063-1.6845703c0-0.6577148-0.0400391-1.2543945-0.1191406-1.7890625
			c-0.0791016-0.5351563-0.2011719-0.9785156-0.3671875-1.3295898S300.7402344,13.2890625,300.4306641,13.0073242z"/>
	</g>
	<g id="XMLID_103_">
		<path id="XMLID_121_" class="st0" d="M304.9746094,14.1000977l-0.2333984,0.644043h-1.9619141V14.652832
			c0.5771484-0.5297852,0.9833984-0.9624023,1.21875-1.2983398c0.2353516-0.3354492,0.3535156-0.6425781,0.3535156-0.9204102
			c0-0.2124023-0.0644531-0.3867188-0.1943359-0.5234375c-0.1289063-0.1367188-0.2832031-0.2045898-0.4628906-0.2045898
			c-0.1640625,0-0.3105469,0.0478516-0.4404297,0.144043s-0.2265625,0.2373047-0.2890625,0.4233398H302.875
			c0.0400391-0.3041992,0.1455078-0.5380859,0.3144531-0.7006836c0.1699219-0.1630859,0.3808594-0.2446289,0.6347656-0.2446289
			c0.2695313,0,0.4951172,0.0874023,0.6757813,0.2617188s0.2705078,0.3798828,0.2705078,0.6171875
			c0,0.1694336-0.0390625,0.3388672-0.1171875,0.5083008c-0.1210938,0.2666016-0.3173828,0.5488281-0.5888672,0.8466797
			c-0.4072266,0.4472656-0.6621094,0.7172852-0.7626953,0.8095703h0.8681641c0.1767578,0,0.3007813-0.0068359,0.3720703-0.0200195
			c0.0703125-0.0131836,0.1347656-0.0395508,0.1923828-0.0800781c0.0566406-0.0405273,0.1064453-0.0976563,0.1494141-0.1713867
			H304.9746094z"/>
	</g>
	<g id="XMLID_102_">
		<path id="XMLID_119_" class="st0" d="M295.6279297,13.7875977l-1.6601563,4.9350586h-0.2714844l1.6611328-4.9350586H295.6279297z"
			/>
	</g>
	<g id="XMLID_101_">
		<path id="XMLID_114_" class="st0" d="M291.2392578,15.546875c0.1103516,0.1181641,0.1933594,0.2363281,0.25,0.3540039
			c0.0410156,0.081543,0.1074219,0.2958984,0.1992188,0.6430664l0.2978516-0.4492188
			c0.0791016-0.1088867,0.1748047-0.2124023,0.2880859-0.3110352c0.1123047-0.0986328,0.2119141-0.1665039,0.2978516-0.2026367
			c0.0537109-0.0224609,0.1132813-0.0341797,0.1787109-0.0341797c0.0966797,0,0.1748047,0.0263672,0.2314453,0.0786133
			c0.0576172,0.0517578,0.0869141,0.1157227,0.0869141,0.1904297c0,0.0859375-0.0175781,0.1450195-0.0507813,0.1767578
			c-0.0634766,0.0566406-0.1357422,0.0854492-0.2167969,0.0854492c-0.046875,0-0.0976563-0.0102539-0.1523438-0.0307617
			c-0.1054688-0.0361328-0.1767578-0.0546875-0.2128906-0.0546875c-0.0537109,0-0.1181641,0.0317383-0.1923828,0.0952148
			c-0.140625,0.1181641-0.3076172,0.3461914-0.5009766,0.684082l0.2773438,1.1708984
			c0.0429688,0.1791992,0.0791016,0.2866211,0.1083984,0.3217773s0.0585938,0.0527344,0.0878906,0.0527344
			c0.046875,0,0.1025391-0.0263672,0.1660156-0.0791016c0.1240234-0.1035156,0.2294922-0.2397461,0.3173828-0.4077148
			l0.1181641,0.0610352c-0.1416016,0.2685547-0.3222656,0.4902344-0.5410156,0.6669922
			c-0.1240234,0.1005859-0.2285156,0.1503906-0.3144531,0.1503906c-0.1259766,0-0.2265625-0.0722656-0.3007813-0.2148438
			c-0.0478516-0.0878906-0.1455078-0.4697266-0.2949219-1.1435547c-0.3515625,0.6152344-0.6337891,1.0107422-0.8457031,1.1884766
			c-0.1376953,0.1132813-0.2705078,0.1699219-0.3984375,0.1699219c-0.0908203,0-0.1728516-0.0332031-0.2470703-0.0996094
			c-0.0546875-0.0488281-0.0810547-0.1162109-0.0810547-0.2001953c0-0.0751953,0.0244141-0.1376953,0.0742188-0.1865234
			c0.0498047-0.0507813,0.1103516-0.0761719,0.1826172-0.0761719s0.1484375,0.0371094,0.2294922,0.109375
			c0.0585938,0.0527344,0.1044922,0.078125,0.1357422,0.078125c0.0273438,0,0.0615234-0.0175781,0.1044922-0.0546875
			c0.1064453-0.0859375,0.2509766-0.2719727,0.4335938-0.5576172s0.3017578-0.4921875,0.3583984-0.6196289
			c-0.1396484-0.5512695-0.2158203-0.8427734-0.2265625-0.8745117c-0.0517578-0.1474609-0.1201172-0.2519531-0.203125-0.3129883
			s-0.2060547-0.0917969-0.3691406-0.0917969c-0.0517578,0-0.1113281,0.0019531-0.1787109,0.0068359v-0.1225586
			L291.2392578,15.546875z"/>
		<path id="XMLID_116_" class="st0" d="M299.5302734,15.546875l-0.6601563,2.3076172l-0.0742188,0.3095703
			c-0.0068359,0.0292969-0.0097656,0.0546875-0.0097656,0.0742188c0,0.0371094,0.0107422,0.0683594,0.0341797,0.0957031
			c0.0175781,0.0205078,0.0400391,0.03125,0.0673828,0.03125c0.0292969,0,0.0673828-0.0185547,0.1152344-0.0546875
			c0.0878906-0.0664063,0.2050781-0.2021484,0.3515625-0.4086914l0.1152344,0.0820313
			c-0.15625,0.2358398-0.3164063,0.4155273-0.4804688,0.5395508c-0.1650391,0.1230469-0.3173828,0.1855469-0.4570313,0.1855469
			c-0.0966797,0-0.1699219-0.0244141-0.2177734-0.0732422c-0.0488281-0.0488281-0.0732422-0.1201172-0.0732422-0.2128906
			c0-0.1113281,0.0253906-0.2578125,0.0742188-0.4389648l0.0712891-0.2553711
			c-0.2949219,0.3886719-0.5673828,0.6591797-0.8154297,0.8134766c-0.1777344,0.1113281-0.3525391,0.1669922-0.5244141,0.1669922
			c-0.1640625,0-0.3066406-0.0693359-0.4257813-0.2060547c-0.1201172-0.1376953-0.1796875-0.3261719-0.1796875-0.5668945
			c0-0.3608398,0.1083984-0.7412109,0.3232422-1.1416016c0.2158203-0.4003906,0.4892578-0.7211914,0.8203125-0.9614258
			c0.2597656-0.190918,0.5039063-0.2861328,0.734375-0.2861328c0.1376953,0,0.2519531,0.0366211,0.3427734,0.1088867
			c0.0917969,0.0727539,0.1611328,0.1928711,0.2080078,0.3608398l0.1220703-0.3876953L299.5302734,15.546875z
			 M298.3261719,15.7241211c-0.1445313,0-0.2978516,0.0678711-0.4599609,0.2041016
			c-0.2304688,0.1928711-0.4345703,0.4785156-0.6142578,0.8574219s-0.2685547,0.7216797-0.2685547,1.027832
			c0,0.1542969,0.0380859,0.2763672,0.1142578,0.3662109c0.0771484,0.0898438,0.1650391,0.1347656,0.2646484,0.1347656
			c0.2451172,0,0.5126953-0.1835938,0.8007813-0.5483398c0.3857422-0.4858398,0.5791016-0.9838867,0.5791016-1.4941406
			c0-0.1928711-0.0371094-0.3325195-0.1113281-0.418457C298.5556641,15.7670898,298.4541016,15.7241211,298.3261719,15.7241211z"/>
	</g>
	<g id="XMLID_94_">
		<path id="XMLID_108_" class="st0" d="M276.078125,16.5009766l-0.6025391,6.640625
			c-0.03125,0.3095703-0.046875,0.5136719-0.046875,0.6123047c0,0.15625,0.0292969,0.2763672,0.0878906,0.3583984
			c0.0742188,0.1142578,0.1748047,0.1982422,0.3017578,0.2539063c0.1259766,0.0546875,0.3398438,0.0820313,0.640625,0.0820313
			l-0.0644531,0.2177734h-3.125l0.0644531-0.2177734h0.1347656c0.2529297,0,0.4599609-0.0546875,0.6201172-0.1650391
			c0.1132813-0.0742188,0.2011719-0.1982422,0.2636719-0.3710938c0.0429688-0.1210938,0.0830078-0.4082031,0.1220703-0.859375
			l0.09375-1.0126953h-2.2705078l-0.8066406,1.1015625c-0.1835938,0.2470703-0.2988281,0.4248047-0.3457031,0.5322266
			c-0.046875,0.1083984-0.0703125,0.2089844-0.0703125,0.3037109c0,0.125,0.0507813,0.2333984,0.1523438,0.3232422
			c0.1015625,0.0908203,0.2695313,0.1396484,0.5029297,0.1474609l-0.0644531,0.2177734h-2.3457031l0.0634766-0.2177734
			c0.2890625-0.0117188,0.5439453-0.109375,0.7636719-0.2910156c0.2207031-0.1826172,0.5498047-0.5722656,0.9863281-1.1689453
			l4.7402344-6.4873047H276.078125z M274.9199219,18.4609375l-2.2998047,3.1494141h1.9951172L274.9199219,18.4609375z"/>
		<path id="XMLID_111_" class="st0" d="M278.640625,22.4462891c-0.0273438,0.1962891-0.0410156,0.359375-0.0410156,0.4892578
			c0,0.3486328,0.1230469,0.6464844,0.3691406,0.8916016c0.2451172,0.2451172,0.5439453,0.3681641,0.8955078,0.3681641
			c0.2802734,0,0.5507813-0.0576172,0.8095703-0.1738281c0.2597656-0.1162109,0.6455078-0.3720703,1.15625-0.7685547
			l0.1230469,0.1708984c-0.9248047,0.9228516-1.8066406,1.3837891-2.6455078,1.3837891
			c-0.5693359,0-0.9980469-0.1806641-1.2871094-0.5419922s-0.4326172-0.7597656-0.4326172-1.1953125
			c0-0.5839844,0.1787109-1.1826172,0.5380859-1.7949219c0.3583984-0.6123047,0.8095703-1.0878906,1.3515625-1.4277344
			s1.1005859-0.5087891,1.6738281-0.5087891c0.4130859,0,0.7197266,0.0839844,0.9189453,0.2529297
			c0.1982422,0.1689453,0.2978516,0.3691406,0.2978516,0.6005859c0,0.3251953-0.1289063,0.6376953-0.3857422,0.9355469
			c-0.3398438,0.3886719-0.8388672,0.703125-1.4980469,0.9423828
			C280.046875,22.2304688,279.4326172,22.3564453,278.640625,22.4462891z M278.6816406,22.1582031
			c0.5771484-0.0664063,1.0478516-0.1806641,1.4101563-0.3417969c0.4804688-0.2158203,0.8398438-0.4736328,1.0800781-0.7734375
			c0.2392578-0.3007813,0.359375-0.5859375,0.359375-0.8564453c0-0.1650391-0.0517578-0.2988281-0.1542969-0.4003906
			c-0.1035156-0.1025391-0.2509766-0.1533203-0.4423828-0.1533203c-0.3974609,0-0.8203125,0.2128906-1.2666016,0.6386719
			C279.2207031,20.6972656,278.8925781,21.3261719,278.6816406,22.1582031z"/>
	</g>
	<g id="XMLID_83_">
		<path id="XMLID_106_" class="st0" d="M283.0458984,16.6665039h3.5517578v0.3369141h-3.5517578V16.6665039z"/>
	</g>
</g>
<g id="XMLID_66_">
</g>
<g id="XMLID_163_">
</g>
<g id="XMLID_164_">
</g>
<g id="XMLID_165_">
</g>
<g id="XMLID_166_">
</g>
<g id="XMLID_167_">
</g>
</svg>
