<svg xmlns:xlink="http://www.w3.org/1999/xlink" width="55.347ex" height="29.843ex" style="font-size: 15px; vertical-align: -14.338ex;" viewBox="0 -6675.6 23829.7 12848.9" role="img" focusable="false" xmlns="http://www.w3.org/2000/svg">
<defs>
<path stroke-width="1" id="E1-MJMAIN-63" d="M370 305T349 305T313 320T297 358Q297 381 312 396Q317 401 317 402T307 404Q281 408 258 408Q209 408 178 376Q131 329 131 219Q131 137 162 90Q203 29 272 29Q313 29 338 55T374 117Q376 125 379 127T395 129H409Q415 123 415 120Q415 116 411 104T395 71T366 33T318 2T249 -11Q163 -11 99 53T34 214Q34 318 99 383T250 448T370 421T404 357Q404 334 387 320Z"></path>
<path stroke-width="1" id="E1-MJMAIN-6C" d="M42 46H56Q95 46 103 60V68Q103 77 103 91T103 124T104 167T104 217T104 272T104 329Q104 366 104 407T104 482T104 542T103 586T103 603Q100 622 89 628T44 637H26V660Q26 683 28 683L38 684Q48 685 67 686T104 688Q121 689 141 690T171 693T182 694H185V379Q185 62 186 60Q190 52 198 49Q219 46 247 46H263V0H255L232 1Q209 2 183 2T145 3T107 3T57 1L34 0H26V46H42Z"></path>
<path stroke-width="1" id="E1-MJMAIN-61" d="M137 305T115 305T78 320T63 359Q63 394 97 421T218 448Q291 448 336 416T396 340Q401 326 401 309T402 194V124Q402 76 407 58T428 40Q443 40 448 56T453 109V145H493V106Q492 66 490 59Q481 29 455 12T400 -6T353 12T329 54V58L327 55Q325 52 322 49T314 40T302 29T287 17T269 6T247 -2T221 -8T190 -11Q130 -11 82 20T34 107Q34 128 41 147T68 188T116 225T194 253T304 268H318V290Q318 324 312 340Q290 411 215 411Q197 411 181 410T156 406T148 403Q170 388 170 359Q170 334 154 320ZM126 106Q126 75 150 51T209 26Q247 26 276 49T315 109Q317 116 318 175Q318 233 317 233Q309 233 296 232T251 223T193 203T147 166T126 106Z"></path>
<path stroke-width="1" id="E1-MJMAIN-73" d="M295 316Q295 356 268 385T190 414Q154 414 128 401Q98 382 98 349Q97 344 98 336T114 312T157 287Q175 282 201 278T245 269T277 256Q294 248 310 236T342 195T359 133Q359 71 321 31T198 -10H190Q138 -10 94 26L86 19L77 10Q71 4 65 -1L54 -11H46H42Q39 -11 33 -5V74V132Q33 153 35 157T45 162H54Q66 162 70 158T75 146T82 119T101 77Q136 26 198 26Q295 26 295 104Q295 133 277 151Q257 175 194 187T111 210Q75 227 54 256T33 318Q33 357 50 384T93 424T143 442T187 447H198Q238 447 268 432L283 424L292 431Q302 440 314 448H322H326Q329 448 335 442V310L329 304H301Q295 310 295 316Z"></path>
<path stroke-width="1" id="E1-MJMAIN-69" d="M69 609Q69 637 87 653T131 669Q154 667 171 652T188 609Q188 579 171 564T129 549Q104 549 87 564T69 609ZM247 0Q232 3 143 3Q132 3 106 3T56 1L34 0H26V46H42Q70 46 91 49Q100 53 102 60T104 102V205V293Q104 345 102 359T88 378Q74 385 41 385H30V408Q30 431 32 431L42 432Q52 433 70 434T106 436Q123 437 142 438T171 441T182 442H185V62Q190 52 197 50T232 46H255V0H247Z"></path>
<path stroke-width="1" id="E1-MJMAIN-66" d="M273 0Q255 3 146 3Q43 3 34 0H26V46H42Q70 46 91 49Q99 52 103 60Q104 62 104 224V385H33V431H104V497L105 564L107 574Q126 639 171 668T266 704Q267 704 275 704T289 705Q330 702 351 679T372 627Q372 604 358 590T321 576T284 590T270 627Q270 647 288 667H284Q280 668 273 668Q245 668 223 647T189 592Q183 572 182 497V431H293V385H185V225Q185 63 186 61T189 57T194 54T199 51T206 49T213 48T222 47T231 47T241 46T251 46H282V0H273Z"></path>
<path stroke-width="1" id="E1-MJMAIN-74" d="M27 422Q80 426 109 478T141 600V615H181V431H316V385H181V241Q182 116 182 100T189 68Q203 29 238 29Q282 29 292 100Q293 108 293 146V181H333V146V134Q333 57 291 17Q264 -10 221 -10Q187 -10 162 2T124 33T105 68T98 100Q97 107 97 248V385H18V422H27Z"></path>
<path stroke-width="1" id="E1-MJMAIN-6F" d="M28 214Q28 309 93 378T250 448Q340 448 405 380T471 215Q471 120 407 55T250 -10Q153 -10 91 57T28 214ZM250 30Q372 30 372 193V225V250Q372 272 371 288T364 326T348 362T317 390T268 410Q263 411 252 411Q222 411 195 399Q152 377 139 338T126 246V226Q126 130 145 91Q177 30 250 30Z"></path>
<path stroke-width="1" id="E1-MJMAIN-6E" d="M41 46H55Q94 46 102 60V68Q102 77 102 91T102 122T103 161T103 203Q103 234 103 269T102 328V351Q99 370 88 376T43 385H25V408Q25 431 27 431L37 432Q47 433 65 434T102 436Q119 437 138 438T167 441T178 442H181V402Q181 364 182 364T187 369T199 384T218 402T247 421T285 437Q305 442 336 442Q450 438 463 329Q464 322 464 190V104Q464 66 466 59T477 49Q498 46 526 46H542V0H534L510 1Q487 2 460 2T422 3Q319 3 310 0H302V46H318Q379 46 379 62Q380 64 380 200Q379 335 378 343Q372 371 358 385T334 402T308 404Q263 404 229 370Q202 343 195 315T187 232V168V108Q187 78 188 68T191 55T200 49Q221 46 249 46H265V0H257L234 1Q210 2 183 2T145 3Q42 3 33 0H25V46H41Z"></path>
<path stroke-width="1" id="E1-MJMAIN-65" d="M28 218Q28 273 48 318T98 391T163 433T229 448Q282 448 320 430T378 380T406 316T415 245Q415 238 408 231H126V216Q126 68 226 36Q246 30 270 30Q312 30 342 62Q359 79 369 104L379 128Q382 131 395 131H398Q415 131 415 121Q415 117 412 108Q393 53 349 21T250 -11Q155 -11 92 58T28 218ZM333 275Q322 403 238 411H236Q228 411 220 410T195 402T166 381T143 340T127 274V267H333V275Z"></path>
<path stroke-width="1" id="E1-MJMAIN-72" d="M36 46H50Q89 46 97 60V68Q97 77 97 91T98 122T98 161T98 203Q98 234 98 269T98 328L97 351Q94 370 83 376T38 385H20V408Q20 431 22 431L32 432Q42 433 60 434T96 436Q112 437 131 438T160 441T171 442H174V373Q213 441 271 441H277Q322 441 343 419T364 373Q364 352 351 337T313 322Q288 322 276 338T263 372Q263 381 265 388T270 400T273 405Q271 407 250 401Q234 393 226 386Q179 341 179 207V154Q179 141 179 127T179 101T180 81T180 66V61Q181 59 183 57T188 54T193 51T200 49T207 48T216 47T225 47T235 46T245 46H276V0H267Q249 3 140 3Q37 3 28 0H20V46H36Z"></path>
<path stroke-width="1" id="E1-MJSS-41" d="M183 181Q183 179 152 91T118 0H28L154 346L280 693Q281 694 333 694H385L511 349Q636 4 638 2Q638 0 584 0H530L464 183H184L183 181ZM324 606Q319 578 292 492T238 332T210 256Q210 254 324 254T438 255L429 281L419 308Q409 336 395 378T365 465T339 551T324 611V606Z"></path>
<path stroke-width="1" id="E1-MJSS-6C" d="M74 0V694H164V0H74Z"></path>
<path stroke-width="1" id="E1-MJSS-67" d="M55 286Q55 357 105 406T224 455Q280 455 323 421L322 423L318 427Q318 428 339 434T396 448T465 455H471L478 416L485 377Q484 377 474 379T445 383T401 385Q397 385 391 385T381 384L362 383L357 387Q358 386 364 375T375 354T384 325T389 287Q389 217 340 168T221 119Q178 119 138 142Q133 145 131 143Q125 131 125 117Q125 82 155 72L227 71Q230 71 251 71T280 71T310 69T343 65T373 57T403 46T428 30T449 7Q471 -26 471 -62V-71Q471 -136 384 -178Q326 -206 250 -206Q159 -206 102 -172T30 -92Q28 -84 28 -68T31 -37T40 -12T52 7T64 21T75 31T82 38Q60 68 60 106Q60 145 80 180L86 189L80 199Q55 240 55 286ZM304 233T304 287T279 362T220 383Q189 383 165 361T140 287Q140 243 161 217T220 191Q253 191 278 212ZM250 -134Q298 -134 331 -122T375 -96T387 -69Q387 -21 306 -7Q288 -5 216 -5Q161 -5 153 -7Q146 -9 139 -13T122 -31T113 -66Q113 -75 113 -80T127 -97T166 -121Q203 -134 250 -134Z"></path>
<path stroke-width="1" id="E1-MJSS-6F" d="M28 222Q28 323 95 391T244 460Q275 460 281 459Q364 445 417 377T471 219Q471 124 408 57T250 -10Q158 -10 93 57T28 222ZM377 230Q377 277 364 310T328 358T287 379T248 385Q233 385 219 382T186 369T155 342T132 297T122 230Q122 146 159 108T250 69H253Q263 69 274 70T305 81T339 106T365 154T377 230Z"></path>
<path stroke-width="1" id="E1-MJSS-72" d="M171 389Q237 455 320 455H327V373H317Q262 369 220 336T167 248Q165 239 164 119V0H74V450H159V377L171 389Z"></path>
<path stroke-width="1" id="E1-MJSS-69" d="M67 576V680H171V576H67ZM74 0V444H164V0H74Z"></path>
<path stroke-width="1" id="E1-MJSS-74" d="M333 27Q333 24 314 16T257 -1T184 -10H172Q146 -10 128 14T105 58T99 91Q95 113 95 251V371H18V444H98V571H182V444H316V371H182V253Q183 128 189 104Q199 68 234 68Q277 72 314 98Q315 93 323 61T333 27Z"></path>
<path stroke-width="1" id="E1-MJSS-68" d="M163 395Q223 455 307 455Q417 455 438 354Q442 331 443 164V0H350V157Q349 315 348 320Q334 378 259 378H253Q224 378 204 358Q180 334 173 301T165 209Q165 198 165 172T166 129V0H73V694H163V395Z"></path>
<path stroke-width="1" id="E1-MJSS-6D" d="M160 392Q223 455 304 455Q359 455 386 436T430 383L437 391Q495 455 584 455Q694 455 715 354Q719 331 720 164V0H627V157Q626 315 625 320Q611 378 536 378H530Q501 378 481 358Q457 334 450 301T442 209Q442 198 442 172T443 129V0H350V157Q349 315 348 320Q334 378 259 378H253Q224 378 204 358Q180 334 173 301T165 209Q165 198 165 172T166 129V0H73V450H160V392Z"></path>
<path stroke-width="1" id="E1-MJSS-3A" d="M90 346V444H188V346H90ZM90 0V98H188V0H90Z"></path>
<path stroke-width="1" id="E1-MJMAIN-33" d="M127 463Q100 463 85 480T69 524Q69 579 117 622T233 665Q268 665 277 664Q351 652 390 611T430 522Q430 470 396 421T302 350L299 348Q299 347 308 345T337 336T375 315Q457 262 457 175Q457 96 395 37T238 -22Q158 -22 100 21T42 130Q42 158 60 175T105 193Q133 193 151 175T169 130Q169 119 166 110T159 94T148 82T136 74T126 70T118 67L114 66Q165 21 238 21Q293 21 321 74Q338 107 338 175V195Q338 290 274 322Q259 328 213 329L171 330L168 332Q166 335 166 348Q166 366 174 366Q202 366 232 371Q266 376 294 413T322 525V533Q322 590 287 612Q265 626 240 626Q208 626 181 615T143 592T132 580H135Q138 579 143 578T153 573T165 566T175 555T183 540T186 520Q186 498 172 481T127 463Z"></path>
<path stroke-width="1" id="E1-MJMAIN-25" d="M465 605Q428 605 394 614T340 632T319 641Q332 608 332 548Q332 458 293 403T202 347Q145 347 101 402T56 548Q56 637 101 693T202 750Q241 750 272 719Q359 642 464 642Q580 642 650 732Q662 748 668 749Q670 750 673 750Q682 750 688 743T693 726Q178 -47 170 -52Q166 -56 160 -56Q147 -56 142 -45Q137 -36 142 -27Q143 -24 363 304Q469 462 525 546T581 630Q528 605 465 605ZM207 385Q235 385 263 427T292 548Q292 617 267 664T200 712Q193 712 186 709T167 698T147 668T134 615Q132 595 132 548V527Q132 436 165 403Q183 385 203 385H207ZM500 146Q500 234 544 290T647 347Q699 347 737 292T776 146T737 0T646 -56Q590 -56 545 0T500 146ZM651 -18Q679 -18 707 24T736 146Q736 215 711 262T644 309Q637 309 630 306T611 295T591 265T578 212Q577 200 577 146V124Q577 -18 647 -18H651Z"></path>
<path stroke-width="1" id="E1-MJSS-62" d="M303 -11Q280 -11 259 -6T222 6T194 21T176 33T168 38V0H75V694H165V550L166 405Q247 455 336 455Q397 455 439 389T482 226Q482 115 428 52T303 -11ZM390 221Q390 283 361 331T265 379Q214 379 177 342L168 334V118Q203 66 258 66Q316 66 353 106T390 221Z"></path>
<path stroke-width="1" id="E1-MJSS-75" d="M353 39Q352 38 344 34T331 27T315 19T295 11T270 3T241 -3T207 -8T168 -10H162Q148 -10 137 -8T111 2T87 30T74 81Q73 89 73 268V444H166V268L167 92Q171 79 174 74T192 64T238 59Q317 59 344 116Q349 128 349 148T350 291V444H443V0H353V39Z"></path>
<path stroke-width="1" id="E1-MJSS-63" d="M34 223Q34 327 99 393T245 460Q290 460 301 459Q328 455 354 445T395 427T410 415L396 338L386 344Q377 349 362 357T335 370Q305 381 258 381H252Q182 381 146 315Q126 275 126 224Q126 158 159 113T255 68Q329 68 394 106L408 114L410 93Q411 72 412 52L414 32Q407 27 394 20T338 2T252 -10Q156 -10 95 58T34 223Z"></path>
<path stroke-width="1" id="E1-MJSS-6E" d="M160 392Q214 446 283 454Q285 454 292 454T303 455H306Q417 455 438 354Q442 331 443 164V0H350V157Q349 315 348 320Q334 378 259 378H253Q224 378 204 358Q180 334 173 301T165 209Q165 198 165 172T166 129V0H73V450H160V392Z"></path>
<path stroke-width="1" id="E1-MJSS-61" d="M236 387Q209 387 184 382T141 370T111 355T91 342T83 337L82 355Q80 373 79 393T77 417Q77 419 81 421Q86 423 91 426Q155 460 227 460H238Q319 460 368 400Q393 371 400 341T408 252Q408 240 408 207T407 152V0H317V39L306 32Q244 -10 159 -10H152Q109 -10 77 22Q38 61 38 126Q38 142 39 146Q55 199 130 223T295 252H314V277Q314 305 313 310Q308 342 287 364T236 387ZM303 186Q124 180 124 126Q124 105 144 86T208 66Q284 66 309 124Q314 137 314 166V186H303Z"></path>
<path stroke-width="1" id="E1-MJSS-73" d="M33 326Q33 376 60 408T117 450T175 460H190Q245 460 272 454T345 429Q345 428 338 388L331 349Q278 386 188 386H183Q119 386 119 336Q119 307 142 295T210 276T278 256Q360 213 360 130Q360 108 354 88T332 43T281 5T195 -10Q152 -10 111 1T49 22T28 35Q29 36 32 56T39 95T43 115T51 110T72 99T102 85T143 73T193 68Q274 68 274 123Q274 152 248 167Q234 178 187 186T115 207Q66 229 46 273Q33 298 33 326Z"></path>
<path stroke-width="1" id="E1-MJSS-70" d="M166 404Q194 424 241 439T337 455H341Q410 455 451 370Q483 307 483 222Q483 128 433 59T306 -10Q282 -10 260 -5T222 7T194 21T176 33T168 38V-194H75V444H165V424L166 404ZM390 222Q390 287 354 331T266 376T177 340L168 332V118Q200 66 257 66Q313 66 351 112T390 222Z"></path>
<path stroke-width="1" id="E1-MJSS-65" d="M28 226Q28 329 91 395T235 461Q258 461 279 456T325 436T368 397T399 332T415 238V219H113V215Q113 163 151 114T248 65Q273 65 298 70T341 82T373 96T396 108L403 113Q403 106 406 76T409 38Q409 34 408 33T393 24Q325 -10 252 -10Q155 -10 92 59T28 226ZM340 289L338 297Q335 305 333 310T327 326T317 343T304 358T286 372T263 381T233 385Q212 385 193 376T162 353T140 325T127 301T123 289H340Z"></path>
<path stroke-width="1" id="E1-MJSS-42" d="M425 363Q438 363 465 353T526 324T585 270T610 192Q610 132 561 78T426 7Q404 2 387 2T240 0H90V694H227Q373 693 396 689Q484 673 533 623T583 517Q583 494 574 473T551 437T520 409T487 388T456 374T433 366L425 363ZM490 516Q490 527 485 539T467 568T423 599T347 621Q340 622 262 623H188V399H261H286Q432 399 478 475Q490 496 490 516ZM514 190Q514 245 462 280T343 322Q336 323 259 323H188V71H274Q365 72 388 77Q445 88 479 121T514 190Z"></path>
<path stroke-width="1" id="E1-MJMAIN-35" d="M164 157Q164 133 148 117T109 101H102Q148 22 224 22Q294 22 326 82Q345 115 345 210Q345 313 318 349Q292 382 260 382H254Q176 382 136 314Q132 307 129 306T114 304Q97 304 95 310Q93 314 93 485V614Q93 664 98 664Q100 666 102 666Q103 666 123 658T178 642T253 634Q324 634 389 662Q397 666 402 666Q410 666 410 648V635Q328 538 205 538Q174 538 149 544L139 546V374Q158 388 169 396T205 412T256 420Q337 420 393 355T449 201Q449 109 385 44T229 -22Q148 -22 99 32T50 154Q50 178 61 192T84 210T107 214Q132 214 148 197T164 157Z"></path>
<path stroke-width="1" id="E1-MJSS-45" d="M86 0V691H541V611H366L190 612V397H513V321H190V85H372L554 86V0H86Z"></path>
<path stroke-width="1" id="E1-MJMAIN-31" d="M213 578L200 573Q186 568 160 563T102 556H83V602H102Q149 604 189 617T245 641T273 663Q275 666 285 666Q294 666 302 660V361L303 61Q310 54 315 52T339 48T401 46H427V0H416Q395 3 257 3Q121 3 100 0H88V46H114Q136 46 152 46T177 47T193 50T201 52T207 57T213 61V578Z"></path>
<path stroke-width="1" id="E1-MJMATHI-6D" d="M21 287Q22 293 24 303T36 341T56 388T88 425T132 442T175 435T205 417T221 395T229 376L231 369Q231 367 232 367L243 378Q303 442 384 442Q401 442 415 440T441 433T460 423T475 411T485 398T493 385T497 373T500 364T502 357L510 367Q573 442 659 442Q713 442 746 415T780 336Q780 285 742 178T704 50Q705 36 709 31T724 26Q752 26 776 56T815 138Q818 149 821 151T837 153Q857 153 857 145Q857 144 853 130Q845 101 831 73T785 17T716 -10Q669 -10 648 17T627 73Q627 92 663 193T700 345Q700 404 656 404H651Q565 404 506 303L499 291L466 157Q433 26 428 16Q415 -11 385 -11Q372 -11 364 -4T353 8T350 18Q350 29 384 161L420 307Q423 322 423 345Q423 404 379 404H374Q288 404 229 303L222 291L189 157Q156 26 151 16Q138 -11 108 -11Q95 -11 87 -5T76 7T74 17Q74 30 112 181Q151 335 151 342Q154 357 154 369Q154 405 129 405Q107 405 92 377T69 316T57 280Q55 278 41 278H27Q21 284 21 287Z"></path>
<path stroke-width="1" id="E1-MJMATHI-64" d="M366 683Q367 683 438 688T511 694Q523 694 523 686Q523 679 450 384T375 83T374 68Q374 26 402 26Q411 27 422 35Q443 55 463 131Q469 151 473 152Q475 153 483 153H487H491Q506 153 506 145Q506 140 503 129Q490 79 473 48T445 8T417 -8Q409 -10 393 -10Q359 -10 336 5T306 36L300 51Q299 52 296 50Q294 48 292 46Q233 -10 172 -10Q117 -10 75 30T33 157Q33 205 53 255T101 341Q148 398 195 420T280 442Q336 442 364 400Q369 394 369 396Q370 400 396 505T424 616Q424 629 417 632T378 637H357Q351 643 351 645T353 664Q358 683 366 683ZM352 326Q329 405 277 405Q242 405 210 374T160 293Q131 214 119 129Q119 126 119 118T118 106Q118 61 136 44T179 26Q233 26 290 98L298 109L352 326Z"></path>
<path stroke-width="1" id="E1-MJMATHI-65" d="M39 168Q39 225 58 272T107 350T174 402T244 433T307 442H310Q355 442 388 420T421 355Q421 265 310 237Q261 224 176 223Q139 223 138 221Q138 219 132 186T125 128Q125 81 146 54T209 26T302 45T394 111Q403 121 406 121Q410 121 419 112T429 98T420 82T390 55T344 24T281 -1T205 -11Q126 -11 83 42T39 168ZM373 353Q367 405 305 405Q272 405 244 391T199 357T170 316T154 280T149 261Q149 260 169 260Q282 260 327 284T373 353Z"></path>
<path stroke-width="1" id="E1-MJMATHI-76" d="M173 380Q173 405 154 405Q130 405 104 376T61 287Q60 286 59 284T58 281T56 279T53 278T49 278T41 278H27Q21 284 21 287Q21 294 29 316T53 368T97 419T160 441Q202 441 225 417T249 361Q249 344 246 335Q246 329 231 291T200 202T182 113Q182 86 187 69Q200 26 250 26Q287 26 319 60T369 139T398 222T409 277Q409 300 401 317T383 343T365 361T357 383Q357 405 376 424T417 443Q436 443 451 425T467 367Q467 340 455 284T418 159T347 40T241 -11Q177 -11 139 22Q102 54 102 117Q102 148 110 181T151 298Q173 362 173 380Z"></path>
<path stroke-width="1" id="E1-MJSZ2-2211" d="M60 948Q63 950 665 950H1267L1325 815Q1384 677 1388 669H1348L1341 683Q1320 724 1285 761Q1235 809 1174 838T1033 881T882 898T699 902H574H543H251L259 891Q722 258 724 252Q725 250 724 246Q721 243 460 -56L196 -356Q196 -357 407 -357Q459 -357 548 -357T676 -358Q812 -358 896 -353T1063 -332T1204 -283T1307 -196Q1328 -170 1348 -124H1388Q1388 -125 1381 -145T1356 -210T1325 -294L1267 -449L666 -450Q64 -450 61 -448Q55 -446 55 -439Q55 -437 57 -433L590 177Q590 178 557 222T452 366T322 544L56 909L55 924Q55 945 60 948Z"></path>
<path stroke-width="1" id="E1-MJMATHI-69" d="M184 600Q184 624 203 642T247 661Q265 661 277 649T290 619Q290 596 270 577T226 557Q211 557 198 567T184 600ZM21 287Q21 295 30 318T54 369T98 420T158 442Q197 442 223 419T250 357Q250 340 236 301T196 196T154 83Q149 61 149 51Q149 26 166 26Q175 26 185 29T208 43T235 78T260 137Q263 149 265 151T282 153Q302 153 302 143Q302 135 293 112T268 61T223 11T161 -11Q129 -11 102 10T74 74Q74 91 79 106T122 220Q160 321 166 341T173 380Q173 404 156 404H154Q124 404 99 371T61 287Q60 286 59 284T58 281T56 279T53 278T49 278T41 278H27Q21 284 21 287Z"></path>
<path stroke-width="1" id="E1-MJMAIN-3D" d="M56 347Q56 360 70 367H707Q722 359 722 347Q722 336 708 328L390 327H72Q56 332 56 347ZM56 153Q56 168 72 173H708Q722 163 722 153Q722 140 707 133H70Q56 140 56 153Z"></path>
<path stroke-width="1" id="E1-MJMATHI-4C" d="M228 637Q194 637 192 641Q191 643 191 649Q191 673 202 682Q204 683 217 683Q271 680 344 680Q485 680 506 683H518Q524 677 524 674T522 656Q517 641 513 637H475Q406 636 394 628Q387 624 380 600T313 336Q297 271 279 198T252 88L243 52Q243 48 252 48T311 46H328Q360 46 379 47T428 54T478 72T522 106T564 161Q580 191 594 228T611 270Q616 273 628 273H641Q647 264 647 262T627 203T583 83T557 9Q555 4 553 3T537 0T494 -1Q483 -1 418 -1T294 0H116Q32 0 32 10Q32 17 34 24Q39 43 44 45Q48 46 59 46H65Q92 46 125 49Q139 52 144 61Q147 65 216 339T285 628Q285 635 228 637Z"></path>
<path stroke-width="1" id="E1-MJMAIN-7B" d="M434 -231Q434 -244 428 -250H410Q281 -250 230 -184Q225 -177 222 -172T217 -161T213 -148T211 -133T210 -111T209 -84T209 -47T209 0Q209 21 209 53Q208 142 204 153Q203 154 203 155Q189 191 153 211T82 231Q71 231 68 234T65 250T68 266T82 269Q116 269 152 289T203 345Q208 356 208 377T209 529V579Q209 634 215 656T244 698Q270 724 324 740Q361 748 377 749Q379 749 390 749T408 750H428Q434 744 434 732Q434 719 431 716Q429 713 415 713Q362 710 332 689T296 647Q291 634 291 499V417Q291 370 288 353T271 314Q240 271 184 255L170 250L184 245Q202 239 220 230T262 196T290 137Q291 131 291 1Q291 -134 296 -147Q306 -174 339 -192T415 -213Q429 -213 431 -216Q434 -219 434 -231Z"></path>
<path stroke-width="1" id="E1-MJMATHI-79" d="M21 287Q21 301 36 335T84 406T158 442Q199 442 224 419T250 355Q248 336 247 334Q247 331 231 288T198 191T182 105Q182 62 196 45T238 27Q261 27 281 38T312 61T339 94Q339 95 344 114T358 173T377 247Q415 397 419 404Q432 431 462 431Q475 431 483 424T494 412T496 403Q496 390 447 193T391 -23Q363 -106 294 -155T156 -205Q111 -205 77 -183T43 -117Q43 -95 50 -80T69 -58T89 -48T106 -45Q150 -45 150 -87Q150 -107 138 -122T115 -142T102 -147L99 -148Q101 -153 118 -160T152 -167H160Q177 -167 186 -165Q219 -156 247 -127T290 -65T313 -9T321 21L315 17Q309 13 296 6T270 -6Q250 -11 231 -11Q185 -11 150 11T104 82Q103 89 103 113Q103 170 138 262T173 379Q173 380 173 381Q173 390 173 393T169 400T158 404H154Q131 404 112 385T82 344T65 302T57 280Q55 278 41 278H27Q21 284 21 287Z"></path>
<path stroke-width="1" id="E1-MJMAIN-28" d="M94 250Q94 319 104 381T127 488T164 576T202 643T244 695T277 729T302 750H315H319Q333 750 333 741Q333 738 316 720T275 667T226 581T184 443T167 250T184 58T225 -81T274 -167T316 -220T333 -241Q333 -250 318 -250H315H302L274 -226Q180 -141 137 -14T94 250Z"></path>
<path stroke-width="1" id="E1-MJMAIN-29" d="M60 749L64 750Q69 750 74 750H86L114 726Q208 641 251 514T294 250Q294 182 284 119T261 12T224 -76T186 -143T145 -194T113 -227T90 -246Q87 -249 86 -250H74Q66 -250 63 -250T58 -247T55 -238Q56 -237 66 -225Q221 -64 221 250T66 725Q56 737 55 738Q55 746 60 749Z"></path>
<path stroke-width="1" id="E1-MJMAIN-70" d="M36 -148H50Q89 -148 97 -134V-126Q97 -119 97 -107T97 -77T98 -38T98 6T98 55T98 106Q98 140 98 177T98 243T98 296T97 335T97 351Q94 370 83 376T38 385H20V408Q20 431 22 431L32 432Q42 433 61 434T98 436Q115 437 135 438T165 441T176 442H179V416L180 390L188 397Q247 441 326 441Q407 441 464 377T522 216Q522 115 457 52T310 -11Q242 -11 190 33L182 40V-45V-101Q182 -128 184 -134T195 -145Q216 -148 244 -148H260V-194H252L228 -193Q205 -192 178 -192T140 -191Q37 -191 28 -194H20V-148H36ZM424 218Q424 292 390 347T305 402Q234 402 182 337V98Q222 26 294 26Q345 26 384 80T424 218Z"></path>
<path stroke-width="1" id="E1-MJMAIN-64" d="M376 495Q376 511 376 535T377 568Q377 613 367 624T316 637H298V660Q298 683 300 683L310 684Q320 685 339 686T376 688Q393 689 413 690T443 693T454 694H457V390Q457 84 458 81Q461 61 472 55T517 46H535V0Q533 0 459 -5T380 -11H373V44L365 37Q307 -11 235 -11Q158 -11 96 50T34 215Q34 315 97 378T244 442Q319 442 376 393V495ZM373 342Q328 405 260 405Q211 405 173 369Q146 341 139 305T131 211Q131 155 138 120T173 59Q203 26 251 26Q322 26 373 103V342Z"></path>
<path stroke-width="1" id="E1-MJMAIN-2260" d="M166 -215T159 -215T147 -212T141 -204T139 -197Q139 -190 144 -183L306 133H70Q56 140 56 153Q56 168 72 173H327L406 327H72Q56 332 56 347Q56 360 70 367H426Q597 702 602 707Q605 716 618 716Q625 716 630 712T636 703T638 696Q638 692 471 367H707Q722 359 722 347Q722 336 708 328L451 327L371 173H708Q722 163 722 153Q722 140 707 133H351Q175 -210 170 -212Q166 -215 159 -215Z"></path>
<path stroke-width="1" id="E1-MJMAIN-7D" d="M65 731Q65 745 68 747T88 750Q171 750 216 725T279 670Q288 649 289 635T291 501Q292 362 293 357Q306 312 345 291T417 269Q428 269 431 266T434 250T431 234T417 231Q380 231 345 210T298 157Q293 143 292 121T291 -28V-79Q291 -134 285 -156T256 -198Q202 -250 89 -250Q71 -250 68 -247T65 -230Q65 -224 65 -223T66 -218T69 -214T77 -213Q91 -213 108 -210T146 -200T183 -177T207 -139Q208 -134 209 3L210 139Q223 196 280 230Q315 247 330 250Q305 257 280 270Q225 304 212 352L210 362L209 498Q208 635 207 640Q195 680 154 696T77 713Q68 713 67 716T65 731Z"></path>
<path stroke-width="1" id="E1-MJSZ2-7B" d="M547 -643L541 -649H528Q515 -649 503 -645Q324 -582 293 -466Q289 -449 289 -428T287 -200L286 42L284 53Q274 98 248 135T196 190T146 222L121 235Q119 239 119 250Q119 262 121 266T133 273Q262 336 284 449L286 460L287 701Q287 737 287 794Q288 949 292 963Q293 966 293 967Q325 1080 508 1148Q516 1150 527 1150H541L547 1144V1130Q547 1117 546 1115T536 1109Q480 1086 437 1046T381 950L379 940L378 699Q378 657 378 594Q377 452 374 438Q373 437 373 436Q350 348 243 282Q192 257 186 254L176 251L188 245Q211 236 234 223T287 189T340 135T373 65Q373 64 374 63Q377 49 378 -93Q378 -156 378 -198L379 -438L381 -449Q393 -504 436 -544T536 -608Q544 -611 545 -613T547 -629V-643Z"></path>
<path stroke-width="1" id="E1-MJSZ2-7D" d="M119 1130Q119 1144 121 1147T135 1150H139Q151 1150 182 1138T252 1105T326 1046T373 964Q378 942 378 702Q378 469 379 462Q386 394 439 339Q482 296 535 272Q544 268 545 266T547 251Q547 241 547 238T542 231T531 227T510 217T477 194Q390 129 379 39Q378 32 378 -201Q378 -441 373 -463Q342 -580 165 -644Q152 -649 139 -649Q125 -649 122 -646T119 -629Q119 -622 119 -619T121 -614T124 -610T132 -607T143 -602Q195 -579 235 -539T285 -447Q286 -435 287 -199T289 51Q294 74 300 91T329 138T390 197Q412 213 436 226T475 244L489 250L472 258Q455 265 430 279T377 313T327 366T293 434Q289 451 289 472T287 699Q286 941 285 948Q279 978 262 1005T227 1048T184 1080T151 1100T129 1109L127 1110Q119 1113 119 1130Z"></path>
<path stroke-width="1" id="E1-MJSS-4E" d="M88 0V694H235L252 659Q261 639 364 428T526 84V694H619V0H472L455 35Q453 39 330 294T185 601L181 611V0H88Z"></path>
<path stroke-width="1" id="E1-MJSS-77" d="M14 444H105L108 434Q192 160 200 74V65L201 75Q206 144 282 399L296 444H381L399 381Q480 112 480 69L481 70Q481 113 562 386L580 444H668L534 1L483 0H432L429 10Q343 294 338 367L337 377Q336 375 336 370Q336 340 313 250T269 88T245 11L242 0H195L148 1L14 444Z"></path>
<path stroke-width="1" id="E1-MJSZ1-2211" d="M61 748Q64 750 489 750H913L954 640Q965 609 976 579T993 533T999 516H979L959 517Q936 579 886 621T777 682Q724 700 655 705T436 710H319Q183 710 183 709Q186 706 348 484T511 259Q517 250 513 244L490 216Q466 188 420 134T330 27L149 -187Q149 -188 362 -188Q388 -188 436 -188T506 -189Q679 -189 778 -162T936 -43Q946 -27 959 6H999L913 -249L489 -250Q65 -250 62 -248Q56 -246 56 -239Q56 -234 118 -161Q186 -81 245 -11L428 206Q428 207 242 462L57 717L56 728Q56 744 61 748Z"></path>
<path stroke-width="1" id="E1-MJMATHI-3C9" d="M495 384Q495 406 514 424T555 443Q574 443 589 425T604 364Q604 334 592 278T555 155T483 38T377 -11Q297 -11 267 66Q266 68 260 61Q201 -11 125 -11Q15 -11 15 139Q15 230 56 325T123 434Q135 441 147 436Q160 429 160 418Q160 406 140 379T94 306T62 208Q61 202 61 187Q61 124 85 100T143 76Q201 76 245 129L253 137V156Q258 297 317 297Q348 297 348 261Q348 243 338 213T318 158L308 135Q309 133 310 129T318 115T334 97T358 83T393 76Q456 76 501 148T546 274Q546 305 533 325T508 357T495 384Z"></path>
<path stroke-width="1" id="E1-MJMATHI-78" d="M52 289Q59 331 106 386T222 442Q257 442 286 424T329 379Q371 442 430 442Q467 442 494 420T522 361Q522 332 508 314T481 292T458 288Q439 288 427 299T415 328Q415 374 465 391Q454 404 425 404Q412 404 406 402Q368 386 350 336Q290 115 290 78Q290 50 306 38T341 26Q378 26 414 59T463 140Q466 150 469 151T485 153H489Q504 153 504 145Q504 144 502 134Q486 77 440 33T333 -11Q263 -11 227 52Q186 -10 133 -10H127Q78 -10 57 16T35 71Q35 103 54 123T99 143Q142 143 142 101Q142 81 130 66T107 46T94 41L91 40Q91 39 97 36T113 29T132 26Q168 26 194 71Q203 87 217 139T245 247T261 313Q266 340 266 352Q266 380 251 392T217 404Q177 404 142 372T93 290Q91 281 88 280T72 278H58Q52 284 52 289Z"></path>
<path stroke-width="1" id="E1-MJMAIN-2212" d="M84 237T84 250T98 270H679Q694 262 694 250T679 230H98Q84 237 84 250Z"></path>
<path stroke-width="1" id="E1-MJMAIN-30" d="M96 585Q152 666 249 666Q297 666 345 640T423 548Q460 465 460 320Q460 165 417 83Q397 41 362 16T301 -15T250 -22Q224 -22 198 -16T137 16T82 83Q39 165 39 320Q39 494 96 585ZM321 597Q291 629 250 629Q208 629 178 597Q153 571 145 525T137 333Q137 175 145 125T181 46Q209 16 250 16Q290 16 318 46Q347 76 354 130T362 333Q362 478 354 524T321 597Z"></path>
<path stroke-width="1" id="E1-MJSZ3-7B" d="M618 -943L612 -949H582L568 -943Q472 -903 411 -841T332 -703Q327 -682 327 -653T325 -350Q324 -28 323 -18Q317 24 301 61T264 124T221 171T179 205T147 225T132 234Q130 238 130 250Q130 255 130 258T131 264T132 267T134 269T139 272T144 275Q207 308 256 367Q310 436 323 519Q324 529 325 851Q326 1124 326 1154T332 1205Q369 1358 566 1443L582 1450H612L618 1444V1429Q618 1413 616 1411L608 1406Q599 1402 585 1393T552 1372T515 1343T479 1305T449 1257T429 1200Q425 1180 425 1152T423 851Q422 579 422 549T416 498Q407 459 388 424T346 364T297 318T250 284T214 264T197 254L188 251L205 242Q290 200 345 138T416 3Q421 -18 421 -48T423 -349Q423 -397 423 -472Q424 -677 428 -694Q429 -697 429 -699Q434 -722 443 -743T465 -782T491 -816T519 -845T548 -868T574 -886T595 -899T610 -908L616 -910Q618 -912 618 -928V-943Z"></path>
</defs>
<g stroke="currentColor" fill="currentColor" stroke-width="0" transform="matrix(1 0 0 -1 0 0)">
<g transform="translate(167,0)">
<g transform="translate(-11,0)">
<g transform="translate(0,5743)">
 <use xlink:href="#E1-MJMAIN-63" x="0" y="0"></use>
 <use xlink:href="#E1-MJMAIN-6C" x="444" y="0"></use>
 <use xlink:href="#E1-MJMAIN-61" x="723" y="0"></use>
 <use xlink:href="#E1-MJMAIN-73" x="1223" y="0"></use>
 <use xlink:href="#E1-MJMAIN-73" x="1618" y="0"></use>
 <use xlink:href="#E1-MJMAIN-69" x="2012" y="0"></use>
 <use xlink:href="#E1-MJMAIN-66" x="2291" y="0"></use>
 <use xlink:href="#E1-MJMAIN-69" x="2663" y="0"></use>
 <use xlink:href="#E1-MJMAIN-63" x="2942" y="0"></use>
 <use xlink:href="#E1-MJMAIN-61" x="3386" y="0"></use>
 <use xlink:href="#E1-MJMAIN-74" x="3887" y="0"></use>
 <use xlink:href="#E1-MJMAIN-69" x="4276" y="0"></use>
 <use xlink:href="#E1-MJMAIN-6F" x="4555" y="0"></use>
 <use xlink:href="#E1-MJMAIN-6E" x="5055" y="0"></use>
</g>
<g transform="translate(252,4443)">
 <use xlink:href="#E1-MJSS-41"></use>
 <use xlink:href="#E1-MJSS-6C" x="667" y="0"></use>
 <use xlink:href="#E1-MJSS-67" x="907" y="0"></use>
 <use xlink:href="#E1-MJSS-6F" x="1407" y="0"></use>
 <use xlink:href="#E1-MJSS-72" x="1908" y="0"></use>
 <use xlink:href="#E1-MJSS-69" x="2250" y="0"></use>
 <use xlink:href="#E1-MJSS-74" x="2490" y="0"></use>
 <use xlink:href="#E1-MJSS-68" x="2851" y="0"></use>
 <use xlink:href="#E1-MJSS-6D" x="3369" y="0"></use>
 <use xlink:href="#E1-MJSS-41" x="4413" y="0"></use>
 <use xlink:href="#E1-MJSS-3A" x="5081" y="0"></use>
</g>
<g transform="translate(252,3136)">
 <use xlink:href="#E1-MJSS-41"></use>
 <use xlink:href="#E1-MJSS-6C" x="667" y="0"></use>
 <use xlink:href="#E1-MJSS-67" x="907" y="0"></use>
 <use xlink:href="#E1-MJSS-6F" x="1407" y="0"></use>
 <use xlink:href="#E1-MJSS-72" x="1908" y="0"></use>
 <use xlink:href="#E1-MJSS-69" x="2250" y="0"></use>
 <use xlink:href="#E1-MJSS-74" x="2490" y="0"></use>
 <use xlink:href="#E1-MJSS-68" x="2851" y="0"></use>
 <use xlink:href="#E1-MJSS-6D" x="3369" y="0"></use>
 <use xlink:href="#E1-MJSS-42" x="4413" y="0"></use>
 <use xlink:href="#E1-MJSS-3A" x="5081" y="0"></use>
</g>
<g transform="translate(3208,991)">
 <use xlink:href="#E1-MJSS-45"></use>
 <use xlink:href="#E1-MJSS-72" x="597" y="0"></use>
 <use xlink:href="#E1-MJSS-72" x="940" y="0"></use>
 <use xlink:href="#E1-MJSS-6F" x="1282" y="0"></use>
 <use xlink:href="#E1-MJSS-72" x="1783" y="0"></use>
 <use xlink:href="#E1-MJSS-3A" x="2125" y="0"></use>
</g>
<g transform="translate(1121,-2145)">
 <use xlink:href="#E1-MJSS-4E"></use>
 <use xlink:href="#E1-MJSS-65" x="708" y="0"></use>
 <use xlink:href="#E1-MJSS-77" x="1153" y="0"></use>
 <use xlink:href="#E1-MJSS-45" x="2086" y="0"></use>
 <use xlink:href="#E1-MJSS-72" x="2684" y="0"></use>
 <use xlink:href="#E1-MJSS-72" x="3026" y="0"></use>
 <use xlink:href="#E1-MJSS-6F" x="3369" y="0"></use>
 <use xlink:href="#E1-MJSS-72" x="3869" y="0"></use>
 <use xlink:href="#E1-MJSS-3A" x="4212" y="0"></use>
</g>
</g>
<g transform="translate(5851,0)">
<g transform="translate(0,5743)">
 <use xlink:href="#E1-MJMAIN-65" x="0" y="0"></use>
 <use xlink:href="#E1-MJMAIN-72" x="444" y="0"></use>
 <use xlink:href="#E1-MJMAIN-72" x="837" y="0"></use>
 <use xlink:href="#E1-MJMAIN-6F" x="1229" y="0"></use>
 <use xlink:href="#E1-MJMAIN-72" x="1730" y="0"></use>
</g>
<g transform="translate(0,4443)">
 <use xlink:href="#E1-MJMAIN-33" x="0" y="0"></use>
 <use xlink:href="#E1-MJMAIN-25" x="500" y="0"></use>
<g transform="translate(1584,0)">
 <use xlink:href="#E1-MJMAIN-65" x="0" y="0"></use>
 <use xlink:href="#E1-MJMAIN-72" x="444" y="0"></use>
 <use xlink:href="#E1-MJMAIN-72" x="837" y="0"></use>
 <use xlink:href="#E1-MJMAIN-6F" x="1229" y="0"></use>
 <use xlink:href="#E1-MJMAIN-72" x="1730" y="0"></use>
</g>
<g transform="translate(3706,0)">
 <use xlink:href="#E1-MJSS-62" x="250" y="0"></use>
 <use xlink:href="#E1-MJSS-75" x="767" y="0"></use>
 <use xlink:href="#E1-MJSS-74" x="1285" y="0"></use>
 <use xlink:href="#E1-MJSS-63" x="1896" y="0"></use>
 <use xlink:href="#E1-MJSS-6F" x="2341" y="0"></use>
 <use xlink:href="#E1-MJSS-6E" x="2841" y="0"></use>
 <use xlink:href="#E1-MJSS-74" x="3359" y="0"></use>
 <use xlink:href="#E1-MJSS-61" x="3720" y="0"></use>
 <use xlink:href="#E1-MJSS-69" x="4202" y="0"></use>
 <use xlink:href="#E1-MJSS-6E" x="4441" y="0"></use>
 <use xlink:href="#E1-MJSS-73" x="4959" y="0"></use>
 <use xlink:href="#E1-MJSS-70" x="5592" y="0"></use>
 <use xlink:href="#E1-MJSS-6F" x="6110" y="0"></use>
 <use xlink:href="#E1-MJSS-72" x="6610" y="0"></use>
 <use xlink:href="#E1-MJSS-6E" x="6953" y="0"></use>
 <use xlink:href="#E1-MJSS-6F" x="7470" y="0"></use>
 <use xlink:href="#E1-MJSS-67" x="7971" y="0"></use>
 <use xlink:href="#E1-MJSS-72" x="8471" y="0"></use>
 <use xlink:href="#E1-MJSS-61" x="8814" y="0"></use>
 <use xlink:href="#E1-MJSS-70" x="9295" y="0"></use>
 <use xlink:href="#E1-MJSS-68" x="9813" y="0"></use>
 <use xlink:href="#E1-MJSS-69" x="10330" y="0"></use>
 <use xlink:href="#E1-MJSS-65" x="10570" y="0"></use>
 <use xlink:href="#E1-MJSS-73" x="11014" y="0"></use>
</g>
</g>
<g transform="translate(0,3136)">
 <use xlink:href="#E1-MJMAIN-35" x="0" y="0"></use>
 <use xlink:href="#E1-MJMAIN-25" x="500" y="0"></use>
<g transform="translate(1584,0)">
 <use xlink:href="#E1-MJMAIN-65" x="0" y="0"></use>
 <use xlink:href="#E1-MJMAIN-72" x="444" y="0"></use>
 <use xlink:href="#E1-MJMAIN-72" x="837" y="0"></use>
 <use xlink:href="#E1-MJMAIN-6F" x="1229" y="0"></use>
 <use xlink:href="#E1-MJMAIN-72" x="1730" y="0"></use>
</g>
</g>
<g transform="translate(0,991)">
<g transform="translate(120,0)">
<rect stroke="none" width="2141" height="60" x="0" y="220"></rect>
 <use xlink:href="#E1-MJMAIN-31" x="820" y="676"></use>
<g transform="translate(60,-686)">
 <use xlink:href="#E1-MJMATHI-6D" x="0" y="0"></use>
<g transform="translate(878,-150)">
 <use transform="scale(0.707)" xlink:href="#E1-MJMATHI-64" x="0" y="0"></use>
 <use transform="scale(0.707)" xlink:href="#E1-MJMATHI-65" x="523" y="0"></use>
 <use transform="scale(0.707)" xlink:href="#E1-MJMATHI-76" x="990" y="0"></use>
</g>
</g>
</g>
<g transform="translate(2548,0)">
 <use xlink:href="#E1-MJSZ2-2211" x="47" y="0"></use>
<g transform="translate(195,-1090)">
 <use transform="scale(0.707)" xlink:href="#E1-MJMATHI-69" x="0" y="0"></use>
 <use transform="scale(0.707)" xlink:href="#E1-MJMAIN-3D" x="345" y="0"></use>
 <use transform="scale(0.707)" xlink:href="#E1-MJMAIN-31" x="1124" y="0"></use>
</g>
<g transform="translate(0,1224)">
 <use transform="scale(0.707)" xlink:href="#E1-MJMATHI-6D" x="0" y="0"></use>
<g transform="translate(621,-156)">
 <use transform="scale(0.574)" xlink:href="#E1-MJMATHI-64" x="0" y="0"></use>
 <use transform="scale(0.574)" xlink:href="#E1-MJMATHI-65" x="523" y="0"></use>
 <use transform="scale(0.574)" xlink:href="#E1-MJMATHI-76" x="989" y="0"></use>
</g>
</g>
</g>
 <use xlink:href="#E1-MJMATHI-4C" x="4254" y="0"></use>
<g transform="translate(5102,0)">
 <use xlink:href="#E1-MJSZ2-7B"></use>
<g transform="translate(667,0)">
 <use xlink:href="#E1-MJMATHI-79" x="0" y="0"></use>
<g transform="translate(499,521)">
 <use transform="scale(0.707)" xlink:href="#E1-MJMAIN-28" x="0" y="0"></use>
 <use transform="scale(0.707)" xlink:href="#E1-MJMATHI-69" x="389" y="0"></use>
 <use transform="scale(0.707)" xlink:href="#E1-MJMAIN-29" x="734" y="0"></use>
</g>
<g transform="translate(490,-328)">
 <use transform="scale(0.707)" xlink:href="#E1-MJMAIN-70" x="0" y="0"></use>
 <use transform="scale(0.707)" xlink:href="#E1-MJMAIN-72" x="556" y="0"></use>
 <use transform="scale(0.707)" xlink:href="#E1-MJMAIN-65" x="949" y="0"></use>
 <use transform="scale(0.707)" xlink:href="#E1-MJMAIN-64" x="1393" y="0"></use>
</g>
 <use xlink:href="#E1-MJMAIN-2260" x="2247" y="0"></use>
<g transform="translate(3303,0)">
 <use xlink:href="#E1-MJMATHI-79" x="0" y="0"></use>
<g transform="translate(499,412)">
 <use transform="scale(0.707)" xlink:href="#E1-MJMAIN-28" x="0" y="0"></use>
 <use transform="scale(0.707)" xlink:href="#E1-MJMATHI-69" x="389" y="0"></use>
 <use transform="scale(0.707)" xlink:href="#E1-MJMAIN-29" x="734" y="0"></use>
</g>
</g>
</g>
 <use xlink:href="#E1-MJSZ2-7D" x="5365" y="-1"></use>
</g>
</g>
<g transform="translate(0,-2145)">
<g transform="translate(120,0)">
<rect stroke="none" width="4499" height="60" x="0" y="220"></rect>
 <use xlink:href="#E1-MJMAIN-31" x="1999" y="676"></use>
<g transform="translate(60,-841)">
 <use xlink:href="#E1-MJSZ1-2211" x="0" y="0"></use>
<g transform="translate(1056,506)">
 <use transform="scale(0.707)" xlink:href="#E1-MJMATHI-6D" x="0" y="0"></use>
<g transform="translate(621,-156)">
 <use transform="scale(0.574)" xlink:href="#E1-MJMATHI-64" x="0" y="0"></use>
 <use transform="scale(0.574)" xlink:href="#E1-MJMATHI-65" x="523" y="0"></use>
 <use transform="scale(0.574)" xlink:href="#E1-MJMATHI-76" x="989" y="0"></use>
</g>
</g>
<g transform="translate(1056,-308)">
 <use transform="scale(0.707)" xlink:href="#E1-MJMATHI-69" x="0" y="0"></use>
 <use transform="scale(0.707)" xlink:href="#E1-MJMAIN-3D" x="345" y="0"></use>
 <use transform="scale(0.707)" xlink:href="#E1-MJMAIN-31" x="1124" y="0"></use>
</g>
<g transform="translate(2862,0)">
 <use xlink:href="#E1-MJMATHI-3C9" x="0" y="0"></use>
<g transform="translate(622,288)">
 <use transform="scale(0.707)" xlink:href="#E1-MJMAIN-28" x="0" y="0"></use>
 <use transform="scale(0.707)" xlink:href="#E1-MJMATHI-69" x="389" y="0"></use>
 <use transform="scale(0.707)" xlink:href="#E1-MJMAIN-29" x="734" y="0"></use>
</g>
</g>
</g>
</g>
<g transform="translate(4906,0)">
 <use xlink:href="#E1-MJSZ2-2211" x="47" y="0"></use>
<g transform="translate(195,-1090)">
 <use transform="scale(0.707)" xlink:href="#E1-MJMATHI-69" x="0" y="0"></use>
 <use transform="scale(0.707)" xlink:href="#E1-MJMAIN-3D" x="345" y="0"></use>
 <use transform="scale(0.707)" xlink:href="#E1-MJMAIN-31" x="1124" y="0"></use>
</g>
<g transform="translate(0,1224)">
 <use transform="scale(0.707)" xlink:href="#E1-MJMATHI-6D" x="0" y="0"></use>
<g transform="translate(621,-156)">
 <use transform="scale(0.574)" xlink:href="#E1-MJMATHI-64" x="0" y="0"></use>
 <use transform="scale(0.574)" xlink:href="#E1-MJMATHI-65" x="523" y="0"></use>
 <use transform="scale(0.574)" xlink:href="#E1-MJMATHI-76" x="989" y="0"></use>
</g>
</g>
</g>
<g transform="translate(6612,0)">
 <use xlink:href="#E1-MJMATHI-3C9" x="0" y="0"></use>
<g transform="translate(622,412)">
 <use transform="scale(0.707)" xlink:href="#E1-MJMAIN-28" x="0" y="0"></use>
 <use transform="scale(0.707)" xlink:href="#E1-MJMATHI-69" x="389" y="0"></use>
 <use transform="scale(0.707)" xlink:href="#E1-MJMAIN-29" x="734" y="0"></use>
</g>
</g>
 <use xlink:href="#E1-MJMATHI-4C" x="8129" y="0"></use>
<g transform="translate(8977,0)">
 <use xlink:href="#E1-MJSZ2-7B"></use>
<g transform="translate(667,0)">
 <use xlink:href="#E1-MJMATHI-79" x="0" y="0"></use>
<g transform="translate(499,521)">
 <use transform="scale(0.707)" xlink:href="#E1-MJMAIN-28" x="0" y="0"></use>
 <use transform="scale(0.707)" xlink:href="#E1-MJMATHI-69" x="389" y="0"></use>
 <use transform="scale(0.707)" xlink:href="#E1-MJMAIN-29" x="734" y="0"></use>
</g>
<g transform="translate(490,-328)">
 <use transform="scale(0.707)" xlink:href="#E1-MJMAIN-70" x="0" y="0"></use>
 <use transform="scale(0.707)" xlink:href="#E1-MJMAIN-72" x="556" y="0"></use>
 <use transform="scale(0.707)" xlink:href="#E1-MJMAIN-65" x="949" y="0"></use>
 <use transform="scale(0.707)" xlink:href="#E1-MJMAIN-64" x="1393" y="0"></use>
</g>
 <use xlink:href="#E1-MJMAIN-2260" x="2247" y="0"></use>
<g transform="translate(3303,0)">
 <use xlink:href="#E1-MJMATHI-79" x="0" y="0"></use>
<g transform="translate(499,412)">
 <use transform="scale(0.707)" xlink:href="#E1-MJMAIN-28" x="0" y="0"></use>
 <use transform="scale(0.707)" xlink:href="#E1-MJMATHI-69" x="389" y="0"></use>
 <use transform="scale(0.707)" xlink:href="#E1-MJMAIN-29" x="734" y="0"></use>
</g>
</g>
</g>
 <use xlink:href="#E1-MJSZ2-7D" x="5365" y="-1"></use>
</g>
</g>
<g transform="translate(0,-5094)">
<g transform="translate(4000,0)">
 <use xlink:href="#E1-MJMATHI-3C9" x="0" y="0"></use>
<g transform="translate(622,412)">
 <use transform="scale(0.707)" xlink:href="#E1-MJMAIN-28" x="0" y="0"></use>
 <use transform="scale(0.707)" xlink:href="#E1-MJMATHI-69" x="389" y="0"></use>
 <use transform="scale(0.707)" xlink:href="#E1-MJMAIN-29" x="734" y="0"></use>
</g>
</g>
 <use xlink:href="#E1-MJMAIN-3D" x="5795" y="0"></use>
<g transform="translate(6851,0)">
 <use xlink:href="#E1-MJSZ3-7B"></use>
<g transform="translate(917,0)">
<g transform="translate(-11,0)">
<g transform="translate(0,550)">
 <use xlink:href="#E1-MJMAIN-31" x="0" y="0"></use>
</g>
<g transform="translate(0,-744)">
 <use xlink:href="#E1-MJMAIN-31"></use>
 <use xlink:href="#E1-MJMAIN-30" x="500" y="0"></use>
</g>
</g>
<g transform="translate(1990,0)">
<g transform="translate(0,550)">
 <use xlink:href="#E1-MJMAIN-69" x="0" y="0"></use>
 <use xlink:href="#E1-MJMAIN-66" x="278" y="0"></use>
<g transform="translate(901,0)">
 <use xlink:href="#E1-MJMATHI-78" x="0" y="0"></use>
<g transform="translate(572,362)">
 <use transform="scale(0.707)" xlink:href="#E1-MJMAIN-28" x="0" y="0"></use>
 <use transform="scale(0.707)" xlink:href="#E1-MJMATHI-69" x="389" y="0"></use>
 <use transform="scale(0.707)" xlink:href="#E1-MJMAIN-29" x="734" y="0"></use>
</g>
</g>
<g transform="translate(2618,0)">
 <use xlink:href="#E1-MJMAIN-69" x="0" y="0"></use>
 <use xlink:href="#E1-MJMAIN-73" x="278" y="0"></use>
</g>
<g transform="translate(3541,0)">
 <use xlink:href="#E1-MJMAIN-6E" x="0" y="0"></use>
 <use xlink:href="#E1-MJMAIN-6F" x="556" y="0"></use>
 <use xlink:href="#E1-MJMAIN-6E" x="1057" y="0"></use>
</g>
 <use xlink:href="#E1-MJMAIN-2212" x="5044" y="0"></use>
<g transform="translate(5711,0)">
 <use xlink:href="#E1-MJMAIN-70" x="0" y="0"></use>
 <use xlink:href="#E1-MJMAIN-6F" x="556" y="0"></use>
 <use xlink:href="#E1-MJMAIN-72" x="1057" y="0"></use>
 <use xlink:href="#E1-MJMAIN-6E" x="1449" y="0"></use>
</g>
</g>
<g transform="translate(0,-744)">
 <use xlink:href="#E1-MJMAIN-69" x="0" y="0"></use>
 <use xlink:href="#E1-MJMAIN-66" x="278" y="0"></use>
<g transform="translate(901,0)">
 <use xlink:href="#E1-MJMATHI-78" x="0" y="0"></use>
<g transform="translate(572,362)">
 <use transform="scale(0.707)" xlink:href="#E1-MJMAIN-28" x="0" y="0"></use>
 <use transform="scale(0.707)" xlink:href="#E1-MJMATHI-69" x="389" y="0"></use>
 <use transform="scale(0.707)" xlink:href="#E1-MJMAIN-29" x="734" y="0"></use>
</g>
</g>
<g transform="translate(2618,0)">
 <use xlink:href="#E1-MJMAIN-69" x="0" y="0"></use>
 <use xlink:href="#E1-MJMAIN-73" x="278" y="0"></use>
</g>
<g transform="translate(3541,0)">
 <use xlink:href="#E1-MJMAIN-70" x="0" y="0"></use>
 <use xlink:href="#E1-MJMAIN-6F" x="556" y="0"></use>
 <use xlink:href="#E1-MJMAIN-72" x="1057" y="0"></use>
 <use xlink:href="#E1-MJMAIN-6E" x="1449" y="0"></use>
</g>
</g>
</g>
</g>
</g>
</g>
</g>
</g>
</g>
</svg>