<svg xmlns:xlink="http://www.w3.org/1999/xlink" width="78.845ex" height="16.509ex" style="font-size: 15px; vertical-align: -7.671ex; margin-top: -0.301ex;" viewBox="0 -3805.2 33947.1 7108.1" role="img" focusable="false" xmlns="http://www.w3.org/2000/svg">
<defs>
<path stroke-width="1" id="E1-MJMATHI-58" d="M42 0H40Q26 0 26 11Q26 15 29 27Q33 41 36 43T55 46Q141 49 190 98Q200 108 306 224T411 342Q302 620 297 625Q288 636 234 637H206Q200 643 200 645T202 664Q206 677 212 683H226Q260 681 347 681Q380 681 408 681T453 682T473 682Q490 682 490 671Q490 670 488 658Q484 643 481 640T465 637Q434 634 411 620L488 426L541 485Q646 598 646 610Q646 628 622 635Q617 635 609 637Q594 637 594 648Q594 650 596 664Q600 677 606 683H618Q619 683 643 683T697 681T738 680Q828 680 837 683H845Q852 676 852 672Q850 647 840 637H824Q790 636 763 628T722 611T698 593L687 584Q687 585 592 480L505 384Q505 383 536 304T601 142T638 56Q648 47 699 46Q734 46 734 37Q734 35 732 23Q728 7 725 4T711 1Q708 1 678 1T589 2Q528 2 496 2T461 1Q444 1 444 10Q444 11 446 25Q448 35 450 39T455 44T464 46T480 47T506 54Q523 62 523 64Q522 64 476 181L429 299Q241 95 236 84Q232 76 232 72Q232 53 261 47Q262 47 267 47T273 46Q276 46 277 46T280 45T283 42T284 35Q284 26 282 19Q279 6 276 4T261 1Q258 1 243 1T201 2T142 2Q64 2 42 0Z"></path>
<path stroke-width="1" id="E1-MJMAIN-7B" d="M434 -231Q434 -244 428 -250H410Q281 -250 230 -184Q225 -177 222 -172T217 -161T213 -148T211 -133T210 -111T209 -84T209 -47T209 0Q209 21 209 53Q208 142 204 153Q203 154 203 155Q189 191 153 211T82 231Q71 231 68 234T65 250T68 266T82 269Q116 269 152 289T203 345Q208 356 208 377T209 529V579Q209 634 215 656T244 698Q270 724 324 740Q361 748 377 749Q379 749 390 749T408 750H428Q434 744 434 732Q434 719 431 716Q429 713 415 713Q362 710 332 689T296 647Q291 634 291 499V417Q291 370 288 353T271 314Q240 271 184 255L170 250L184 245Q202 239 220 230T262 196T290 137Q291 131 291 1Q291 -134 296 -147Q306 -174 339 -192T415 -213Q429 -213 431 -216Q434 -219 434 -231Z"></path>
<path stroke-width="1" id="E1-MJMAIN-31" d="M213 578L200 573Q186 568 160 563T102 556H83V602H102Q149 604 189 617T245 641T273 663Q275 666 285 666Q294 666 302 660V361L303 61Q310 54 315 52T339 48T401 46H427V0H416Q395 3 257 3Q121 3 100 0H88V46H114Q136 46 152 46T177 47T193 50T201 52T207 57T213 61V578Z"></path>
<path stroke-width="1" id="E1-MJMAIN-7D" d="M65 731Q65 745 68 747T88 750Q171 750 216 725T279 670Q288 649 289 635T291 501Q292 362 293 357Q306 312 345 291T417 269Q428 269 431 266T434 250T431 234T417 231Q380 231 345 210T298 157Q293 143 292 121T291 -28V-79Q291 -134 285 -156T256 -198Q202 -250 89 -250Q71 -250 68 -247T65 -230Q65 -224 65 -223T66 -218T69 -214T77 -213Q91 -213 108 -210T146 -200T183 -177T207 -139Q208 -134 209 3L210 139Q223 196 280 230Q315 247 330 250Q305 257 280 270Q225 304 212 352L210 362L209 498Q208 635 207 640Q195 680 154 696T77 713Q68 713 67 716T65 731Z"></path>
<path stroke-width="1" id="E1-MJMAIN-2192" d="M56 237T56 250T70 270H835Q719 357 692 493Q692 494 692 496T691 499Q691 511 708 511H711Q720 511 723 510T729 506T732 497T735 481T743 456Q765 389 816 336T935 261Q944 258 944 250Q944 244 939 241T915 231T877 212Q836 186 806 152T761 85T740 35T732 4Q730 -6 727 -8T711 -11Q691 -11 691 0Q691 7 696 25Q728 151 835 230H70Q56 237 56 250Z"></path>
<path stroke-width="1" id="E1-MJMATHI-57" d="M436 683Q450 683 486 682T553 680Q604 680 638 681T677 682Q695 682 695 674Q695 670 692 659Q687 641 683 639T661 637Q636 636 621 632T600 624T597 615Q597 603 613 377T629 138L631 141Q633 144 637 151T649 170T666 200T690 241T720 295T759 362Q863 546 877 572T892 604Q892 619 873 628T831 637Q817 637 817 647Q817 650 819 660Q823 676 825 679T839 682Q842 682 856 682T895 682T949 681Q1015 681 1034 683Q1048 683 1048 672Q1048 666 1045 655T1038 640T1028 637Q1006 637 988 631T958 617T939 600T927 584L923 578L754 282Q586 -14 585 -15Q579 -22 561 -22Q546 -22 542 -17Q539 -14 523 229T506 480L494 462Q472 425 366 239Q222 -13 220 -15T215 -19Q210 -22 197 -22Q178 -22 176 -15Q176 -12 154 304T131 622Q129 631 121 633T82 637H58Q51 644 51 648Q52 671 64 683H76Q118 680 176 680Q301 680 313 683H323Q329 677 329 674T327 656Q322 641 318 637H297Q236 634 232 620Q262 160 266 136L501 550L499 587Q496 629 489 632Q483 636 447 637Q428 637 422 639T416 648Q416 650 418 660Q419 664 420 669T421 676T424 680T428 682T436 683Z"></path>
<path stroke-width="1" id="E1-MJMAIN-5B" d="M118 -250V750H255V710H158V-210H255V-250H118Z"></path>
<path stroke-width="1" id="E1-MJMAIN-5D" d="M22 710V750H159V-250H22V-210H119V710H22Z"></path>
<path stroke-width="1" id="E1-MJMAIN-2C" d="M78 35T78 60T94 103T137 121Q165 121 187 96T210 8Q210 -27 201 -60T180 -117T154 -158T130 -185T117 -194Q113 -194 104 -185T95 -172Q95 -168 106 -156T131 -126T157 -76T173 -3V9L172 8Q170 7 167 6T161 3T152 1T140 0Q113 0 96 17Z"></path>
<path stroke-width="1" id="E1-MJMATHI-62" d="M73 647Q73 657 77 670T89 683Q90 683 161 688T234 694Q246 694 246 685T212 542Q204 508 195 472T180 418L176 399Q176 396 182 402Q231 442 283 442Q345 442 383 396T422 280Q422 169 343 79T173 -11Q123 -11 82 27T40 150V159Q40 180 48 217T97 414Q147 611 147 623T109 637Q104 637 101 637H96Q86 637 83 637T76 640T73 647ZM336 325V331Q336 405 275 405Q258 405 240 397T207 376T181 352T163 330L157 322L136 236Q114 150 114 114Q114 66 138 42Q154 26 178 26Q211 26 245 58Q270 81 285 114T318 219Q336 291 336 325Z"></path>
<path stroke-width="1" id="E1-MJMAIN-2212" d="M84 237T84 250T98 270H679Q694 262 694 250T679 230H98Q84 237 84 250Z"></path>
<path stroke-width="1" id="E1-MJMATHI-5A" d="M58 8Q58 23 64 35Q64 36 329 334T596 635L586 637Q575 637 512 637H500H476Q442 637 420 635T365 624T311 598T266 548T228 469Q227 466 226 463T224 458T223 453T222 450L221 448Q218 443 202 443Q185 443 182 453L214 561Q228 606 241 651Q249 679 253 681Q256 683 487 683H718Q723 678 723 675Q723 673 717 649Q189 54 188 52L185 49H274Q369 50 377 51Q452 60 500 100T579 247Q587 272 590 277T603 282H607Q628 282 628 271Q547 5 541 2Q538 0 300 0H124Q58 0 58 8Z"></path>
<path stroke-width="1" id="E1-MJSS-42" d="M425 363Q438 363 465 353T526 324T585 270T610 192Q610 132 561 78T426 7Q404 2 387 2T240 0H90V694H227Q373 693 396 689Q484 673 533 623T583 517Q583 494 574 473T551 437T520 409T487 388T456 374T433 366L425 363ZM490 516Q490 527 485 539T467 568T423 599T347 621Q340 622 262 623H188V399H261H286Q432 399 478 475Q490 496 490 516ZM514 190Q514 245 462 280T343 322Q336 323 259 323H188V71H274Q365 72 388 77Q445 88 479 121T514 190Z"></path>
<path stroke-width="1" id="E1-MJSS-61" d="M236 387Q209 387 184 382T141 370T111 355T91 342T83 337L82 355Q80 373 79 393T77 417Q77 419 81 421Q86 423 91 426Q155 460 227 460H238Q319 460 368 400Q393 371 400 341T408 252Q408 240 408 207T407 152V0H317V39L306 32Q244 -10 159 -10H152Q109 -10 77 22Q38 61 38 126Q38 142 39 146Q55 199 130 223T295 252H314V277Q314 305 313 310Q308 342 287 364T236 387ZM303 186Q124 180 124 126Q124 105 144 86T208 66Q284 66 309 124Q314 137 314 166V186H303Z"></path>
<path stroke-width="1" id="E1-MJSS-74" d="M333 27Q333 24 314 16T257 -1T184 -10H172Q146 -10 128 14T105 58T99 91Q95 113 95 251V371H18V444H98V571H182V444H316V371H182V253Q183 128 189 104Q199 68 234 68Q277 72 314 98Q315 93 323 61T333 27Z"></path>
<path stroke-width="1" id="E1-MJSS-63" d="M34 223Q34 327 99 393T245 460Q290 460 301 459Q328 455 354 445T395 427T410 415L396 338L386 344Q377 349 362 357T335 370Q305 381 258 381H252Q182 381 146 315Q126 275 126 224Q126 158 159 113T255 68Q329 68 394 106L408 114L410 93Q411 72 412 52L414 32Q407 27 394 20T338 2T252 -10Q156 -10 95 58T34 223Z"></path>
<path stroke-width="1" id="E1-MJSS-68" d="M163 395Q223 455 307 455Q417 455 438 354Q442 331 443 164V0H350V157Q349 315 348 320Q334 378 259 378H253Q224 378 204 358Q180 334 173 301T165 209Q165 198 165 172T166 129V0H73V694H163V395Z"></path>
<path stroke-width="1" id="E1-MJSS-4E" d="M88 0V694H235L252 659Q261 639 364 428T526 84V694H619V0H472L455 35Q453 39 330 294T185 601L181 611V0H88Z"></path>
<path stroke-width="1" id="E1-MJSS-6F" d="M28 222Q28 323 95 391T244 460Q275 460 281 459Q364 445 417 377T471 219Q471 124 408 57T250 -10Q158 -10 93 57T28 222ZM377 230Q377 277 364 310T328 358T287 379T248 385Q233 385 219 382T186 369T155 342T132 297T122 230Q122 146 159 108T250 69H253Q263 69 274 70T305 81T339 106T365 154T377 230Z"></path>
<path stroke-width="1" id="E1-MJSS-72" d="M171 389Q237 455 320 455H327V373H317Q262 369 220 336T167 248Q165 239 164 119V0H74V450H159V377L171 389Z"></path>
<path stroke-width="1" id="E1-MJSS-6D" d="M160 392Q223 455 304 455Q359 455 386 436T430 383L437 391Q495 455 584 455Q694 455 715 354Q719 331 720 164V0H627V157Q626 315 625 320Q611 378 536 378H530Q501 378 481 358Q457 334 450 301T442 209Q442 198 442 172T443 129V0H350V157Q349 315 348 320Q334 378 259 378H253Q224 378 204 358Q180 334 173 301T165 209Q165 198 165 172T166 129V0H73V450H160V392Z"></path>
<path stroke-width="1" id="E1-MJMATHI-3B3" d="M31 249Q11 249 11 258Q11 275 26 304T66 365T129 418T206 441Q233 441 239 440Q287 429 318 386T371 255Q385 195 385 170Q385 166 386 166L398 193Q418 244 443 300T486 391T508 430Q510 431 524 431H537Q543 425 543 422Q543 418 522 378T463 251T391 71Q385 55 378 6T357 -100Q341 -165 330 -190T303 -216Q286 -216 286 -188Q286 -138 340 32L346 51L347 69Q348 79 348 100Q348 257 291 317Q251 355 196 355Q148 355 108 329T51 260Q49 251 47 251Q45 249 31 249Z"></path>
<path stroke-width="1" id="E1-MJMATHI-3B2" d="M29 -194Q23 -188 23 -186Q23 -183 102 134T186 465Q208 533 243 584T309 658Q365 705 429 705H431Q493 705 533 667T573 570Q573 465 469 396L482 383Q533 332 533 252Q533 139 448 65T257 -10Q227 -10 203 -2T165 17T143 40T131 59T126 65L62 -188Q60 -194 42 -194H29ZM353 431Q392 431 427 419L432 422Q436 426 439 429T449 439T461 453T472 471T484 495T493 524T501 560Q503 569 503 593Q503 611 502 616Q487 667 426 667Q384 667 347 643T286 582T247 514T224 455Q219 439 186 308T152 168Q151 163 151 147Q151 99 173 68Q204 26 260 26Q302 26 349 51T425 137Q441 171 449 214T457 279Q457 337 422 372Q380 358 347 358H337Q258 358 258 389Q258 396 261 403Q275 431 353 431Z"></path>
<path stroke-width="1" id="E1-MJMAIN-7E" d="M179 251Q164 251 151 245T131 234T111 215L97 227L83 238Q83 239 95 253T121 283T142 304Q165 318 187 318T253 300T320 282Q335 282 348 288T368 299T388 318L402 306L416 295Q375 236 344 222Q330 215 313 215Q292 215 248 233T179 251Z"></path>
<path stroke-width="1" id="E1-MJMATHI-67" d="M311 43Q296 30 267 15T206 0Q143 0 105 45T66 160Q66 265 143 353T314 442Q361 442 401 394L404 398Q406 401 409 404T418 412T431 419T447 422Q461 422 470 413T480 394Q480 379 423 152T363 -80Q345 -134 286 -169T151 -205Q10 -205 10 -137Q10 -111 28 -91T74 -71Q89 -71 102 -80T116 -111Q116 -121 114 -130T107 -144T99 -154T92 -162L90 -164H91Q101 -167 151 -167Q189 -167 211 -155Q234 -144 254 -122T282 -75Q288 -56 298 -13Q311 35 311 43ZM384 328L380 339Q377 350 375 354T369 368T359 382T346 393T328 402T306 405Q262 405 221 352Q191 313 171 233T151 117Q151 38 213 38Q269 38 323 108L331 118L384 328Z"></path>
<path stroke-width="1" id="E1-MJMATHI-41" d="M208 74Q208 50 254 46Q272 46 272 35Q272 34 270 22Q267 8 264 4T251 0Q249 0 239 0T205 1T141 2Q70 2 50 0H42Q35 7 35 11Q37 38 48 46H62Q132 49 164 96Q170 102 345 401T523 704Q530 716 547 716H555H572Q578 707 578 706L606 383Q634 60 636 57Q641 46 701 46Q726 46 726 36Q726 34 723 22Q720 7 718 4T704 0Q701 0 690 0T651 1T578 2Q484 2 455 0H443Q437 6 437 9T439 27Q443 40 445 43L449 46H469Q523 49 533 63L521 213H283L249 155Q208 86 208 74ZM516 260Q516 271 504 416T490 562L463 519Q447 492 400 412L310 260L413 259Q516 259 516 260Z"></path>
<path stroke-width="1" id="E1-MJMAIN-32" d="M109 429Q82 429 66 447T50 491Q50 562 103 614T235 666Q326 666 387 610T449 465Q449 422 429 383T381 315T301 241Q265 210 201 149L142 93L218 92Q375 92 385 97Q392 99 409 186V189H449V186Q448 183 436 95T421 3V0H50V19V31Q50 38 56 46T86 81Q115 113 136 137Q145 147 170 174T204 211T233 244T261 278T284 308T305 340T320 369T333 401T340 431T343 464Q343 527 309 573T212 619Q179 619 154 602T119 569T109 550Q109 549 114 549Q132 549 151 535T170 489Q170 464 154 447T109 429Z"></path>
<path stroke-width="1" id="E1-MJMAIN-22EF" d="M78 250Q78 274 95 292T138 310Q162 310 180 294T199 251Q199 226 182 208T139 190T96 207T78 250ZM525 250Q525 274 542 292T585 310Q609 310 627 294T646 251Q646 226 629 208T586 190T543 207T525 250ZM972 250Q972 274 989 292T1032 310Q1056 310 1074 294T1093 251Q1093 226 1076 208T1033 190T990 207T972 250Z"></path>
</defs>
<g stroke="currentColor" fill="currentColor" stroke-width="0" transform="matrix(1 0 0 -1 0 0)">
<g transform="translate(167,0)">
<g transform="translate(-11,0)">
<g transform="translate(0,2090)">
 <use xlink:href="#E1-MJMATHI-58" x="0" y="0"></use>
<g transform="translate(859,412)">
 <use transform="scale(0.707)" xlink:href="#E1-MJMAIN-7B" x="0" y="0"></use>
 <use transform="scale(0.707)" xlink:href="#E1-MJMAIN-31" x="500" y="0"></use>
 <use transform="scale(0.707)" xlink:href="#E1-MJMAIN-7D" x="1001" y="0"></use>
</g>
<g transform="translate(2299,0)">
 <use xlink:href="#E1-MJMAIN-2212" x="-85" y="0"></use>
<g transform="translate(168.78304568002432,0) scale(3.446354488993795,1)">
 <use xlink:href="#E1-MJMAIN-2212"></use>
</g>
 <use xlink:href="#E1-MJMAIN-2192" x="2355" y="0"></use>
<g transform="translate(28,761)">
<g transform="translate(233,150)">
 <use transform="scale(0.707)" xlink:href="#E1-MJMATHI-57" x="0" y="0"></use>
<g transform="translate(763,262)">
 <use transform="scale(0.574)" xlink:href="#E1-MJMAIN-5B" x="0" y="0"></use>
 <use transform="scale(0.574)" xlink:href="#E1-MJMAIN-31" x="278" y="0"></use>
 <use transform="scale(0.574)" xlink:href="#E1-MJMAIN-5D" x="778" y="0"></use>
</g>
 <use transform="scale(0.707)" xlink:href="#E1-MJMAIN-2C" x="2038" y="0"></use>
<g transform="translate(1804,0)">
 <use transform="scale(0.707)" xlink:href="#E1-MJMATHI-62" x="0" y="0"></use>
<g transform="translate(303,269)">
 <use transform="scale(0.574)" xlink:href="#E1-MJMAIN-5B" x="0" y="0"></use>
 <use transform="scale(0.574)" xlink:href="#E1-MJMAIN-31" x="278" y="0"></use>
 <use transform="scale(0.574)" xlink:href="#E1-MJMAIN-5D" x="778" y="0"></use>
</g>
</g>
</g>
</g>
</g>
<g transform="translate(5933,0)">
 <use xlink:href="#E1-MJMATHI-5A" x="0" y="0"></use>
<g transform="translate(735,412)">
 <use transform="scale(0.707)" xlink:href="#E1-MJMAIN-5B" x="0" y="0"></use>
 <use transform="scale(0.707)" xlink:href="#E1-MJMAIN-31" x="278" y="0"></use>
 <use transform="scale(0.707)" xlink:href="#E1-MJMAIN-5D" x="779" y="0"></use>
</g>
</g>
<g transform="translate(7794,0)">
 <use xlink:href="#E1-MJMAIN-2212" x="-85" y="0"></use>
<g transform="translate(186.10554249815755,0) scale(3.241354526649023,1)">
 <use xlink:href="#E1-MJMAIN-2212"></use>
</g>
 <use xlink:href="#E1-MJMAIN-2192" x="2230" y="0"></use>
<g transform="translate(28,-736)">
<g transform="translate(233,-240)">
<g transform="translate(0,218)">
 <use transform="scale(0.488)" xlink:href="#E1-MJSS-42"></use>
 <use transform="scale(0.488)" xlink:href="#E1-MJSS-61" x="667" y="0"></use>
 <use transform="scale(0.488)" xlink:href="#E1-MJSS-74" x="1149" y="0"></use>
 <use transform="scale(0.488)" xlink:href="#E1-MJSS-63" x="1510" y="0"></use>
 <use transform="scale(0.488)" xlink:href="#E1-MJSS-68" x="1954" y="0"></use>
 <use transform="scale(0.488)" xlink:href="#E1-MJSS-4E" x="2984" y="0"></use>
 <use transform="scale(0.488)" xlink:href="#E1-MJSS-6F" x="3693" y="0"></use>
 <use transform="scale(0.488)" xlink:href="#E1-MJSS-72" x="4193" y="0"></use>
 <use transform="scale(0.488)" xlink:href="#E1-MJSS-6D" x="4536" y="0"></use>
</g>
</g>
</g>
<g transform="translate(100,776)">
<g transform="translate(233,150)">
 <use transform="scale(0.707)" xlink:href="#E1-MJMATHI-3B3" x="0" y="0"></use>
<g transform="translate(389,256)">
 <use transform="scale(0.574)" xlink:href="#E1-MJMAIN-5B" x="0" y="0"></use>
 <use transform="scale(0.574)" xlink:href="#E1-MJMAIN-31" x="278" y="0"></use>
 <use transform="scale(0.574)" xlink:href="#E1-MJMAIN-5D" x="778" y="0"></use>
</g>
 <use transform="scale(0.707)" xlink:href="#E1-MJMAIN-2C" x="1509" y="0"></use>
<g transform="translate(1431,0)">
 <use transform="scale(0.707)" xlink:href="#E1-MJMATHI-3B2" x="0" y="0"></use>
<g transform="translate(407,277)">
 <use transform="scale(0.574)" xlink:href="#E1-MJMAIN-5B" x="0" y="0"></use>
 <use transform="scale(0.574)" xlink:href="#E1-MJMAIN-31" x="278" y="0"></use>
 <use transform="scale(0.574)" xlink:href="#E1-MJMAIN-5D" x="778" y="0"></use>
</g>
</g>
</g>
</g>
</g>
<g transform="translate(11303,0)">
 <use xlink:href="#E1-MJMATHI-5A" x="0" y="0"></use>
 <use xlink:href="#E1-MJMAIN-7E" x="220" y="577"></use>
<g transform="translate(723,623)">
 <use transform="scale(0.707)" xlink:href="#E1-MJMAIN-5B" x="0" y="0"></use>
 <use transform="scale(0.707)" xlink:href="#E1-MJMAIN-31" x="278" y="0"></use>
 <use transform="scale(0.707)" xlink:href="#E1-MJMAIN-5D" x="779" y="0"></use>
</g>
</g>
<g transform="translate(13152,0)">
 <use xlink:href="#E1-MJMAIN-2212" x="-85" y="0"></use>
 <use xlink:href="#E1-MJMAIN-2192" x="429" y="0"></use>
<g transform="translate(28,-941)">
<g transform="translate(233,-240)">
<g transform="translate(0,218)">
 <use transform="scale(0.488)" xlink:href="#E1-MJMATHI-67" x="0" y="0"></use>
<g transform="translate(234,177)">
 <use transform="scale(0.488)" xlink:href="#E1-MJMAIN-5B" x="0" y="0"></use>
 <use transform="scale(0.488)" xlink:href="#E1-MJMAIN-31" x="278" y="0"></use>
 <use transform="scale(0.488)" xlink:href="#E1-MJMAIN-5D" x="778" y="0"></use>
</g>
</g>
</g>
</g>
<g></g>
</g>
<g transform="translate(14859,0)">
 <use xlink:href="#E1-MJMATHI-41" x="0" y="0"></use>
<g transform="translate(750,412)">
 <use transform="scale(0.707)" xlink:href="#E1-MJMAIN-5B" x="0" y="0"></use>
 <use transform="scale(0.707)" xlink:href="#E1-MJMAIN-31" x="278" y="0"></use>
 <use transform="scale(0.707)" xlink:href="#E1-MJMAIN-5D" x="779" y="0"></use>
</g>
</g>
<g transform="translate(16736,0)">
 <use xlink:href="#E1-MJMAIN-2212" x="-85" y="0"></use>
<g transform="translate(168.78304568002432,0) scale(3.446354488993795,1)">
 <use xlink:href="#E1-MJMAIN-2212"></use>
</g>
 <use xlink:href="#E1-MJMAIN-2192" x="2355" y="0"></use>
<g transform="translate(28,761)">
<g transform="translate(233,150)">
 <use transform="scale(0.707)" xlink:href="#E1-MJMATHI-57" x="0" y="0"></use>
<g transform="translate(763,262)">
 <use transform="scale(0.574)" xlink:href="#E1-MJMAIN-5B" x="0" y="0"></use>
 <use transform="scale(0.574)" xlink:href="#E1-MJMAIN-32" x="278" y="0"></use>
 <use transform="scale(0.574)" xlink:href="#E1-MJMAIN-5D" x="778" y="0"></use>
</g>
 <use transform="scale(0.707)" xlink:href="#E1-MJMAIN-2C" x="2038" y="0"></use>
<g transform="translate(1804,0)">
 <use transform="scale(0.707)" xlink:href="#E1-MJMATHI-62" x="0" y="0"></use>
<g transform="translate(303,269)">
 <use transform="scale(0.574)" xlink:href="#E1-MJMAIN-5B" x="0" y="0"></use>
 <use transform="scale(0.574)" xlink:href="#E1-MJMAIN-32" x="278" y="0"></use>
 <use transform="scale(0.574)" xlink:href="#E1-MJMAIN-5D" x="778" y="0"></use>
</g>
</g>
</g>
</g>
</g>
<g transform="translate(20370,0)">
 <use xlink:href="#E1-MJMATHI-5A" x="0" y="0"></use>
<g transform="translate(735,412)">
 <use transform="scale(0.707)" xlink:href="#E1-MJMAIN-5B" x="0" y="0"></use>
 <use transform="scale(0.707)" xlink:href="#E1-MJMAIN-32" x="278" y="0"></use>
 <use transform="scale(0.707)" xlink:href="#E1-MJMAIN-5D" x="779" y="0"></use>
</g>
</g>
<g transform="translate(22231,0)">
 <use xlink:href="#E1-MJMAIN-2212" x="-85" y="0"></use>
<g transform="translate(186.10554249815755,0) scale(3.241354526649023,1)">
 <use xlink:href="#E1-MJMAIN-2212"></use>
</g>
 <use xlink:href="#E1-MJMAIN-2192" x="2230" y="0"></use>
<g transform="translate(28,-736)">
<g transform="translate(233,-240)">
<g transform="translate(0,218)">
 <use transform="scale(0.488)" xlink:href="#E1-MJSS-42"></use>
 <use transform="scale(0.488)" xlink:href="#E1-MJSS-61" x="667" y="0"></use>
 <use transform="scale(0.488)" xlink:href="#E1-MJSS-74" x="1149" y="0"></use>
 <use transform="scale(0.488)" xlink:href="#E1-MJSS-63" x="1510" y="0"></use>
 <use transform="scale(0.488)" xlink:href="#E1-MJSS-68" x="1954" y="0"></use>
 <use transform="scale(0.488)" xlink:href="#E1-MJSS-4E" x="2984" y="0"></use>
 <use transform="scale(0.488)" xlink:href="#E1-MJSS-6F" x="3693" y="0"></use>
 <use transform="scale(0.488)" xlink:href="#E1-MJSS-72" x="4193" y="0"></use>
 <use transform="scale(0.488)" xlink:href="#E1-MJSS-6D" x="4536" y="0"></use>
</g>
</g>
</g>
<g transform="translate(100,776)">
<g transform="translate(233,150)">
 <use transform="scale(0.707)" xlink:href="#E1-MJMATHI-3B3" x="0" y="0"></use>
<g transform="translate(389,256)">
 <use transform="scale(0.574)" xlink:href="#E1-MJMAIN-5B" x="0" y="0"></use>
 <use transform="scale(0.574)" xlink:href="#E1-MJMAIN-32" x="278" y="0"></use>
 <use transform="scale(0.574)" xlink:href="#E1-MJMAIN-5D" x="778" y="0"></use>
</g>
 <use transform="scale(0.707)" xlink:href="#E1-MJMAIN-2C" x="1509" y="0"></use>
<g transform="translate(1431,0)">
 <use transform="scale(0.707)" xlink:href="#E1-MJMATHI-3B2" x="0" y="0"></use>
<g transform="translate(407,277)">
 <use transform="scale(0.574)" xlink:href="#E1-MJMAIN-5B" x="0" y="0"></use>
 <use transform="scale(0.574)" xlink:href="#E1-MJMAIN-32" x="278" y="0"></use>
 <use transform="scale(0.574)" xlink:href="#E1-MJMAIN-5D" x="778" y="0"></use>
</g>
</g>
</g>
</g>
</g>
<g transform="translate(25740,0)">
 <use xlink:href="#E1-MJMATHI-5A" x="0" y="0"></use>
 <use xlink:href="#E1-MJMAIN-7E" x="220" y="577"></use>
<g transform="translate(723,623)">
 <use transform="scale(0.707)" xlink:href="#E1-MJMAIN-5B" x="0" y="0"></use>
 <use transform="scale(0.707)" xlink:href="#E1-MJMAIN-32" x="278" y="0"></use>
 <use transform="scale(0.707)" xlink:href="#E1-MJMAIN-5D" x="779" y="0"></use>
</g>
</g>
<g transform="translate(27589,0)">
 <use xlink:href="#E1-MJMAIN-2212" x="-85" y="0"></use>
 <use xlink:href="#E1-MJMAIN-2192" x="429" y="0"></use>
<g transform="translate(28,-941)">
<g transform="translate(233,-240)">
<g transform="translate(0,218)">
 <use transform="scale(0.488)" xlink:href="#E1-MJMATHI-67" x="0" y="0"></use>
<g transform="translate(234,177)">
 <use transform="scale(0.488)" xlink:href="#E1-MJMAIN-5B" x="0" y="0"></use>
 <use transform="scale(0.488)" xlink:href="#E1-MJMAIN-32" x="278" y="0"></use>
 <use transform="scale(0.488)" xlink:href="#E1-MJMAIN-5D" x="778" y="0"></use>
</g>
</g>
</g>
</g>
<g></g>
</g>
<g transform="translate(29296,0)">
 <use xlink:href="#E1-MJMATHI-41" x="0" y="0"></use>
<g transform="translate(750,412)">
 <use transform="scale(0.707)" xlink:href="#E1-MJMAIN-5B" x="0" y="0"></use>
 <use transform="scale(0.707)" xlink:href="#E1-MJMAIN-32" x="278" y="0"></use>
 <use transform="scale(0.707)" xlink:href="#E1-MJMAIN-5D" x="779" y="0"></use>
</g>
</g>
<g transform="translate(31172,0)">
 <use xlink:href="#E1-MJMAIN-2192"></use>
<g></g>
</g>
 <use xlink:href="#E1-MJMAIN-22EF" x="32451" y="0"></use>
</g>
<g transform="translate(0,-836)">
 <use xlink:href="#E1-MJMATHI-58" x="0" y="0"></use>
<g transform="translate(859,412)">
 <use transform="scale(0.707)" xlink:href="#E1-MJMAIN-7B" x="0" y="0"></use>
 <use transform="scale(0.707)" xlink:href="#E1-MJMAIN-32" x="500" y="0"></use>
 <use transform="scale(0.707)" xlink:href="#E1-MJMAIN-7D" x="1001" y="0"></use>
</g>
<g transform="translate(2299,0)">
 <use xlink:href="#E1-MJMAIN-2212" x="-85" y="0"></use>
<g transform="translate(168.78304568002432,0) scale(3.446354488993795,1)">
 <use xlink:href="#E1-MJMAIN-2212"></use>
</g>
 <use xlink:href="#E1-MJMAIN-2192" x="2355" y="0"></use>
<g transform="translate(28,761)">
<g transform="translate(233,150)">
 <use transform="scale(0.707)" xlink:href="#E1-MJMATHI-57" x="0" y="0"></use>
<g transform="translate(763,262)">
 <use transform="scale(0.574)" xlink:href="#E1-MJMAIN-5B" x="0" y="0"></use>
 <use transform="scale(0.574)" xlink:href="#E1-MJMAIN-31" x="278" y="0"></use>
 <use transform="scale(0.574)" xlink:href="#E1-MJMAIN-5D" x="778" y="0"></use>
</g>
 <use transform="scale(0.707)" xlink:href="#E1-MJMAIN-2C" x="2038" y="0"></use>
<g transform="translate(1804,0)">
 <use transform="scale(0.707)" xlink:href="#E1-MJMATHI-62" x="0" y="0"></use>
<g transform="translate(303,269)">
 <use transform="scale(0.574)" xlink:href="#E1-MJMAIN-5B" x="0" y="0"></use>
 <use transform="scale(0.574)" xlink:href="#E1-MJMAIN-31" x="278" y="0"></use>
 <use transform="scale(0.574)" xlink:href="#E1-MJMAIN-5D" x="778" y="0"></use>
</g>
</g>
</g>
</g>
</g>
<g transform="translate(5933,0)">
 <use xlink:href="#E1-MJMATHI-5A" x="0" y="0"></use>
<g transform="translate(735,412)">
 <use transform="scale(0.707)" xlink:href="#E1-MJMAIN-5B" x="0" y="0"></use>
 <use transform="scale(0.707)" xlink:href="#E1-MJMAIN-31" x="278" y="0"></use>
 <use transform="scale(0.707)" xlink:href="#E1-MJMAIN-5D" x="779" y="0"></use>
</g>
</g>
<g transform="translate(7794,0)">
 <use xlink:href="#E1-MJMAIN-2212" x="-85" y="0"></use>
<g transform="translate(186.10554249815755,0) scale(3.241354526649023,1)">
 <use xlink:href="#E1-MJMAIN-2212"></use>
</g>
 <use xlink:href="#E1-MJMAIN-2192" x="2230" y="0"></use>
<g transform="translate(28,-736)">
<g transform="translate(233,-240)">
<g transform="translate(0,218)">
 <use transform="scale(0.488)" xlink:href="#E1-MJSS-42"></use>
 <use transform="scale(0.488)" xlink:href="#E1-MJSS-61" x="667" y="0"></use>
 <use transform="scale(0.488)" xlink:href="#E1-MJSS-74" x="1149" y="0"></use>
 <use transform="scale(0.488)" xlink:href="#E1-MJSS-63" x="1510" y="0"></use>
 <use transform="scale(0.488)" xlink:href="#E1-MJSS-68" x="1954" y="0"></use>
 <use transform="scale(0.488)" xlink:href="#E1-MJSS-4E" x="2984" y="0"></use>
 <use transform="scale(0.488)" xlink:href="#E1-MJSS-6F" x="3693" y="0"></use>
 <use transform="scale(0.488)" xlink:href="#E1-MJSS-72" x="4193" y="0"></use>
 <use transform="scale(0.488)" xlink:href="#E1-MJSS-6D" x="4536" y="0"></use>
</g>
</g>
</g>
<g transform="translate(100,776)">
<g transform="translate(233,150)">
 <use transform="scale(0.707)" xlink:href="#E1-MJMATHI-3B3" x="0" y="0"></use>
<g transform="translate(389,256)">
 <use transform="scale(0.574)" xlink:href="#E1-MJMAIN-5B" x="0" y="0"></use>
 <use transform="scale(0.574)" xlink:href="#E1-MJMAIN-31" x="278" y="0"></use>
 <use transform="scale(0.574)" xlink:href="#E1-MJMAIN-5D" x="778" y="0"></use>
</g>
 <use transform="scale(0.707)" xlink:href="#E1-MJMAIN-2C" x="1509" y="0"></use>
<g transform="translate(1431,0)">
 <use transform="scale(0.707)" xlink:href="#E1-MJMATHI-3B2" x="0" y="0"></use>
<g transform="translate(407,277)">
 <use transform="scale(0.574)" xlink:href="#E1-MJMAIN-5B" x="0" y="0"></use>
 <use transform="scale(0.574)" xlink:href="#E1-MJMAIN-31" x="278" y="0"></use>
 <use transform="scale(0.574)" xlink:href="#E1-MJMAIN-5D" x="778" y="0"></use>
</g>
</g>
</g>
</g>
</g>
<g transform="translate(11303,0)">
 <use xlink:href="#E1-MJMATHI-5A" x="0" y="0"></use>
 <use xlink:href="#E1-MJMAIN-7E" x="220" y="577"></use>
<g transform="translate(723,623)">
 <use transform="scale(0.707)" xlink:href="#E1-MJMAIN-5B" x="0" y="0"></use>
 <use transform="scale(0.707)" xlink:href="#E1-MJMAIN-31" x="278" y="0"></use>
 <use transform="scale(0.707)" xlink:href="#E1-MJMAIN-5D" x="779" y="0"></use>
</g>
</g>
<g transform="translate(13152,0)">
 <use xlink:href="#E1-MJMAIN-2212" x="-85" y="0"></use>
 <use xlink:href="#E1-MJMAIN-2192" x="429" y="0"></use>
<g transform="translate(28,-941)">
<g transform="translate(233,-240)">
<g transform="translate(0,218)">
 <use transform="scale(0.488)" xlink:href="#E1-MJMATHI-67" x="0" y="0"></use>
<g transform="translate(234,177)">
 <use transform="scale(0.488)" xlink:href="#E1-MJMAIN-5B" x="0" y="0"></use>
 <use transform="scale(0.488)" xlink:href="#E1-MJMAIN-31" x="278" y="0"></use>
 <use transform="scale(0.488)" xlink:href="#E1-MJMAIN-5D" x="778" y="0"></use>
</g>
</g>
</g>
</g>
<g></g>
</g>
<g transform="translate(14859,0)">
 <use xlink:href="#E1-MJMATHI-41" x="0" y="0"></use>
<g transform="translate(750,412)">
 <use transform="scale(0.707)" xlink:href="#E1-MJMAIN-5B" x="0" y="0"></use>
 <use transform="scale(0.707)" xlink:href="#E1-MJMAIN-31" x="278" y="0"></use>
 <use transform="scale(0.707)" xlink:href="#E1-MJMAIN-5D" x="779" y="0"></use>
</g>
</g>
<g transform="translate(16736,0)">
 <use xlink:href="#E1-MJMAIN-2212" x="-85" y="0"></use>
<g transform="translate(168.78304568002432,0) scale(3.446354488993795,1)">
 <use xlink:href="#E1-MJMAIN-2212"></use>
</g>
 <use xlink:href="#E1-MJMAIN-2192" x="2355" y="0"></use>
<g transform="translate(28,761)">
<g transform="translate(233,150)">
 <use transform="scale(0.707)" xlink:href="#E1-MJMATHI-57" x="0" y="0"></use>
<g transform="translate(763,262)">
 <use transform="scale(0.574)" xlink:href="#E1-MJMAIN-5B" x="0" y="0"></use>
 <use transform="scale(0.574)" xlink:href="#E1-MJMAIN-32" x="278" y="0"></use>
 <use transform="scale(0.574)" xlink:href="#E1-MJMAIN-5D" x="778" y="0"></use>
</g>
 <use transform="scale(0.707)" xlink:href="#E1-MJMAIN-2C" x="2038" y="0"></use>
<g transform="translate(1804,0)">
 <use transform="scale(0.707)" xlink:href="#E1-MJMATHI-62" x="0" y="0"></use>
<g transform="translate(303,269)">
 <use transform="scale(0.574)" xlink:href="#E1-MJMAIN-5B" x="0" y="0"></use>
 <use transform="scale(0.574)" xlink:href="#E1-MJMAIN-32" x="278" y="0"></use>
 <use transform="scale(0.574)" xlink:href="#E1-MJMAIN-5D" x="778" y="0"></use>
</g>
</g>
</g>
</g>
</g>
<g transform="translate(20370,0)">
 <use xlink:href="#E1-MJMATHI-5A" x="0" y="0"></use>
<g transform="translate(735,412)">
 <use transform="scale(0.707)" xlink:href="#E1-MJMAIN-5B" x="0" y="0"></use>
 <use transform="scale(0.707)" xlink:href="#E1-MJMAIN-32" x="278" y="0"></use>
 <use transform="scale(0.707)" xlink:href="#E1-MJMAIN-5D" x="779" y="0"></use>
</g>
</g>
<g transform="translate(22231,0)">
 <use xlink:href="#E1-MJMAIN-2212" x="-85" y="0"></use>
<g transform="translate(186.10554249815755,0) scale(3.241354526649023,1)">
 <use xlink:href="#E1-MJMAIN-2212"></use>
</g>
 <use xlink:href="#E1-MJMAIN-2192" x="2230" y="0"></use>
<g transform="translate(28,-736)">
<g transform="translate(233,-240)">
<g transform="translate(0,218)">
 <use transform="scale(0.488)" xlink:href="#E1-MJSS-42"></use>
 <use transform="scale(0.488)" xlink:href="#E1-MJSS-61" x="667" y="0"></use>
 <use transform="scale(0.488)" xlink:href="#E1-MJSS-74" x="1149" y="0"></use>
 <use transform="scale(0.488)" xlink:href="#E1-MJSS-63" x="1510" y="0"></use>
 <use transform="scale(0.488)" xlink:href="#E1-MJSS-68" x="1954" y="0"></use>
 <use transform="scale(0.488)" xlink:href="#E1-MJSS-4E" x="2984" y="0"></use>
 <use transform="scale(0.488)" xlink:href="#E1-MJSS-6F" x="3693" y="0"></use>
 <use transform="scale(0.488)" xlink:href="#E1-MJSS-72" x="4193" y="0"></use>
 <use transform="scale(0.488)" xlink:href="#E1-MJSS-6D" x="4536" y="0"></use>
</g>
</g>
</g>
<g transform="translate(100,776)">
<g transform="translate(233,150)">
 <use transform="scale(0.707)" xlink:href="#E1-MJMATHI-3B3" x="0" y="0"></use>
<g transform="translate(389,256)">
 <use transform="scale(0.574)" xlink:href="#E1-MJMAIN-5B" x="0" y="0"></use>
 <use transform="scale(0.574)" xlink:href="#E1-MJMAIN-32" x="278" y="0"></use>
 <use transform="scale(0.574)" xlink:href="#E1-MJMAIN-5D" x="778" y="0"></use>
</g>
 <use transform="scale(0.707)" xlink:href="#E1-MJMAIN-2C" x="1509" y="0"></use>
<g transform="translate(1431,0)">
 <use transform="scale(0.707)" xlink:href="#E1-MJMATHI-3B2" x="0" y="0"></use>
<g transform="translate(407,277)">
 <use transform="scale(0.574)" xlink:href="#E1-MJMAIN-5B" x="0" y="0"></use>
 <use transform="scale(0.574)" xlink:href="#E1-MJMAIN-32" x="278" y="0"></use>
 <use transform="scale(0.574)" xlink:href="#E1-MJMAIN-5D" x="778" y="0"></use>
</g>
</g>
</g>
</g>
</g>
<g transform="translate(25740,0)">
 <use xlink:href="#E1-MJMATHI-5A" x="0" y="0"></use>
 <use xlink:href="#E1-MJMAIN-7E" x="220" y="577"></use>
<g transform="translate(723,623)">
 <use transform="scale(0.707)" xlink:href="#E1-MJMAIN-5B" x="0" y="0"></use>
 <use transform="scale(0.707)" xlink:href="#E1-MJMAIN-32" x="278" y="0"></use>
 <use transform="scale(0.707)" xlink:href="#E1-MJMAIN-5D" x="779" y="0"></use>
</g>
</g>
<g transform="translate(27589,0)">
 <use xlink:href="#E1-MJMAIN-2212" x="-85" y="0"></use>
 <use xlink:href="#E1-MJMAIN-2192" x="429" y="0"></use>
<g transform="translate(28,-941)">
<g transform="translate(233,-240)">
<g transform="translate(0,218)">
 <use transform="scale(0.488)" xlink:href="#E1-MJMATHI-67" x="0" y="0"></use>
<g transform="translate(234,177)">
 <use transform="scale(0.488)" xlink:href="#E1-MJMAIN-5B" x="0" y="0"></use>
 <use transform="scale(0.488)" xlink:href="#E1-MJMAIN-32" x="278" y="0"></use>
 <use transform="scale(0.488)" xlink:href="#E1-MJMAIN-5D" x="778" y="0"></use>
</g>
</g>
</g>
</g>
<g></g>
</g>
<g transform="translate(29296,0)">
 <use xlink:href="#E1-MJMATHI-41" x="0" y="0"></use>
<g transform="translate(750,412)">
 <use transform="scale(0.707)" xlink:href="#E1-MJMAIN-5B" x="0" y="0"></use>
 <use transform="scale(0.707)" xlink:href="#E1-MJMAIN-32" x="278" y="0"></use>
 <use transform="scale(0.707)" xlink:href="#E1-MJMAIN-5D" x="779" y="0"></use>
</g>
</g>
<g transform="translate(31172,0)">
 <use xlink:href="#E1-MJMAIN-2192"></use>
<g></g>
</g>
 <use xlink:href="#E1-MJMAIN-22EF" x="32451" y="0"></use>
</g>
<g transform="translate(0,-2976)">
 <use xlink:href="#E1-MJMAIN-22EF" x="166" y="0"></use>
</g>
</g>
</g>
</g>
</svg>