<svg xmlns:xlink="http://www.w3.org/1999/xlink" width="62.682ex" height="27.843ex" style="font-size: 15px; vertical-align: -13.338ex;" viewBox="0 -6245 26988.1 11987.8" role="img" focusable="false" xmlns="http://www.w3.org/2000/svg">
<defs>
<path stroke-width="1" id="E1-MJMAIN-48" d="M128 622Q121 629 117 631T101 634T58 637H25V683H36Q57 680 180 680Q315 680 324 683H335V637H302Q262 636 251 634T233 622L232 500V378H517V622Q510 629 506 631T490 634T447 637H414V683H425Q446 680 569 680Q704 680 713 683H724V637H691Q651 636 640 634T622 622V61Q628 51 639 49T691 46H724V0H713Q692 3 569 3Q434 3 425 0H414V46H447Q489 47 498 49T517 61V332H232V197L233 61Q239 51 250 49T302 46H335V0H324Q303 3 180 3Q45 3 36 0H25V46H58Q100 47 109 49T128 61V622Z"></path>
<path stroke-width="1" id="E1-MJMAIN-75" d="M383 58Q327 -10 256 -10H249Q124 -10 105 89Q104 96 103 226Q102 335 102 348T96 369Q86 385 36 385H25V408Q25 431 27 431L38 432Q48 433 67 434T105 436Q122 437 142 438T172 441T184 442H187V261Q188 77 190 64Q193 49 204 40Q224 26 264 26Q290 26 311 35T343 58T363 90T375 120T379 144Q379 145 379 161T380 201T380 248V315Q380 361 370 372T320 385H302V431Q304 431 378 436T457 442H464V264Q464 84 465 81Q468 61 479 55T524 46H542V0Q540 0 467 -5T390 -11H383V58Z"></path>
<path stroke-width="1" id="E1-MJMAIN-6D" d="M41 46H55Q94 46 102 60V68Q102 77 102 91T102 122T103 161T103 203Q103 234 103 269T102 328V351Q99 370 88 376T43 385H25V408Q25 431 27 431L37 432Q47 433 65 434T102 436Q119 437 138 438T167 441T178 442H181V402Q181 364 182 364T187 369T199 384T218 402T247 421T285 437Q305 442 336 442Q351 442 364 440T387 434T406 426T421 417T432 406T441 395T448 384T452 374T455 366L457 361L460 365Q463 369 466 373T475 384T488 397T503 410T523 422T546 432T572 439T603 442Q729 442 740 329Q741 322 741 190V104Q741 66 743 59T754 49Q775 46 803 46H819V0H811L788 1Q764 2 737 2T699 3Q596 3 587 0H579V46H595Q656 46 656 62Q657 64 657 200Q656 335 655 343Q649 371 635 385T611 402T585 404Q540 404 506 370Q479 343 472 315T464 232V168V108Q464 78 465 68T468 55T477 49Q498 46 526 46H542V0H534L510 1Q487 2 460 2T422 3Q319 3 310 0H302V46H318Q379 46 379 62Q380 64 380 200Q379 335 378 343Q372 371 358 385T334 402T308 404Q263 404 229 370Q202 343 195 315T187 232V168V108Q187 78 188 68T191 55T200 49Q221 46 249 46H265V0H257L234 1Q210 2 183 2T145 3Q42 3 33 0H25V46H41Z"></path>
<path stroke-width="1" id="E1-MJMAIN-61" d="M137 305T115 305T78 320T63 359Q63 394 97 421T218 448Q291 448 336 416T396 340Q401 326 401 309T402 194V124Q402 76 407 58T428 40Q443 40 448 56T453 109V145H493V106Q492 66 490 59Q481 29 455 12T400 -6T353 12T329 54V58L327 55Q325 52 322 49T314 40T302 29T287 17T269 6T247 -2T221 -8T190 -11Q130 -11 82 20T34 107Q34 128 41 147T68 188T116 225T194 253T304 268H318V290Q318 324 312 340Q290 411 215 411Q197 411 181 410T156 406T148 403Q170 388 170 359Q170 334 154 320ZM126 106Q126 75 150 51T209 26Q247 26 276 49T315 109Q317 116 318 175Q318 233 317 233Q309 233 296 232T251 223T193 203T147 166T126 106Z"></path>
<path stroke-width="1" id="E1-MJMAIN-6E" d="M41 46H55Q94 46 102 60V68Q102 77 102 91T102 122T103 161T103 203Q103 234 103 269T102 328V351Q99 370 88 376T43 385H25V408Q25 431 27 431L37 432Q47 433 65 434T102 436Q119 437 138 438T167 441T178 442H181V402Q181 364 182 364T187 369T199 384T218 402T247 421T285 437Q305 442 336 442Q450 438 463 329Q464 322 464 190V104Q464 66 466 59T477 49Q498 46 526 46H542V0H534L510 1Q487 2 460 2T422 3Q319 3 310 0H302V46H318Q379 46 379 62Q380 64 380 200Q379 335 378 343Q372 371 358 385T334 402T308 404Q263 404 229 370Q202 343 195 315T187 232V168V108Q187 78 188 68T191 55T200 49Q221 46 249 46H265V0H257L234 1Q210 2 183 2T145 3Q42 3 33 0H25V46H41Z"></path>
<path stroke-width="1" id="E1-MJMAIN-4C" d="M128 622Q121 629 117 631T101 634T58 637H25V683H36Q48 680 182 680Q324 680 348 683H360V637H333Q273 637 258 635T233 622L232 342V129Q232 57 237 52Q243 47 313 47Q384 47 410 53Q470 70 498 110T536 221Q536 226 537 238T540 261T542 272T562 273H582V268Q580 265 568 137T554 5V0H25V46H58Q100 47 109 49T128 61V622Z"></path>
<path stroke-width="1" id="E1-MJMAIN-65" d="M28 218Q28 273 48 318T98 391T163 433T229 448Q282 448 320 430T378 380T406 316T415 245Q415 238 408 231H126V216Q126 68 226 36Q246 30 270 30Q312 30 342 62Q359 79 369 104L379 128Q382 131 395 131H398Q415 131 415 121Q415 117 412 108Q393 53 349 21T250 -11Q155 -11 92 58T28 218ZM333 275Q322 403 238 411H236Q228 411 220 410T195 402T166 381T143 340T127 274V267H333V275Z"></path>
<path stroke-width="1" id="E1-MJMAIN-76" d="M338 431Q344 429 422 429Q479 429 503 431H508V385H497Q439 381 423 345Q421 341 356 172T288 -2Q283 -11 263 -11Q244 -11 239 -2Q99 359 98 364Q93 378 82 381T43 385H19V431H25L33 430Q41 430 53 430T79 430T104 429T122 428Q217 428 232 431H240V385H226Q187 384 184 370Q184 366 235 234L286 102L377 341V349Q377 363 367 372T349 383T335 385H331V431H338Z"></path>
<path stroke-width="1" id="E1-MJMAIN-6C" d="M42 46H56Q95 46 103 60V68Q103 77 103 91T103 124T104 167T104 217T104 272T104 329Q104 366 104 407T104 482T104 542T103 586T103 603Q100 622 89 628T44 637H26V660Q26 683 28 683L38 684Q48 685 67 686T104 688Q121 689 141 690T171 693T182 694H185V379Q185 62 186 60Q190 52 198 49Q219 46 247 46H263V0H255L232 1Q209 2 183 2T145 3T107 3T57 1L34 0H26V46H42Z"></path>
<path stroke-width="1" id="E1-MJMAIN-45" d="M128 619Q121 626 117 628T101 631T58 634H25V680H597V676Q599 670 611 560T625 444V440H585V444Q584 447 582 465Q578 500 570 526T553 571T528 601T498 619T457 629T411 633T353 634Q266 634 251 633T233 622Q233 622 233 621Q232 619 232 497V376H286Q359 378 377 385Q413 401 416 469Q416 471 416 473V493H456V213H416V233Q415 268 408 288T383 317T349 328T297 330Q290 330 286 330H232V196V114Q232 57 237 52Q243 47 289 47H340H391Q428 47 452 50T505 62T552 92T584 146Q594 172 599 200T607 247T612 270V273H652V270Q651 267 632 137T610 3V0H25V46H58Q100 47 109 49T128 61V619Z"></path>
<path stroke-width="1" id="E1-MJMAIN-72" d="M36 46H50Q89 46 97 60V68Q97 77 97 91T98 122T98 161T98 203Q98 234 98 269T98 328L97 351Q94 370 83 376T38 385H20V408Q20 431 22 431L32 432Q42 433 60 434T96 436Q112 437 131 438T160 441T171 442H174V373Q213 441 271 441H277Q322 441 343 419T364 373Q364 352 351 337T313 322Q288 322 276 338T263 372Q263 381 265 388T270 400T273 405Q271 407 250 401Q234 393 226 386Q179 341 179 207V154Q179 141 179 127T179 101T180 81T180 66V61Q181 59 183 57T188 54T193 51T200 49T207 48T216 47T225 47T235 46T245 46H276V0H267Q249 3 140 3Q37 3 28 0H20V46H36Z"></path>
<path stroke-width="1" id="E1-MJMAIN-6F" d="M28 214Q28 309 93 378T250 448Q340 448 405 380T471 215Q471 120 407 55T250 -10Q153 -10 91 57T28 214ZM250 30Q372 30 372 193V225V250Q372 272 371 288T364 326T348 362T317 390T268 410Q263 411 252 411Q222 411 195 399Q152 377 139 338T126 246V226Q126 130 145 91Q177 30 250 30Z"></path>
<path stroke-width="1" id="E1-MJMAIN-34" d="M462 0Q444 3 333 3Q217 3 199 0H190V46H221Q241 46 248 46T265 48T279 53T286 61Q287 63 287 115V165H28V211L179 442Q332 674 334 675Q336 677 355 677H373L379 671V211H471V165H379V114Q379 73 379 66T385 54Q393 47 442 46H471V0H462ZM293 211V545L74 212L183 211H293Z"></path>
<path stroke-width="1" id="E1-MJMAIN-25" d="M465 605Q428 605 394 614T340 632T319 641Q332 608 332 548Q332 458 293 403T202 347Q145 347 101 402T56 548Q56 637 101 693T202 750Q241 750 272 719Q359 642 464 642Q580 642 650 732Q662 748 668 749Q670 750 673 750Q682 750 688 743T693 726Q178 -47 170 -52Q166 -56 160 -56Q147 -56 142 -45Q137 -36 142 -27Q143 -24 363 304Q469 462 525 546T581 630Q528 605 465 605ZM207 385Q235 385 263 427T292 548Q292 617 267 664T200 712Q193 712 186 709T167 698T147 668T134 615Q132 595 132 548V527Q132 436 165 403Q183 385 203 385H207ZM500 146Q500 234 544 290T647 347Q699 347 737 292T776 146T737 0T646 -56Q590 -56 545 0T500 146ZM651 -18Q679 -18 707 24T736 146Q736 215 711 262T644 309Q637 309 630 306T611 295T591 265T578 212Q577 200 577 146V124Q577 -18 647 -18H651Z"></path>
<path stroke-width="1" id="E1-MJMAIN-2195" d="M27 492Q17 492 17 511Q17 515 17 517T17 522T19 525T20 528T22 530T26 531T30 532T36 534Q80 545 120 572T180 627Q210 664 223 701T238 755T250 772T261 762Q261 757 264 741T282 691T319 628Q352 589 390 566T454 536L479 529Q483 525 483 511Q483 491 472 491Q467 491 458 494Q342 526 277 623L270 633V-133L277 -123Q307 -77 353 -45T430 -2T473 8Q483 8 483 -11Q483 -15 483 -17T483 -22T481 -25T480 -28T478 -30T474 -31T470 -32T464 -34Q407 -49 364 -84T300 -157T270 -223T261 -262Q259 -272 250 -272Q242 -272 239 -255T223 -201T180 -127Q169 -112 155 -99T125 -76T95 -58T67 -45T44 -36T27 -31L21 -29Q17 -25 17 -11Q17 9 28 9Q33 9 42 6Q158 -26 223 -123L230 -133V633L223 623Q192 577 146 545T70 502T27 492Z"></path>
<path stroke-width="1" id="E1-MJSS-61" d="M236 387Q209 387 184 382T141 370T111 355T91 342T83 337L82 355Q80 373 79 393T77 417Q77 419 81 421Q86 423 91 426Q155 460 227 460H238Q319 460 368 400Q393 371 400 341T408 252Q408 240 408 207T407 152V0H317V39L306 32Q244 -10 159 -10H152Q109 -10 77 22Q38 61 38 126Q38 142 39 146Q55 199 130 223T295 252H314V277Q314 305 313 310Q308 342 287 364T236 387ZM303 186Q124 180 124 126Q124 105 144 86T208 66Q284 66 309 124Q314 137 314 166V186H303Z"></path>
<path stroke-width="1" id="E1-MJSS-76" d="M178 0Q15 441 14 442Q14 444 60 444Q107 444 107 442Q108 441 136 364T196 194T232 67Q233 98 280 234T356 442Q356 444 401 444T446 442L282 0H178Z"></path>
<path stroke-width="1" id="E1-MJSS-6F" d="M28 222Q28 323 95 391T244 460Q275 460 281 459Q364 445 417 377T471 219Q471 124 408 57T250 -10Q158 -10 93 57T28 222ZM377 230Q377 277 364 310T328 358T287 379T248 385Q233 385 219 382T186 369T155 342T132 297T122 230Q122 146 159 108T250 69H253Q263 69 274 70T305 81T339 106T365 154T377 230Z"></path>
<path stroke-width="1" id="E1-MJSS-69" d="M67 576V680H171V576H67ZM74 0V444H164V0H74Z"></path>
<path stroke-width="1" id="E1-MJSS-64" d="M33 224Q33 321 81 388T197 455Q277 455 342 414L351 408V694H441V0H348V44L338 37Q278 -10 198 -10Q177 -10 168 -8Q99 11 62 90Q33 148 33 224ZM348 337Q307 378 263 378Q260 378 256 378T251 379Q239 379 223 374T182 355T142 305T126 220Q126 90 225 67Q231 66 250 66H255Q306 66 342 115L348 124V337Z"></path>
<path stroke-width="1" id="E1-MJSS-62" d="M303 -11Q280 -11 259 -6T222 6T194 21T176 33T168 38V0H75V694H165V550L166 405Q247 455 336 455Q397 455 439 389T482 226Q482 115 428 52T303 -11ZM390 221Q390 283 361 331T265 379Q214 379 177 342L168 334V118Q203 66 258 66Q316 66 353 106T390 221Z"></path>
<path stroke-width="1" id="E1-MJSS-6C" d="M74 0V694H164V0H74Z"></path>
<path stroke-width="1" id="E1-MJSS-65" d="M28 226Q28 329 91 395T235 461Q258 461 279 456T325 436T368 397T399 332T415 238V219H113V215Q113 163 151 114T248 65Q273 65 298 70T341 82T373 96T396 108L403 113Q403 106 406 76T409 38Q409 34 408 33T393 24Q325 -10 252 -10Q155 -10 92 59T28 226ZM340 289L338 297Q335 305 333 310T327 326T317 343T304 358T286 372T263 381T233 385Q212 385 193 376T162 353T140 325T127 301T123 289H340Z"></path>
<path stroke-width="1" id="E1-MJSS-73" d="M33 326Q33 376 60 408T117 450T175 460H190Q245 460 272 454T345 429Q345 428 338 388L331 349Q278 386 188 386H183Q119 386 119 336Q119 307 142 295T210 276T278 256Q360 213 360 130Q360 108 354 88T332 43T281 5T195 -10Q152 -10 111 1T49 22T28 35Q29 36 32 56T39 95T43 115T51 110T72 99T102 85T143 73T193 68Q274 68 274 123Q274 152 248 167Q234 178 187 186T115 207Q66 229 46 273Q33 298 33 326Z"></path>
<path stroke-width="1" id="E1-MJMAIN-54" d="M36 443Q37 448 46 558T55 671V677H666V671Q667 666 676 556T685 443V437H645V443Q645 445 642 478T631 544T610 593Q593 614 555 625Q534 630 478 630H451H443Q417 630 414 618Q413 616 413 339V63Q420 53 439 50T528 46H558V0H545L361 3Q186 1 177 0H164V46H194Q264 46 283 49T309 63V339V550Q309 620 304 625T271 630H244H224Q154 630 119 601Q101 585 93 554T81 486T76 443V437H36V443Z"></path>
<path stroke-width="1" id="E1-MJMAIN-69" d="M69 609Q69 637 87 653T131 669Q154 667 171 652T188 609Q188 579 171 564T129 549Q104 549 87 564T69 609ZM247 0Q232 3 143 3Q132 3 106 3T56 1L34 0H26V46H42Q70 46 91 49Q100 53 102 60T104 102V205V293Q104 345 102 359T88 378Q74 385 41 385H30V408Q30 431 32 431L42 432Q52 433 70 434T106 436Q123 437 142 438T171 441T182 442H185V62Q190 52 197 50T232 46H255V0H247Z"></path>
<path stroke-width="1" id="E1-MJMAIN-67" d="M329 409Q373 453 429 453Q459 453 472 434T485 396Q485 382 476 371T449 360Q416 360 412 390Q410 404 415 411Q415 412 416 414V415Q388 412 363 393Q355 388 355 386Q355 385 359 381T368 369T379 351T388 325T392 292Q392 230 343 187T222 143Q172 143 123 171Q112 153 112 133Q112 98 138 81Q147 75 155 75T227 73Q311 72 335 67Q396 58 431 26Q470 -13 470 -72Q470 -139 392 -175Q332 -206 250 -206Q167 -206 107 -175Q29 -140 29 -75Q29 -39 50 -15T92 18L103 24Q67 55 67 108Q67 155 96 193Q52 237 52 292Q52 355 102 398T223 442Q274 442 318 416L329 409ZM299 343Q294 371 273 387T221 404Q192 404 171 388T145 343Q142 326 142 292Q142 248 149 227T179 192Q196 182 222 182Q244 182 260 189T283 207T294 227T299 242Q302 258 302 292T299 343ZM403 -75Q403 -50 389 -34T348 -11T299 -2T245 0H218Q151 0 138 -6Q118 -15 107 -34T95 -74Q95 -84 101 -97T122 -127T170 -155T250 -167Q319 -167 361 -139T403 -75Z"></path>
<path stroke-width="1" id="E1-MJMAIN-53" d="M55 507Q55 590 112 647T243 704H257Q342 704 405 641L426 672Q431 679 436 687T446 700L449 704Q450 704 453 704T459 705H463Q466 705 472 699V462L466 456H448Q437 456 435 459T430 479Q413 605 329 646Q292 662 254 662Q201 662 168 626T135 542Q135 508 152 480T200 435Q210 431 286 412T370 389Q427 367 463 314T500 191Q500 110 448 45T301 -21Q245 -21 201 -4T140 27L122 41Q118 36 107 21T87 -7T78 -21Q76 -22 68 -22H64Q61 -22 55 -16V101Q55 220 56 222Q58 227 76 227H89Q95 221 95 214Q95 182 105 151T139 90T205 42T305 24Q352 24 386 62T420 155Q420 198 398 233T340 281Q284 295 266 300Q261 301 239 306T206 314T174 325T141 343T112 367T85 402Q55 451 55 507Z"></path>
<path stroke-width="1" id="E1-MJMAIN-74" d="M27 422Q80 426 109 478T141 600V615H181V431H316V385H181V241Q182 116 182 100T189 68Q203 29 238 29Q282 29 292 100Q293 108 293 146V181H333V146V134Q333 57 291 17Q264 -10 221 -10Q187 -10 162 2T124 33T105 68T98 100Q97 107 97 248V385H18V422H27Z"></path>
<path stroke-width="1" id="E1-MJMAIN-37" d="M55 458Q56 460 72 567L88 674Q88 676 108 676H128V672Q128 662 143 655T195 646T364 644H485V605L417 512Q408 500 387 472T360 435T339 403T319 367T305 330T292 284T284 230T278 162T275 80Q275 66 275 52T274 28V19Q270 2 255 -10T221 -22Q210 -22 200 -19T179 0T168 40Q168 198 265 368Q285 400 349 489L395 552H302Q128 552 119 546Q113 543 108 522T98 479L95 458V455H55V458Z"></path>
<path stroke-width="1" id="E1-MJSS-72" d="M171 389Q237 455 320 455H327V373H317Q262 369 220 336T167 248Q165 239 164 119V0H74V450H159V377L171 389Z"></path>
<path stroke-width="1" id="E1-MJSS-6E" d="M160 392Q214 446 283 454Q285 454 292 454T303 455H306Q417 455 438 354Q442 331 443 164V0H350V157Q349 315 348 320Q334 378 259 378H253Q224 378 204 358Q180 334 173 301T165 209Q165 198 165 172T166 129V0H73V450H160V392Z"></path>
<path stroke-width="1" id="E1-MJSS-63" d="M34 223Q34 327 99 393T245 460Q290 460 301 459Q328 455 354 445T395 427T410 415L396 338L386 344Q377 349 362 357T335 370Q305 381 258 381H252Q182 381 146 315Q126 275 126 224Q126 158 159 113T255 68Q329 68 394 106L408 114L410 93Q411 72 412 52L414 32Q407 27 394 20T338 2T252 -10Q156 -10 95 58T34 223Z"></path>
<path stroke-width="1" id="E1-MJMAIN-2D" d="M11 179V252H277V179H11Z"></path>
<path stroke-width="1" id="E1-MJMAIN-44" d="M130 622Q123 629 119 631T103 634T60 637H27V683H228Q399 682 419 682T461 676Q504 667 546 641T626 573T685 470T708 336Q708 210 634 116T442 3Q429 1 228 0H27V46H60Q102 47 111 49T130 61V622ZM593 338Q593 439 571 501T493 602Q439 637 355 637H322H294Q238 637 234 628Q231 624 231 344Q231 62 232 59Q233 49 248 48T339 46H350Q456 46 515 95Q561 133 577 191T593 338Z"></path>
<path stroke-width="1" id="E1-MJMAIN-31" d="M213 578L200 573Q186 568 160 563T102 556H83V602H102Q149 604 189 617T245 641T273 663Q275 666 285 666Q294 666 302 660V361L303 61Q310 54 315 52T339 48T401 46H427V0H416Q395 3 257 3Q121 3 100 0H88V46H114Q136 46 152 46T177 47T193 50T201 52T207 57T213 61V578Z"></path>
<path stroke-width="1" id="E1-MJMAIN-30" d="M96 585Q152 666 249 666Q297 666 345 640T423 548Q460 465 460 320Q460 165 417 83Q397 41 362 16T301 -15T250 -22Q224 -22 198 -16T137 16T82 83Q39 165 39 320Q39 494 96 585ZM321 597Q291 629 250 629Q208 629 178 597Q153 571 145 525T137 333Q137 175 145 125T181 46Q209 16 250 16Q290 16 318 46Q347 76 354 130T362 333Q362 478 354 524T321 597Z"></path>
<path stroke-width="1" id="E1-MJSS-74" d="M333 27Q333 24 314 16T257 -1T184 -10H172Q146 -10 128 14T105 58T99 91Q95 113 95 251V371H18V444H98V571H182V444H316V371H182V253Q183 128 189 104Q199 68 234 68Q277 72 314 98Q315 93 323 61T333 27Z"></path>
<path stroke-width="1" id="E1-MJSS-6D" d="M160 392Q223 455 304 455Q359 455 386 436T430 383L437 391Q495 455 584 455Q694 455 715 354Q719 331 720 164V0H627V157Q626 315 625 320Q611 378 536 378H530Q501 378 481 358Q457 334 450 301T442 209Q442 198 442 172T443 129V0H350V157Q349 315 348 320Q334 378 259 378H253Q224 378 204 358Q180 334 173 301T165 209Q165 198 165 172T166 129V0H73V450H160V392Z"></path>
<path stroke-width="1" id="E1-MJSS-68" d="M163 395Q223 455 307 455Q417 455 438 354Q442 331 443 164V0H350V157Q349 315 348 320Q334 378 259 378H253Q224 378 204 358Q180 334 173 301T165 209Q165 198 165 172T166 129V0H73V694H163V395Z"></path>
<path stroke-width="1" id="E1-MJMAIN-36" d="M42 313Q42 476 123 571T303 666Q372 666 402 630T432 550Q432 525 418 510T379 495Q356 495 341 509T326 548Q326 592 373 601Q351 623 311 626Q240 626 194 566Q147 500 147 364L148 360Q153 366 156 373Q197 433 263 433H267Q313 433 348 414Q372 400 396 374T435 317Q456 268 456 210V192Q456 169 451 149Q440 90 387 34T253 -22Q225 -22 199 -14T143 16T92 75T56 172T42 313ZM257 397Q227 397 205 380T171 335T154 278T148 216Q148 133 160 97T198 39Q222 21 251 21Q302 21 329 59Q342 77 347 104T352 209Q352 289 347 316T329 361Q302 397 257 397Z"></path>
<path stroke-width="1" id="E1-MJSS-67" d="M55 286Q55 357 105 406T224 455Q280 455 323 421L322 423L318 427Q318 428 339 434T396 448T465 455H471L478 416L485 377Q484 377 474 379T445 383T401 385Q397 385 391 385T381 384L362 383L357 387Q358 386 364 375T375 354T384 325T389 287Q389 217 340 168T221 119Q178 119 138 142Q133 145 131 143Q125 131 125 117Q125 82 155 72L227 71Q230 71 251 71T280 71T310 69T343 65T373 57T403 46T428 30T449 7Q471 -26 471 -62V-71Q471 -136 384 -178Q326 -206 250 -206Q159 -206 102 -172T30 -92Q28 -84 28 -68T31 -37T40 -12T52 7T64 21T75 31T82 38Q60 68 60 106Q60 145 80 180L86 189L80 199Q55 240 55 286ZM304 233T304 287T279 362T220 383Q189 383 165 361T140 287Q140 243 161 217T220 191Q253 191 278 212ZM250 -134Q298 -134 331 -122T375 -96T387 -69Q387 -21 306 -7Q288 -5 216 -5Q161 -5 153 -7Q146 -9 139 -13T122 -31T113 -66Q113 -75 113 -80T127 -97T166 -121Q203 -134 250 -134Z"></path>
<path stroke-width="1" id="E1-MJSS-66" d="M262 705H267Q300 705 347 694V612L336 616Q303 628 274 628H266Q224 628 199 605Q187 590 184 579T181 541V507V444H287V371H184V0H94V371H27V444H94V492Q94 544 95 550Q102 617 151 661T262 705Z"></path>
<path stroke-width="1" id="E1-MJMAIN-73" d="M295 316Q295 356 268 385T190 414Q154 414 128 401Q98 382 98 349Q97 344 98 336T114 312T157 287Q175 282 201 278T245 269T277 256Q294 248 310 236T342 195T359 133Q359 71 321 31T198 -10H190Q138 -10 94 26L86 19L77 10Q71 4 65 -1L54 -11H46H42Q39 -11 33 -5V74V132Q33 153 35 157T45 162H54Q66 162 70 158T75 146T82 119T101 77Q136 26 198 26Q295 26 295 104Q295 133 277 151Q257 175 194 187T111 210Q75 227 54 256T33 318Q33 357 50 384T93 424T143 442T187 447H198Q238 447 268 432L283 424L292 431Q302 440 314 448H322H326Q329 448 335 442V310L329 304H301Q295 310 295 316Z"></path>
</defs>
<g stroke="currentColor" fill="currentColor" stroke-width="0" transform="matrix(1 0 0 -1 0 0)">
<g transform="translate(167,0)">
<g transform="translate(-11,0)">
<g transform="translate(1728,5303)">
 <use xlink:href="#E1-MJMAIN-48"></use>
 <use xlink:href="#E1-MJMAIN-75" x="750" y="0"></use>
 <use xlink:href="#E1-MJMAIN-6D" x="1307" y="0"></use>
 <use xlink:href="#E1-MJMAIN-61" x="2140" y="0"></use>
 <use xlink:href="#E1-MJMAIN-6E" x="2641" y="0"></use>
 <use xlink:href="#E1-MJMAIN-4C" x="3447" y="0"></use>
 <use xlink:href="#E1-MJMAIN-65" x="4073" y="0"></use>
 <use xlink:href="#E1-MJMAIN-76" x="4517" y="0"></use>
 <use xlink:href="#E1-MJMAIN-65" x="5046" y="0"></use>
 <use xlink:href="#E1-MJMAIN-6C" x="5490" y="0"></use>
 <use xlink:href="#E1-MJMAIN-45" x="6019" y="0"></use>
 <use xlink:href="#E1-MJMAIN-72" x="6700" y="0"></use>
 <use xlink:href="#E1-MJMAIN-72" x="7093" y="0"></use>
 <use xlink:href="#E1-MJMAIN-6F" x="7485" y="0"></use>
 <use xlink:href="#E1-MJMAIN-72" x="7986" y="0"></use>
</g>
<g transform="translate(2071,2630)">
 <use xlink:href="#E1-MJMAIN-54"></use>
 <use xlink:href="#E1-MJMAIN-72" x="722" y="0"></use>
 <use xlink:href="#E1-MJMAIN-61" x="1115" y="0"></use>
 <use xlink:href="#E1-MJMAIN-69" x="1615" y="0"></use>
 <use xlink:href="#E1-MJMAIN-6E" x="1894" y="0"></use>
 <use xlink:href="#E1-MJMAIN-69" x="2450" y="0"></use>
 <use xlink:href="#E1-MJMAIN-6E" x="2729" y="0"></use>
 <use xlink:href="#E1-MJMAIN-67" x="3285" y="0"></use>
 <use xlink:href="#E1-MJMAIN-53" x="4036" y="0"></use>
 <use xlink:href="#E1-MJMAIN-65" x="4592" y="0"></use>
 <use xlink:href="#E1-MJMAIN-74" x="5037" y="0"></use>
 <use xlink:href="#E1-MJMAIN-45" x="5676" y="0"></use>
 <use xlink:href="#E1-MJMAIN-72" x="6358" y="0"></use>
 <use xlink:href="#E1-MJMAIN-72" x="6750" y="0"></use>
 <use xlink:href="#E1-MJMAIN-6F" x="7143" y="0"></use>
 <use xlink:href="#E1-MJMAIN-72" x="7643" y="0"></use>
</g>
<g transform="translate(0,-50)">
 <use xlink:href="#E1-MJMAIN-54"></use>
 <use xlink:href="#E1-MJMAIN-72" x="722" y="0"></use>
 <use xlink:href="#E1-MJMAIN-61" x="1115" y="0"></use>
 <use xlink:href="#E1-MJMAIN-69" x="1615" y="0"></use>
 <use xlink:href="#E1-MJMAIN-6E" x="1894" y="0"></use>
 <use xlink:href="#E1-MJMAIN-69" x="2450" y="0"></use>
 <use xlink:href="#E1-MJMAIN-6E" x="2729" y="0"></use>
 <use xlink:href="#E1-MJMAIN-67" x="3285" y="0"></use>
 <use xlink:href="#E1-MJMAIN-2D" x="3786" y="0"></use>
 <use xlink:href="#E1-MJMAIN-44" x="4119" y="0"></use>
 <use xlink:href="#E1-MJMAIN-65" x="4884" y="0"></use>
 <use xlink:href="#E1-MJMAIN-76" x="5328" y="0"></use>
 <use xlink:href="#E1-MJMAIN-53" x="6107" y="0"></use>
 <use xlink:href="#E1-MJMAIN-65" x="6663" y="0"></use>
 <use xlink:href="#E1-MJMAIN-74" x="7108" y="0"></use>
 <use xlink:href="#E1-MJMAIN-45" x="7747" y="0"></use>
 <use xlink:href="#E1-MJMAIN-72" x="8429" y="0"></use>
 <use xlink:href="#E1-MJMAIN-72" x="8821" y="0"></use>
 <use xlink:href="#E1-MJMAIN-6F" x="9214" y="0"></use>
 <use xlink:href="#E1-MJMAIN-72" x="9714" y="0"></use>
</g>
<g transform="translate(4119,-2730)">
 <use xlink:href="#E1-MJMAIN-44"></use>
 <use xlink:href="#E1-MJMAIN-65" x="764" y="0"></use>
 <use xlink:href="#E1-MJMAIN-76" x="1209" y="0"></use>
 <use xlink:href="#E1-MJMAIN-53" x="1987" y="0"></use>
 <use xlink:href="#E1-MJMAIN-65" x="2544" y="0"></use>
 <use xlink:href="#E1-MJMAIN-74" x="2988" y="0"></use>
 <use xlink:href="#E1-MJMAIN-45" x="3628" y="0"></use>
 <use xlink:href="#E1-MJMAIN-72" x="4309" y="0"></use>
 <use xlink:href="#E1-MJMAIN-72" x="4702" y="0"></use>
 <use xlink:href="#E1-MJMAIN-6F" x="5094" y="0"></use>
 <use xlink:href="#E1-MJMAIN-72" x="5595" y="0"></use>
</g>
<g transform="translate(3906,-5403)">
 <use xlink:href="#E1-MJMAIN-54"></use>
 <use xlink:href="#E1-MJMAIN-65" x="722" y="0"></use>
 <use xlink:href="#E1-MJMAIN-73" x="1167" y="0"></use>
 <use xlink:href="#E1-MJMAIN-74" x="1561" y="0"></use>
 <use xlink:href="#E1-MJMAIN-53" x="2201" y="0"></use>
 <use xlink:href="#E1-MJMAIN-65" x="2757" y="0"></use>
 <use xlink:href="#E1-MJMAIN-74" x="3202" y="0"></use>
 <use xlink:href="#E1-MJMAIN-45" x="3841" y="0"></use>
 <use xlink:href="#E1-MJMAIN-72" x="4523" y="0"></use>
 <use xlink:href="#E1-MJMAIN-72" x="4915" y="0"></use>
 <use xlink:href="#E1-MJMAIN-6F" x="5308" y="0"></use>
 <use xlink:href="#E1-MJMAIN-72" x="5808" y="0"></use>
</g>
</g>
<g transform="translate(10096,0)">
<g transform="translate(0,5303)">
 <use xlink:href="#E1-MJMAIN-34" x="1000" y="0"></use>
 <use xlink:href="#E1-MJMAIN-25" x="1500" y="0"></use>
</g>
<g transform="translate(0,4003)">
 <use xlink:href="#E1-MJMAIN-2195" x="1277" y="0"></use>
<g transform="translate(4056,0)">
 <use xlink:href="#E1-MJSS-61"></use>
 <use xlink:href="#E1-MJSS-76" x="481" y="0"></use>
 <use xlink:href="#E1-MJSS-6F" x="943" y="0"></use>
 <use xlink:href="#E1-MJSS-69" x="1443" y="0"></use>
 <use xlink:href="#E1-MJSS-64" x="1683" y="0"></use>
 <use xlink:href="#E1-MJSS-61" x="2200" y="0"></use>
 <use xlink:href="#E1-MJSS-62" x="2682" y="0"></use>
 <use xlink:href="#E1-MJSS-6C" x="3199" y="0"></use>
 <use xlink:href="#E1-MJSS-65" x="3439" y="0"></use>
 <use xlink:href="#E1-MJSS-62" x="4133" y="0"></use>
 <use xlink:href="#E1-MJSS-69" x="4651" y="0"></use>
 <use xlink:href="#E1-MJSS-61" x="4890" y="0"></use>
 <use xlink:href="#E1-MJSS-73" x="5372" y="0"></use>
</g>
</g>
<g transform="translate(0,2630)">
 <use xlink:href="#E1-MJMAIN-37" x="1000" y="0"></use>
 <use xlink:href="#E1-MJMAIN-25" x="1500" y="0"></use>
</g>
<g transform="translate(0,1323)">
 <use xlink:href="#E1-MJMAIN-2195" x="1277" y="0"></use>
<g transform="translate(4056,0)">
 <use xlink:href="#E1-MJSS-76"></use>
 <use xlink:href="#E1-MJSS-61" x="461" y="0"></use>
 <use xlink:href="#E1-MJSS-72" x="943" y="0"></use>
 <use xlink:href="#E1-MJSS-69" x="1285" y="0"></use>
 <use xlink:href="#E1-MJSS-61" x="1525" y="0"></use>
 <use xlink:href="#E1-MJSS-6E" x="2006" y="0"></use>
 <use xlink:href="#E1-MJSS-63" x="2524" y="0"></use>
 <use xlink:href="#E1-MJSS-65" x="2968" y="0"></use>
</g>
</g>
<g transform="translate(0,-50)">
<g transform="translate(1000,0)">
 <use xlink:href="#E1-MJMAIN-31"></use>
 <use xlink:href="#E1-MJMAIN-30" x="500" y="0"></use>
</g>
 <use xlink:href="#E1-MJMAIN-25" x="2001" y="0"></use>
</g>
<g transform="translate(0,-1357)">
 <use xlink:href="#E1-MJMAIN-2195" x="1277" y="0"></use>
<g transform="translate(4056,0)">
 <use xlink:href="#E1-MJSS-64"></use>
 <use xlink:href="#E1-MJSS-61" x="517" y="0"></use>
 <use xlink:href="#E1-MJSS-74" x="999" y="0"></use>
 <use xlink:href="#E1-MJSS-61" x="1360" y="0"></use>
 <use xlink:href="#E1-MJSS-6D" x="2092" y="0"></use>
 <use xlink:href="#E1-MJSS-69" x="2886" y="0"></use>
 <use xlink:href="#E1-MJSS-73" x="3126" y="0"></use>
 <use xlink:href="#E1-MJSS-6D" x="3509" y="0"></use>
 <use xlink:href="#E1-MJSS-61" x="4304" y="0"></use>
 <use xlink:href="#E1-MJSS-74" x="4785" y="0"></use>
 <use xlink:href="#E1-MJSS-63" x="5147" y="0"></use>
 <use xlink:href="#E1-MJSS-68" x="5591" y="0"></use>
</g>
</g>
<g transform="translate(0,-2730)">
 <use xlink:href="#E1-MJMAIN-36" x="1000" y="0"></use>
 <use xlink:href="#E1-MJMAIN-25" x="1500" y="0"></use>
</g>
<g transform="translate(0,-4030)">
 <use xlink:href="#E1-MJMAIN-2195" x="1277" y="0"></use>
<g transform="translate(4056,0)">
 <use xlink:href="#E1-MJSS-64"></use>
 <use xlink:href="#E1-MJSS-65" x="517" y="0"></use>
 <use xlink:href="#E1-MJSS-67" x="962" y="0"></use>
 <use xlink:href="#E1-MJSS-72" x="1462" y="0"></use>
 <use xlink:href="#E1-MJSS-65" x="1805" y="0"></use>
 <use xlink:href="#E1-MJSS-65" x="2249" y="0"></use>
 <use xlink:href="#E1-MJSS-6F" x="2944" y="0"></use>
 <use xlink:href="#E1-MJSS-66" x="3444" y="0"></use>
 <use xlink:href="#E1-MJSS-6F" x="4001" y="0"></use>
 <use xlink:href="#E1-MJSS-76" x="4501" y="0"></use>
 <use xlink:href="#E1-MJSS-65" x="4963" y="0"></use>
 <use xlink:href="#E1-MJSS-72" x="5407" y="0"></use>
 <use xlink:href="#E1-MJSS-66" x="5750" y="0"></use>
 <use xlink:href="#E1-MJSS-69" x="6056" y="0"></use>
 <use xlink:href="#E1-MJSS-74" x="6296" y="0"></use>
 <use xlink:href="#E1-MJSS-74" x="6657" y="0"></use>
 <use xlink:href="#E1-MJSS-69" x="7019" y="0"></use>
 <use xlink:href="#E1-MJSS-6E" x="7258" y="0"></use>
 <use xlink:href="#E1-MJSS-67" x="7776" y="0"></use>
 <use xlink:href="#E1-MJSS-74" x="8526" y="0"></use>
 <use xlink:href="#E1-MJSS-6F" x="8888" y="0"></use>
 <use xlink:href="#E1-MJSS-64" x="9638" y="0"></use>
 <use xlink:href="#E1-MJSS-65" x="10156" y="0"></use>
 <use xlink:href="#E1-MJSS-76" x="10600" y="0"></use>
 <use xlink:href="#E1-MJSS-73" x="11312" y="0"></use>
 <use xlink:href="#E1-MJSS-65" x="11695" y="0"></use>
 <use xlink:href="#E1-MJSS-74" x="12140" y="0"></use>
</g>
</g>
<g transform="translate(0,-5403)">
 <use xlink:href="#E1-MJMAIN-36" x="1000" y="0"></use>
 <use xlink:href="#E1-MJMAIN-25" x="1500" y="0"></use>
</g>
</g>
</g>
</g>
</svg>