<?xml version="1.0" encoding="UTF-8" standalone="no"?>
<!-- Copyright 2017 mathsisfun.com -->
<svg xmlns="http://www.w3.org/2000/svg" xmlns:xlink="http://www.w3.org/1999/xlink" width="260.8" height="162.3" version="1.1">
<defs>
<pattern height="478" width="227.1" patternUnits="userSpaceOnUse" patternTransform="matrix(0.82659,-0.5628046,0.5628046,0.82659,1365.417,4872.8044)">
<image x="-227.1" y="0" width="227.1" height="478" transform="scale(-1,1)" xlink:href="file:///C:/Images/SVG/Banana.jpg"/>
</pattern>
<marker id="id1" style="overflow:visible;" orient="auto">
<path transform="matrix(-0.4,0,0,-0.4,-4,0)" style="stroke:black; stroke-width:1pt;" d="M 0,0 5,-5 -12.5,0 5,5 Z"/>
</marker>
</defs>
<g transform="translate(489.853,-1572.77)">
<rect x="-489.9" y="1572.8" width="260.8" height="162.3" style="color:black; overflow:visible; fill:white; stroke-width:4.73;"/>
<g transform="matrix(0.3553,0,0,0.354959,-416.911,1358.57)">
<g transform="translate(-853.459,49.8897)">
<g style="fill:none; stroke:#d8dadc; stroke-width:2.98; stroke-dasharray:23.9, 3;">
<g>
<path d="M 924.1,601.7 H 1450.8"/>
<path d="M 924.1,535.6 H 1450.8"/>
<path d="M 924.1,469.4 H 1450.8"/>
<path d="M 924.1,403.3 H 1450.8"/>
<path d="M 924.1,932.5 H 1450.8"/>
<path d="M 924.1,800.2 H 1450.8"/>
<path d="M 924.1,734 H 1450.8"/>
<path d="M 924.1,667.9 H 1450.8"/>
<path d="M 926.5,866.3 H 1453.2"/>
</g>
</g>
</g>
<g transform="rotate(-90,786.875,1119.55)">
<g style="fill:none; stroke:#d8dadc; stroke-width:2.98; stroke-dasharray:23.9, 3;">
<g>
<path d="M 924.1,601.7 H 1450.8"/>
<path d="M 924.1,535.6 H 1450.8"/>
<path d="M 924.1,469.4 H 1450.8"/>
<path d="M 924.1,403.3 H 1450.8"/>
<path d="M 924.1,932.5 H 1450.8"/>
<path d="M 924.1,800.2 H 1450.8"/>
<path d="M 924.1,734 H 1450.8"/>
<path d="M 924.1,667.9 H 1450.8"/>
<path d="M 926.5,866.3 H 1453.2"/>
</g>
</g>
</g>
</g>
<path style="marker-end:url(#id1); fill:#2e3436; fill-opacity:0.75; stroke:#2e3436; stroke-width:1.59;" d="m -455,1707.2 h 222.2"/>
<path style="marker-end:url(#id1); fill:#2e3436; fill-opacity:0.75; stroke:#2e3436; stroke-width:1.59;" d="M -392,1734.9 V 1579.1"/>
<text x="-249.7" y="1725.4" transform="scale(1.00048,0.999521)" style="font-family:'Comic Sans MS'; font-weight:bold; font-size:23.5px; font-style:italic; overflow:visible; fill:black; stroke-width:0.53px;">x</text>
<text x="-359.5" y="1722.7" transform="scale(1.00048,0.999521)" style="font-family:'Comic Sans MS'; font-size:20.4px; overflow:visible; fill:#f44800; stroke-width:1.17;">x</text>
<text x="-348.4" y="1727.3" transform="scale(1.00048,0.999521)" style="font-family:'Comic Sans MS'; font-size:13.5px; overflow:visible; fill:#f44800; stroke-width:1.59;">1</text>
<path style="overflow:visible; fill:none; stroke:#0197fd; stroke-width:2.65; stroke-linecap:round;" d="m -453.3,1694.9 c 0,0 76.9,-31.9 97.8,-48.9 21,-17 48.6,-35.1 66.9,-12.3 18.4,22.8 24.3,37.7 58.7,56.1 34.4,18.5 67.6,98.2 67.6,98.2"/>
<text x="-285" y="1722.4" transform="scale(1.00048,0.999521)" style="font-family:'Comic Sans MS'; font-size:20.4px; overflow:visible; fill:#f44800; stroke-width:1.17;">x</text>
<text x="-273.9" y="1727" transform="scale(1.00048,0.999521)" style="font-family:'Comic Sans MS'; font-size:13.5px; overflow:visible; fill:#f44800; stroke-width:1.59;">2</text>
<path style="overflow:visible; fill:none; stroke:#121513; stroke-width:1.8; stroke-dasharray:1.8, 3.6;" d="m -353.9,1707.4 v -61.2 h -37.2"/>
<path style="overflow:visible; fill:none; stroke:#121513; stroke-width:1.8; stroke-dasharray:1.8, 3.6;" d="m -278.8,1706.8 v -60.3 h -75.4"/>
<text x="-409.3" y="1590.7" transform="scale(1.00048,0.999521)" style="font-family:'Comic Sans MS'; font-weight:bold; font-size:23.5px; font-style:italic; overflow:visible; fill:black; stroke-width:0.53px;">y</text>
<text x="-330.7" y="1816.5" transform="scale(1.00048,0.999521)" style="font-family:'Comic Sans MS'; text-align:center; text-anchor:middle; font-size:20.2px; color:black; overflow:visible; fill:#fb8b00; stroke-width:2.23;">General Function</text>
<ellipse cx="-354.3" cy="1645.8" rx="3.3" ry="3.3" style="overflow:visible; fill:#f0a513; stroke:#fdca01; stroke-width:2.38;"/>
<ellipse cx="-278.5" cy="1646.3" rx="3.3" ry="3.3" style="overflow:visible; fill:#f0a513; stroke:#fdca01; stroke-width:2.38;"/>
<text x="-464.3" y="1633.3" style="font-family:'Comic Sans MS'; font-size:20px; font-style:italic; color:black; overflow:visible; fill:#013397; stroke-width:1px;">can be</text>
<text x="-450" y="1649.4" style="font-family:'Comic Sans MS'; font-size:20px; font-style:italic; color:black; overflow:visible; fill:#013397; stroke-width:1px;">same!</text>
</g>
</svg>
