<?xml version="1.0" encoding="UTF-8" standalone="no"?>
<!-- Copyright 2017 mathsisfun.com -->
<svg xmlns="http://www.w3.org/2000/svg" xmlns:xlink="http://www.w3.org/1999/xlink" width="297.2" height="166.7" version="1.1">
<defs>
<marker id="id4" style="overflow:visible;" orient="auto">
<path transform="scale(0.4) rotate(180) translate(10,0)" style="fill:#0084c8; stroke:#0084c8; stroke-width:1pt;" d="M 0,0 L 5,-5 L -12.5,0 L 5,5 L 0,0 z "/>
</marker>
<marker id="id5" style="overflow:visible;" orient="auto">
<path transform="scale(0.4) rotate(180) translate(10,0)" style="fill:#ff9900; stroke:#ff9900; stroke-width:1pt;" d="M 0,0 L 5,-5 L -12.5,0 L 5,5 L 0,0 z "/>
</marker>
<linearGradient id="id1">
<stop offset="0" style="stop-color:white; stop-opacity:1;"/>
<stop offset="1" style="stop-color:#edd400; stop-opacity:1;"/>
</linearGradient>
<linearGradient id="id2">
<stop offset="0" style="stop-color:white; stop-opacity:1;"/>
<stop offset="1" style="stop-color:#07a6ff; stop-opacity:1;"/>
</linearGradient>
<marker id="id3" style="overflow:visible;" orient="auto">
<path transform="matrix(-0.4,0,0,-0.4,-4,0)" style="stroke:black; stroke-width:1pt;" d="M 0,0 5,-5 -12.5,0 5,5 0,0 Z"/>
</marker>
</defs>
<linearGradient gradientTransform="scale(4.560702,0.219265)" x1="0" y1="114" x2="228" y2="114" gradientUnits="userSpaceOnUse">
<stop offset="0" style="stop-color:indigo;"/>
<stop offset="25%" style="stop-color:blue;"/>
<stop offset="100%" style="stop-color:white;"/>
</linearGradient>
<filter>
<feGaussianBlur stdDeviation="5"/>
</filter>
<path style="fill:none; fill-opacity:0.75; stroke:#d8dadc; stroke-width:0.82; stroke-dasharray:6.5, 0.8;" d="m 189,140.4 0,-121.4"/>
<path style="fill:none; fill-opacity:0.75; stroke:#d8dadc; stroke-width:0.82; stroke-dasharray:6.5, 0.8;" d="m 53.9,79.5 225.8,0"/>
<path style="fill:none; fill-opacity:0.75; stroke:#d8dadc; stroke-width:0.82; stroke-dasharray:6.5, 0.8;" d="m 53.9,49 225.8,0"/>
<path style="fill:none; fill-opacity:0.75; stroke:#3465a4; stroke-width:2.16;" d="m 146.1,44.5 c 0.2,0 0.3,0 0.5,0 22.4,0.5 51,50.2 72.3,50 0,0 0,0 0.1,0"/>
<path style="marker-end:url(#id3); fill:#2e3436; fill-opacity:0.75; stroke:#2e3436; stroke-width:1.22;" d="m 53.9,140.5 240.9,0"/>
<path style="marker-end:url(#id3); fill:#2e3436; fill-opacity:0.75; stroke:#2e3436; stroke-width:1.22;" d="m 54.3,140.4 0,-138"/>
<g style="fill:none; fill-opacity:0.75; stroke:#d8dadc; stroke-width:0.82; stroke-dasharray:6.5, 0.8;">
<g>
<path d="m 53.9,110 225.8,0"/>
<path d="m 53.9,18.4 225.8,0"/>
<path d="m 99.2,140.4 0,-121.4"/>
<path d="m 144.1,140.4 0,-121.4"/>
<path d="m 233.9,140.4 0,-121.4"/>
<path d="m 278.8,140.4 0,-121.4"/>
</g>
</g>
<path style="fill:none; fill-opacity:0.75; stroke:black; stroke-width:0.41px;" d="M 176.4,69.8 V 140.9"/>
<path style="fill:none; fill-opacity:0.75; stroke:black; stroke-width:0.41px;" d="M 170,63.2 H 54.7"/>
<text x="278.6" y="158.5" style="font-family:'Times New Roman'; font-weight:bold; font-size:22.9px; font-style:italic; color:black; overflow:visible; fill:black; stroke-width:1px;">x</text>
<text x="10.7" y="17.3" style="font-family:'Times New Roman'; font-weight:bold; font-size:22.9px; font-style:italic; color:black; overflow:visible; fill:black; stroke-width:1px;">f(x)</text>
<text x="170.2" y="153.6" style="font-family:'Comic Sans MS'; font-size:20px; font-style:italic; color:black; overflow:visible; fill:black; stroke-width:1px;">x</text>
<text x="36.4" y="67.4" style="font-family:'Comic Sans MS'; font-size:20px; font-style:italic; color:black; overflow:visible; fill:black; stroke-width:1px;">y</text>
<path style="marker-end:url(#id4); fill:none; stroke:#0084c8; stroke-width:1.1; stroke-dasharray:8.8, 1.1;" d="m 182.2,136.5 c 0,0 15.3,-62.2 3.1,-77.1 C 173,44.6 93.6,54.9 62.9,60.3"/>
<path style="marker-end:url(#id5); fill:none; stroke:#ff9900; stroke-width:1.1; stroke-dasharray:6.6, 1.1;" d="m 58.9,68.2 c 0,0 27.6,5.5 52.9,4.9 25.3,-0.5 46.9,-7.3 52.7,3.6 5.8,10.9 0.1,13.1 1.3,28.9 1.2,15.8 -0,15.9 5.1,30.2"/>
<text x="186.6" y="49.3" style="font-family:'Comic Sans MS'; font-size:16.3px; font-style:italic; color:black; overflow:visible; fill:#0084c8; stroke-width:1px;">f(x)</text>
<text x="108.2" y="101.9" style="font-family:'Comic Sans MS'; font-size:18.4px; font-style:italic; color:black; overflow:visible; fill:#ff9900; stroke-width:1px;">f</text>
<text x="130.6" y="100.3" style="font-family:'Comic Sans MS'; font-size:18.4px; font-style:italic; color:black; overflow:visible; fill:#ff9900; stroke-width:1px;">(y)</text>
<text x="118.6" y="91.2" style="font-family:'Comic Sans MS'; font-size:14.4px; font-style:italic; color:black; overflow:visible; fill:#ff9900; stroke-width:1px;">-1</text>
<circle cx="176" cy="63.1" r="2.18195" style="color:black; overflow:visible; fill:black; stroke:#c17d11; stroke-width:1;"/>
</svg>
